SplineFontDB: 3.0
FontName: AnjaliOldLipi
FullName: AnjaliOldLipi
FamilyName: AnjaliOldLipi
Weight: Book
Copyright: Digitized data copyright (c) 2004 Kevin & Siji, 2008 Hiran Venugopalan, 2014 Rajeesh K Nambiar, 2008-2014 Swathanthra Malayalam Computing, http://smc.org.in
Version: 6.1.1
ItalicAngle: 0
UnderlinePosition: -310
UnderlineWidth: 80
Ascent: 1638
Descent: 410
sfntRevision: 0x00060000
LayerCount: 2
Layer: 0 1 "Back"  1
Layer: 1 1 "Fore"  0
XUID: [1021 505 1187139440 6218379]
FSType: 0
OS2Version: 1
OS2_WeightWidthSlopeOnly: 0
OS2_UseTypoMetrics: 1
CreationTime: 1201144321
ModificationTime: 1445582438
PfmFamily: 17
TTFWeight: 400
TTFWidth: 5
LineGap: 0
VLineGap: 0
Panose: 2 0 6 3 0 0 0 0 0 0
OS2TypoAscent: 0
OS2TypoAOffset: 1
OS2TypoDescent: -690
OS2TypoDOffset: 1
OS2TypoLinegap: 0
OS2WinAscent: -122
OS2WinAOffset: 1
OS2WinDescent: -16
OS2WinDOffset: 1
HheadAscent: -122
HheadAOffset: 1
HheadDescent: 16
HheadDOffset: 1
OS2SubXSize: 1330
OS2SubYSize: 1228
OS2SubXOff: 0
OS2SubYOff: 152
OS2SupXSize: 1330
OS2SupYSize: 1430
OS2SupXOff: 0
OS2SupYOff: 980
OS2StrikeYSize: 102
OS2StrikeYPos: 512
OS2Vendor: 'PfEd'
OS2CodePages: 00000001.00000000
OS2UnicodeRanges: 80800001.00002000.00000000.00000000
Lookup: 2 0 0 "'ccmp' Glyph Composition/Decomposition lookup 13"  {"'ccmp' Glyph Composition/Decomposition lookup 13-1"  } ['ccmp' ('mlm2' <'dflt' > 'mlym' <'dflt' > ) ]
Lookup: 6 0 0 "'calt' Contextual Alternates lookup 14"  {"'calt' Contextual Alternates lookup 14-1"  } ['calt' ('mlm2' <'dflt' > 'mlym' <'dflt' > ) ]
Lookup: 4 0 0 "'akhn' Akhand in Malay+AQEA-lam lookup 0"  {"'akhn' Akhand in Malay+AQEA-lam lookup 0 subtable"  } ['akhn' ('mlym' <'dflt' > ) ]
Lookup: 4 0 0 "'akhn' Akhand in Malay+AQEA-lam2 lookup 0"  {"'akhn' Akhand in Malay+AQEA-lam2 lookup 0 subtable"  } ['akhn' ('mlm2' <'dflt' > ) ]
Lookup: 4 0 0 "'half' Half Forms in Malay+AQEA-lam lookup 1"  {"'half' Half Forms in Malay+AQEA-lam lookup 1 subtable"  } ['half' ('mlym' <'dflt' > ) ]

StartChar: .notdef
Encoding: 256 -1 0
Width: 602
GlyphClass: 2
Flags: W
LayerCount: 2
Fore
SplineSet
46 -25 m 2,0,1
 21 -25 21 -25 21 0 c 2,2,-1
 21 932 l 2,3,4
 21 957 21 957 46 957 c 2,5,-1
 512 957 l 2,6,7
 537 957 537 957 537 932 c 2,8,-1
 537 0 l 2,9,10
 537 -25 537 -25 512 -25 c 2,11,-1
 46 -25 l 2,0,1
71 25 m 1,12,-1
 487 25 l 1,13,-1
 487 907 l 1,14,-1
 71 907 l 1,15,-1
 71 25 l 1,12,-1
117 71 m 1,16,-1
 441 71 l 1,17,-1
 441 859 l 1,18,-1
 117 859 l 1,19,-1
 117 71 l 1,16,-1
92 21 m 2,20,21
 67 21 67 21 67 46 c 2,22,-1
 67 884 l 2,23,24
 67 909 67 909 92 909 c 2,25,-1
 466 909 l 2,26,27
 491 909 491 909 491 884 c 2,28,-1
 491 46 l 2,29,30
 491 21 491 21 466 21 c 2,31,-1
 92 21 l 2,20,21
EndSplineSet
EndChar

StartChar: exclam
Encoding: 33 33 5
Width: 568
GlyphClass: 2
Flags: W
LayerCount: 2
Fore
SplineSet
370 1465 m 1,0,-1
 370 365 l 1,1,-1
 232 365 l 1,2,-1
 232 1465 l 1,3,-1
 370 1465 l 1,0,-1
402 0 m 1,4,-1
 198 0 l 1,5,-1
 198 205 l 1,6,-1
 402 205 l 1,7,-1
 402 0 l 1,4,-1
EndSplineSet
EndChar

StartChar: quotedbl
Encoding: 34 34 6
Width: 727
GlyphClass: 2
Flags: W
LayerCount: 2
Fore
SplineSet
251 1465 m 1,0,-1
 251 938 l 1,1,-1
 114 938 l 1,2,-1
 114 1465 l 1,3,-1
 251 1465 l 1,0,-1
606 1465 m 1,4,-1
 606 938 l 1,5,-1
 469 938 l 1,6,-1
 469 1465 l 1,7,-1
 606 1465 l 1,4,-1
EndSplineSet
EndChar

StartChar: numbersign
Encoding: 35 35 7
Width: 1139
GlyphClass: 2
Flags: W
LayerCount: 2
Fore
SplineSet
105 1059 m 1,0,-1
 330 1059 l 1,1,-1
 415 1479 l 1,2,-1
 551 1451 l 1,3,-1
 472 1059 l 1,4,-1
 800 1059 l 1,5,-1
 885 1479 l 1,6,-1
 1021 1451 l 1,7,-1
 942 1059 l 1,8,-1
 1116 1059 l 1,9,-1
 1116 921 l 1,10,-1
 914 921 l 1,11,-1
 839 549 l 1,12,-1
 1033 549 l 1,13,-1
 1033 411 l 1,14,-1
 811 411 l 1,15,-1
 725 -14 l 1,16,-1
 589 14 l 1,17,-1
 669 411 l 1,18,-1
 341 411 l 1,19,-1
 255 -14 l 1,20,-1
 119 14 l 1,21,-1
 199 411 l 1,22,-1
 22 411 l 1,23,-1
 22 549 l 1,24,-1
 227 549 l 1,25,-1
 302 921 l 1,26,-1
 105 921 l 1,27,-1
 105 1059 l 1,0,-1
369 549 m 1,28,-1
 697 549 l 1,29,-1
 772 921 l 1,30,-1
 444 921 l 1,31,-1
 369 549 l 1,28,-1
EndSplineSet
EndChar

StartChar: dollar
Encoding: 36 36 8
Width: 1139
GlyphClass: 2
Flags: W
LayerCount: 2
Fore
SplineSet
852 1131 m 1,0,1
 852 1225 852 1225 776 1276 c 0,2,3
 723 1312 723 1312 631 1325 c 1,4,-1
 631 813 l 1,5,6
 706 789 706 789 777 760.5 c 128,-1,7
 848 732 848 732 903 687 c 0,8,9
 1025 587 1025 587 1025 408 c 0,10,11
 1026 138 1026 138 806 32 c 0,12,13
 726 -7 726 -7 631 -16 c 1,14,-1
 631 -183 l 1,15,-1
 493 -183 l 1,16,-1
 493 -14 l 1,17,18
 336 10 336 10 226 105 c 0,19,20
 92 221 92 221 93 408 c 1,21,-1
 231 408 l 1,22,23
 230 288 230 288 316 210 c 0,24,25
 386 146 386 146 493 125 c 1,26,-1
 493 711 l 1,27,28
 326 767 326 767 263 822 c 128,-1,29
 200 877 200 877 171 938.5 c 128,-1,30
 142 1000 142 1000 142 1078.5 c 128,-1,31
 142 1157 142 1157 158.5 1209.5 c 128,-1,32
 175 1262 175 1262 202.5 1301.5 c 128,-1,33
 230 1341 230 1341 266.5 1369 c 128,-1,34
 303 1397 303 1397 342 1416 c 0,35,36
 409 1449 409 1449 493 1461 c 1,37,-1
 493 1637 l 1,38,-1
 631 1637 l 1,39,-1
 631 1464 l 1,40,41
 764 1452 764 1452 862 1390 c 0,42,43
 990 1308 990 1308 990 1131 c 1,44,-1
 852 1131 l 1,0,1
862 280 m 0,45,46
 886 332 886 332 886.5 397.5 c 128,-1,47
 887 463 887 463 866 503.5 c 0,48,49
 846 544 846 544 810 574 c 0,50,51
 755 621 755 621 631 666 c 1,52,-1
 631 123 l 1,53,54
 798 146 798 146 862 280 c 0,45,46
300 1189 m 0,55,56
 280 1148 280 1148 280 1094.5 c 128,-1,57
 280 1041 280 1041 296.5 1005 c 128,-1,58
 313 969 313 969 342 942 c 0,59,60
 393 894 393 894 493 858 c 1,61,-1
 493 1321 l 1,62,63
 351 1292 351 1292 300 1189 c 0,55,56
EndSplineSet
EndChar

StartChar: percent
Encoding: 37 37 9
Width: 1820
GlyphClass: 2
Flags: W
LayerCount: 2
Fore
SplineSet
145 1100 m 256,0,1
 145 1262 145 1262 235 1376 c 0,2,3
 325 1490 325 1490 453 1490 c 256,4,5
 581 1490 581 1490 671 1376 c 0,6,7
 761 1262 761 1262 761 1100 c 256,8,9
 761 938 761 938 671 824 c 0,10,11
 581 710 581 710 453 710 c 256,12,13
 325 710 325 710 235 824 c 0,14,15
 145 938 145 938 145 1100 c 256,0,1
1055 370 m 256,16,17
 1055 532 1055 532 1145 646 c 0,18,19
 1235 760 1235 760 1363 760 c 256,20,21
 1491 760 1491 760 1581 646 c 0,22,23
 1671 532 1671 532 1671 370 c 256,24,25
 1671 208 1671 208 1581 94 c 0,26,27
 1491 -20 1491 -20 1363 -20 c 256,28,29
 1235 -20 1235 -20 1145 94 c 0,30,31
 1055 208 1055 208 1055 370 c 256,16,17
283 1100 m 256,32,33
 283 996 283 996 333 922 c 128,-1,34
 383 848 383 848 453 848 c 256,35,36
 523 848 523 848 573 922 c 128,-1,37
 623 996 623 996 623 1100 c 256,38,39
 623 1204 623 1204 573 1278 c 128,-1,40
 523 1352 523 1352 453 1352 c 256,41,42
 383 1352 383 1352 333 1278 c 128,-1,43
 283 1204 283 1204 283 1100 c 256,32,33
1193 370 m 256,44,45
 1193 266 1193 266 1243 192 c 128,-1,46
 1293 118 1293 118 1363 118 c 256,47,48
 1433 118 1433 118 1483 192 c 128,-1,49
 1533 266 1533 266 1533 370 c 256,50,51
 1533 474 1533 474 1483 548 c 128,-1,52
 1433 622 1433 622 1363 622 c 256,53,54
 1293 622 1293 622 1243 548 c 128,-1,55
 1193 474 1193 474 1193 370 c 256,44,45
1239 1488 m 1,56,-1
 1361 1422 l 1,57,-1
 574 -40 l 1,58,-1
 452 26 l 1,59,-1
 1239 1488 l 1,56,-1
EndSplineSet
EndChar

StartChar: ampersand
Encoding: 38 38 10
Width: 1365
GlyphClass: 2
Flags: W
LayerCount: 2
Fore
SplineSet
999 394 m 1,0,1
 1060 520 1060 520 1060 683 c 1,2,-1
 1198 683 l 1,3,4
 1198 451 1198 451 1094 275 c 1,5,6
 1230 103 1230 103 1250 80 c 1,7,-1
 1142 -6 l 1,8,-1
 1007 164 l 1,9,10
 832 -15 832 -15 571 -15 c 0,11,12
 356 -14 356 -14 236 102 c 0,13,14
 118 215 118 215 118 408 c 0,15,16
 118 612 118 612 334 760 c 0,17,18
 396 802 396 802 462 842 c 1,19,20
 306 1038 306 1038 306 1175 c 0,21,22
 306 1304 306 1304 390 1394 c 0,23,24
 479 1490 479 1490 621 1490 c 0,25,26
 850 1490 850 1490 928 1326 c 0,27,28
 956 1268 956 1268 956 1193 c 128,-1,29
 956 1118 956 1118 933 1062.5 c 128,-1,30
 910 1007 910 1007 871 961 c 0,31,32
 806 885 806 885 671 803 c 1,33,34
 753 701 753 701 838 595.5 c 128,-1,35
 923 490 923 490 999 394 c 1,0,1
919 275 m 1,36,-1
 550 733 l 1,37,38
 405 649 405 649 355 601 c 0,39,40
 256 507 256 507 256 408 c 0,41,42
 256 278 256 278 338 202 c 0,43,44
 422 123 422 123 571 123 c 0,45,46
 781 123 781 123 919 275 c 1,36,-1
574 923 m 0,47,48
 580 915 580 915 583 912 c 1,49,50
 695 980 695 980 737 1024 c 0,51,52
 818 1109 818 1109 818 1187 c 0,53,54
 818 1271 818 1271 758 1314 c 0,55,56
 706 1352 706 1352 642.5 1352 c 128,-1,57
 579 1352 579 1352 546.5 1337.5 c 0,58,59
 514 1322 514 1322 491 1298 c 0,60,61
 444 1248 444 1248 444 1166 c 128,-1,62
 444 1084 444 1084 574 923 c 0,47,48
EndSplineSet
EndChar

StartChar: quotesingle
Encoding: 39 39 11
Width: 390
GlyphClass: 2
Flags: W
LayerCount: 2
Fore
SplineSet
266 1465 m 1,0,-1
 266 938 l 1,1,-1
 129 938 l 1,2,-1
 129 1465 l 1,3,-1
 266 1465 l 1,0,-1
EndSplineSet
EndChar

StartChar: parenleft
Encoding: 40 40 12
Width: 682
GlyphClass: 2
Flags: W
LayerCount: 2
Fore
SplineSet
590 1450 m 1,0,1
 357 1106 357 1106 300 724 c 0,2,3
 287 638 287 638 287 548 c 128,-1,4
 287 458 287 458 300 370 c 0,5,6
 312 282 312 282 334 200 c 0,7,8
 415 -110 415 -110 592 -392 c 1,9,-1
 476 -468 l 1,10,11
 225 -67 225 -67 163 355 c 0,12,13
 149 450 149 450 149 547.5 c 128,-1,14
 149 645 149 645 163 739.5 c 128,-1,15
 177 834 177 834 200 921 c 0,16,17
 285 1244 285 1244 478 1530 c 1,18,-1
 590 1450 l 1,0,1
EndSplineSet
EndChar

StartChar: parenright
Encoding: 41 41 13
Width: 682
GlyphClass: 2
Flags: W
LayerCount: 2
Fore
SplineSet
262 1530 m 1,0,1
 512 1154 512 1154 576 740 c 0,2,3
 590 646 590 646 590.5 548 c 128,-1,4
 591 450 591 450 577 355 c 128,-1,5
 563 260 563 260 540 170 c 0,6,7
 456 -157 456 -157 264 -468 c 1,8,-1
 148 -392 l 1,9,10
 384 -12 384 -12 440 370 c 0,11,12
 453 458 453 458 453 547.5 c 128,-1,13
 453 637 453 637 440 723.5 c 0,14,15
 428 810 428 810 406 890 c 0,16,17
 326 1186 326 1186 150 1450 c 1,18,-1
 262 1530 l 1,0,1
EndSplineSet
EndChar

StartChar: asterisk
Encoding: 42 42 14
Width: 797
GlyphClass: 2
Flags: W
LayerCount: 2
Fore
SplineSet
511 1139 m 1,0,1
 632 964 632 964 646 945 c 1,2,-1
 532 867 l 1,3,-1
 399 1059 l 1,4,-1
 263 865 l 1,5,-1
 151 945 l 1,6,-1
 294 1139 l 1,7,-1
 69 1202 l 1,8,-1
 107 1334 l 1,9,-1
 330 1268 l 1,10,-1
 330 1490 l 1,11,-1
 468 1490 l 1,12,-1
 468 1269 l 1,13,-1
 685 1331 l 1,14,-1
 721 1199 l 1,15,-1
 511 1139 l 1,0,1
EndSplineSet
EndChar

StartChar: plus
Encoding: 43 43 15
Width: 1195
GlyphClass: 2
Flags: W
LayerCount: 2
Fore
SplineSet
113 794 m 1,0,-1
 529 794 l 1,1,-1
 529 1208 l 1,2,-1
 667 1208 l 1,3,-1
 667 794 l 1,4,-1
 1084 794 l 1,5,-1
 1084 656 l 1,6,-1
 667 656 l 1,7,-1
 667 238 l 1,8,-1
 529 238 l 1,9,-1
 529 656 l 1,10,-1
 113 656 l 1,11,-1
 113 794 l 1,0,-1
EndSplineSet
EndChar

StartChar: comma
Encoding: 44 44 16
Width: 568
GlyphClass: 2
Flags: W
LayerCount: 2
Fore
SplineSet
169 205 m 1,0,-1
 385 205 l 1,1,-1
 385 -155 l 1,2,-1
 165 -365 l 1,3,-1
 146 -240 l 1,4,-1
 247 -106 l 1,5,-1
 225 0 l 1,6,-1
 169 0 l 1,7,-1
 169 205 l 1,0,-1
EndSplineSet
EndChar

StartChar: hyphen
Encoding: 45 45 17
Width: 682
GlyphClass: 2
Flags: W
LayerCount: 2
Fore
SplineSet
65 602 m 5,0,-1
 616 602 l 5,1,-1
 616 464 l 5,2,-1
 65 464 l 5,3,-1
 65 602 l 5,0,-1
EndSplineSet
EndChar

StartChar: period
Encoding: 46 46 18
Width: 568
GlyphClass: 2
Flags: W
LayerCount: 2
Fore
SplineSet
387 0 m 1,0,-1
 183 0 l 1,1,-1
 183 205 l 1,2,-1
 387 205 l 1,3,-1
 387 0 l 1,0,-1
EndSplineSet
EndChar

StartChar: slash
Encoding: 47 47 19
Width: 568
GlyphClass: 2
Flags: W
LayerCount: 2
Fore
SplineSet
564 1446 m 5,0,-1
 140 -19 l 5,1,-1
 8 19 l 5,2,-1
 432 1484 l 5,3,-1
 564 1446 l 5,0,-1
EndSplineSet
EndChar

StartChar: zero
Encoding: 48 48 20
Width: 1139
GlyphClass: 2
Flags: W
LayerCount: 2
Fore
SplineSet
575 1490 m 0,0,1
 1015 1490 1015 1490 1015 772 c 0,2,3
 1016 217 1016 217 778 38 c 0,4,5
 694 -25 694 -25 575.5 -25 c 128,-1,6
 457 -25 457 -25 371 38 c 0,7,8
 284 102 284 102 228 210 c 0,9,10
 118 422 118 422 118 772 c 0,11,12
 118 1292 118 1292 373 1440 c 0,13,14
 459 1490 459 1490 575 1490 c 0,0,1
877 772 m 0,15,16
 877 1352 877 1352 575 1352 c 256,17,18
 416 1352 416 1352 334 1196 c 0,19,20
 256 1047 256 1047 256 772 c 0,21,22
 256 318 256 318 433 165 c 0,23,24
 493 113 493 113 575 113 c 128,-1,25
 657 113 657 113 714 165 c 0,26,27
 772 216 772 216 808 306 c 0,28,29
 878 476 878 476 877 772 c 0,15,16
EndSplineSet
EndChar

StartChar: one
Encoding: 49 49 21
Width: 1139
GlyphClass: 2
Flags: W
LayerCount: 2
Fore
SplineSet
727 1491 m 1,0,-1
 727 8 l 1,1,-1
 589 8 l 1,2,-1
 589 1267 l 1,3,-1
 428 1073 l 1,4,-1
 322 1161 l 1,5,-1
 596 1491 l 1,6,-1
 727 1491 l 1,0,-1
EndSplineSet
EndChar

StartChar: two
Encoding: 50 50 22
Width: 1139
GlyphClass: 2
Flags: W
LayerCount: 2
Fore
SplineSet
129 1063 m 1,0,1
 129 1264 129 1264 279 1386 c 0,2,3
 409 1490 409 1490 574 1490 c 0,4,5
 759 1490 759 1490 880 1385 c 0,6,7
 1010 1272 1010 1272 1010 1076 c 0,8,9
 1010 840 1010 840 723 592 c 0,10,11
 643 523 643 523 578.5 470.5 c 128,-1,12
 514 418 514 418 468 376 c 128,-1,13
 422 334 422 334 386 292 c 0,14,15
 306 198 306 198 307 138 c 1,16,-1
 1035 138 l 1,17,-1
 1035 0 l 1,18,19
 830 -1 830 -1 650 -1 c 2,20,-1
 112 -1 l 1,21,22
 112 232 112 232 340 446 c 0,23,24
 406 508 406 508 476 565 c 1,25,-1
 475 565 l 1,26,27
 669 721 669 721 735 797 c 0,28,29
 872 952 872 952 872 1076 c 0,30,31
 872 1205 872 1205 784 1281 c 0,32,33
 702 1352 702 1352 574 1352 c 0,34,35
 461 1352 461 1352 371 1280 c 0,36,37
 267 1197 267 1197 267 1063 c 1,38,-1
 129 1063 l 1,0,1
EndSplineSet
EndChar

StartChar: three
Encoding: 51 51 23
Width: 1139
GlyphClass: 2
Flags: W
LayerCount: 2
Fore
SplineSet
793 798 m 1,0,1
 1025 689 1025 689 1025 429 c 0,2,3
 1025 230 1025 230 878 97 c 0,4,5
 744 -25 744 -25 569 -25 c 0,6,7
 379 -24 379 -24 243 104 c 0,8,9
 114 226 114 226 114 379 c 1,10,-1
 252 379 l 1,11,12
 252 279 252 279 342 198 c 0,13,14
 437 113 437 113 569 113 c 0,15,16
 690 112 690 112 784 198 c 0,17,18
 886 291 886 291 887 429 c 0,19,20
 886 564 886 564 780 642 c 0,21,22
 670 722 670 722 471 723 c 1,23,-1
 471 861 l 1,24,25
 737 861 737 861 787 1022 c 0,26,27
 802 1070 802 1070 802 1123 c 128,-1,28
 802 1176 802 1176 780.5 1218 c 0,29,30
 758 1260 758 1260 722 1290 c 0,31,32
 647 1352 647 1352 534 1352 c 0,33,34
 455 1352 455 1352 370 1292 c 0,35,36
 273 1224 273 1224 273 1110 c 1,37,-1
 135 1110 l 1,38,39
 135 1284 135 1284 284 1396 c 0,40,41
 409 1490 409 1490 534 1490 c 0,42,43
 704 1490 704 1490 820 1392 c 0,44,45
 940 1289 940 1289 940 1124 c 0,46,47
 940 892 940 892 793 798 c 1,0,1
EndSplineSet
EndChar

StartChar: four
Encoding: 52 52 24
Width: 1139
GlyphClass: 2
Flags: W
LayerCount: 2
Fore
SplineSet
32 503 m 1,0,-1
 679 1466 l 1,1,-1
 828 1466 l 1,2,-1
 828 0 l 1,3,-1
 690 0 l 1,4,-1
 690 1236 l 1,5,6
 629 1145 629 1145 571 1058.5 c 0,7,8
 512 972 512 972 454 884 c 0,9,10
 379 772 379 772 205 512 c 1,11,-1
 1044 512 l 1,12,-1
 1044 374 l 1,13,-1
 32 374 l 1,14,-1
 32 503 l 1,0,-1
EndSplineSet
EndChar

StartChar: five
Encoding: 53 53 25
Width: 1139
GlyphClass: 2
Flags: W
LayerCount: 2
Fore
SplineSet
282 880 m 1,0,1
 404 954 404 954 545.5 954 c 128,-1,2
 687 954 687 954 781 918.5 c 0,3,4
 875 884 875 884 934 822 c 0,5,6
 1048 703 1048 703 1048 499 c 0,7,8
 1048 278 1048 278 912 129 c 0,9,10
 772 -25 772 -25 555 -25 c 0,11,12
 326 -24 326 -24 198 122 c 0,13,14
 92 242 92 242 93 372 c 1,15,-1
 231 372 l 1,16,17
 231 288 231 288 305 210 c 0,18,19
 396 114 396 114 555 113 c 0,20,21
 710 114 710 114 811 226 c 0,22,23
 910 337 910 337 910 499 c 0,24,25
 910 718 910 718 715 791 c 0,26,27
 648 816 648 816 580 816 c 128,-1,28
 512 816 512 816 476 808.5 c 0,29,30
 440 800 440 800 411 788 c 0,31,32
 301 741 301 741 250 643 c 1,33,-1
 125 676 l 1,34,-1
 191 1466 l 1,35,-1
 924 1466 l 1,36,-1
 924 1328 l 1,37,-1
 319 1328 l 1,38,-1
 282 880 l 1,0,1
EndSplineSet
EndChar

StartChar: six
Encoding: 54 54 26
Width: 1139
GlyphClass: 2
Flags: W
LayerCount: 2
Fore
SplineSet
254 789 m 1,0,1
 414 949 414 949 598 949 c 0,2,3
 765 949 765 949 888 830 c 0,4,5
 1028 695 1028 695 1028 465 c 0,6,7
 1028 266 1028 266 926 130 c 0,8,9
 810 -25 810 -25 602 -25 c 0,10,11
 372 -25 372 -25 246 154 c 0,12,13
 114 340 114 340 114 697 c 0,14,15
 114 1038 114 1038 229 1251 c 0,16,17
 358 1490 358 1490 618 1490 c 0,18,19
 781 1490 781 1490 886 1398 c 0,20,21
 1003 1295 1003 1295 1003 1120 c 1,22,-1
 865 1120 l 1,23,24
 865 1228 865 1228 790 1294 c 0,25,26
 723 1352 723 1352 625.5 1352 c 128,-1,27
 528 1352 528 1352 462 1307 c 128,-1,28
 396 1262 396 1262 352 1185 c 0,29,30
 267 1036 267 1036 254 789 c 1,0,1
596 811 m 0,31,32
 542 811 542 811 488.5 789.5 c 0,33,34
 436 768 436 768 390 734 c 0,35,36
 297 663 297 663 257 569 c 1,37,38
 287 229 287 229 472 141 c 0,39,40
 531 113 531 113 604 113 c 128,-1,41
 677 113 677 113 731.5 143.5 c 128,-1,42
 786 174 786 174 822 224 c 0,43,44
 890 320 890 320 890 465 c 0,45,46
 890 629 890 629 795 726 c 0,47,48
 712 811 712 811 596 811 c 0,31,32
EndSplineSet
EndChar

StartChar: seven
Encoding: 55 55 27
Width: 1139
GlyphClass: 2
Flags: W
LayerCount: 2
Fore
SplineSet
98 1466 m 1,0,-1
 1047 1466 l 1,1,-1
 1047 1328 l 1,2,-1
 501 -24 l 1,3,-1
 375 30 l 1,4,-1
 898 1328 l 1,5,-1
 98 1328 l 1,6,-1
 98 1466 l 1,0,-1
EndSplineSet
EndChar

StartChar: eight
Encoding: 56 56 28
Width: 1139
GlyphClass: 2
Flags: W
LayerCount: 2
Fore
SplineSet
983 1123 m 0,0,1
 983 919 983 919 742 770 c 1,2,3
 883 695 883 695 951 615 c 0,4,5
 1040 511 1040 511 1040 370 c 0,6,7
 1040 219 1040 219 918 103 c 0,8,9
 784 -25 784 -25 572 -25 c 0,10,11
 384 -25 384 -25 256 64 c 0,12,13
 108 167 108 167 108 370 c 0,14,15
 108 560 108 560 313 688 c 0,16,17
 373 726 373 726 438 761 c 1,18,19
 302 831 302 831 251.5 887.5 c 128,-1,20
 201 944 201 944 179 998 c 128,-1,21
 157 1052 157 1052 157 1120.5 c 128,-1,22
 157 1189 157 1189 181 1255 c 0,23,24
 206 1321 206 1321 256 1373 c 0,25,26
 370 1490 370 1490 572 1490 c 0,27,28
 837 1490 837 1490 943 1284 c 0,29,30
 983 1206 983 1206 983 1123 c 0,0,1
902 378 m 0,31,32
 902 431 902 431 876 478 c 0,33,34
 850 524 850 524 807 562 c 0,35,36
 739 621 739 621 594 688 c 1,37,-1
 571 676 l 1,38,39
 418 599 418 599 360 553 c 0,40,41
 246 461 246 461 246 380.5 c 128,-1,42
 246 300 246 300 275 251 c 128,-1,43
 304 202 304 202 350 172 c 0,44,45
 439 114 439 114 572 113 c 0,46,47
 721 113 721 113 816 197 c 0,48,49
 902 273 902 273 902 378 c 0,31,32
573 1352 m 0,50,51
 499 1352 499 1352 446.5 1332 c 128,-1,52
 394 1312 394 1312 360 1280 c 0,53,54
 294 1216 294 1216 295 1123 c 0,55,56
 295 1002 295 1002 485 896 c 0,57,58
 538 866 538 866 592 841 c 1,59,60
 716 909 716 909 760 952 c 0,61,62
 845 1036 845 1036 845 1123 c 0,63,64
 846 1208 846 1208 784 1272 c 0,65,66
 708 1352 708 1352 573 1352 c 0,50,51
EndSplineSet
EndChar

StartChar: nine
Encoding: 57 57 29
Width: 1139
GlyphClass: 2
Flags: W
LayerCount: 2
Fore
SplineSet
895 685 m 1,0,1
 724 525 724 525 534 525 c 0,2,3
 352 524 352 524 227 682 c 0,4,5
 113 825 113 825 113 993 c 0,6,7
 114 1182 114 1182 198 1318 c 0,8,9
 263 1422 263 1422 390 1467 c 0,10,11
 455 1490 455 1490 540.5 1490 c 128,-1,12
 626 1490 626 1490 695.5 1462.5 c 128,-1,13
 765 1435 765 1435 820 1386.5 c 128,-1,14
 875 1338 875 1338 915.5 1272 c 128,-1,15
 956 1206 956 1206 983 1128 c 0,16,17
 1036 976 1036 976 1036 794 c 0,18,19
 1036 481 1036 481 943 264 c 0,20,21
 867 88 867 88 715 14 c 0,22,23
 636 -24 636 -24 551.5 -24.5 c 128,-1,24
 467 -25 467 -25 399.5 -2.5 c 128,-1,25
 332 20 332 20 275 65 c 0,26,27
 144 168 144 168 144 334 c 1,28,-1
 282 334 l 1,29,30
 282 232 282 232 366 170 c 0,31,32
 441 114 441 114 519 113.5 c 128,-1,33
 597 113 597 113 649 137.5 c 128,-1,34
 701 162 701 162 740.5 204.5 c 128,-1,35
 780 247 780 247 807.5 303 c 0,36,37
 835 358 835 358 853 422 c 0,38,39
 886 538 886 538 895 685 c 1,0,1
416.5 694.5 m 128,-1,41
 469 663 469 663 535 663 c 128,-1,42
 601 663 601 663 659.5 690 c 128,-1,43
 718 717 718 717 764 754 c 0,44,45
 830 807 830 807 893 891 c 1,46,47
 862 1204 862 1204 684 1314 c 0,48,49
 622 1352 622 1352 553 1352 c 128,-1,50
 484 1352 484 1352 439.5 1335.5 c 128,-1,51
 395 1319 395 1319 362.5 1291.5 c 128,-1,52
 330 1264 330 1264 308.5 1227.5 c 0,53,54
 286 1191 286 1191 274 1151 c 0,55,56
 250 1076 250 1076 250.5 1007.5 c 128,-1,57
 251 939 251 939 271 880.5 c 128,-1,58
 291 822 291 822 327.5 774 c 128,-1,40
 364 726 364 726 416.5 694.5 c 128,-1,41
EndSplineSet
EndChar

StartChar: colon
Encoding: 58 58 30
Width: 568
GlyphClass: 2
Flags: W
LayerCount: 2
Fore
SplineSet
387 0 m 1,0,-1
 183 0 l 1,1,-1
 183 205 l 1,2,-1
 387 205 l 1,3,-1
 387 0 l 1,0,-1
387 855 m 1,4,-1
 183 855 l 1,5,-1
 183 1062 l 1,6,-1
 387 1062 l 1,7,-1
 387 855 l 1,4,-1
EndSplineSet
EndChar

StartChar: semicolon
Encoding: 59 59 31
Width: 568
GlyphClass: 2
Flags: W
LayerCount: 2
Fore
SplineSet
387 855 m 1,0,-1
 183 855 l 1,1,-1
 183 1062 l 1,2,-1
 387 1062 l 1,3,-1
 387 855 l 1,0,-1
183 0 m 1,4,-1
 247 0 l 1,5,-1
 247 -107 l 1,6,-1
 195 -164 l 1,7,-1
 214 -319 l 1,8,-1
 385 -155 l 1,9,-1
 385 205 l 1,10,-1
 183 205 l 1,11,-1
 183 0 l 1,4,-1
EndSplineSet
EndChar

StartChar: less
Encoding: 60 60 32
Width: 1195
GlyphClass: 2
Flags: W
LayerCount: 2
Fore
SplineSet
113 798 m 1,0,-1
 1057 1198 l 1,1,-1
 1111 1070 l 1,2,-1
 292 724 l 1,3,-1
 1110 388 l 1,4,-1
 1058 260 l 1,5,-1
 113 648 l 1,6,-1
 113 798 l 1,0,-1
EndSplineSet
EndChar

StartChar: equal
Encoding: 61 61 33
Width: 1195
GlyphClass: 2
Flags: W
LayerCount: 2
Fore
SplineSet
113 1014 m 1,0,-1
 1085 1014 l 1,1,-1
 1085 876 l 1,2,-1
 113 876 l 1,3,-1
 113 1014 l 1,0,-1
113 568 m 1,4,-1
 1085 568 l 1,5,-1
 1085 430 l 1,6,-1
 113 430 l 1,7,-1
 113 568 l 1,4,-1
EndSplineSet
EndChar

StartChar: greater
Encoding: 62 62 34
Width: 1195
GlyphClass: 2
Flags: W
LayerCount: 2
Fore
SplineSet
1084 648 m 1,0,-1
 139 260 l 1,1,-1
 87 388 l 1,2,-1
 905 724 l 1,3,-1
 86 1070 l 1,4,-1
 140 1198 l 1,5,-1
 1084 798 l 1,6,-1
 1084 648 l 1,0,-1
EndSplineSet
EndChar

StartChar: question
Encoding: 63 63 35
Width: 1139
GlyphClass: 2
Flags: W
LayerCount: 2
Fore
SplineSet
128 1061 m 1,0,1
 128 1270 128 1270 248 1384 c 0,2,3
 360 1490 360 1490 548 1490 c 0,4,5
 882 1490 882 1490 984 1252 c 0,6,7
 1018 1174 1018 1174 1018 1098 c 128,-1,8
 1018 1022 1018 1022 998.5 971 c 128,-1,9
 979 920 979 920 947 875 c 0,10,11
 901 810 901 810 831 745 c 128,-1,12
 761 680 761 680 730.5 650.5 c 0,13,14
 700 620 700 620 676 590 c 0,15,16
 624 522 624 522 624 464 c 2,17,-1
 624 360 l 1,18,-1
 486 360 l 1,19,-1
 486 464 l 2,20,21
 486 592 486 592 624 736 c 0,22,23
 662 776 662 776 697 808.5 c 128,-1,24
 732 841 732 841 764.5 873 c 0,25,26
 796 905 796 905 822 939 c 0,27,28
 880 1016 880 1016 880 1082 c 0,29,30
 880 1178 880 1178 820 1252 c 0,31,32
 738 1352 738 1352 548 1352 c 0,33,34
 352 1352 352 1352 288 1188 c 0,35,36
 266 1134 266 1134 266 1061 c 1,37,-1
 128 1061 l 1,0,1
486 204 m 1,38,-1
 648 204 l 1,39,-1
 648 0 l 1,40,-1
 486 0 l 1,41,-1
 486 204 l 1,38,-1
EndSplineSet
EndChar

StartChar: at
Encoding: 64 64 36
Width: 2079
GlyphClass: 2
Flags: W
LayerCount: 2
Fore
SplineSet
1117 -303 m 0,0,1
 1409 -303 1409 -303 1537 -234 c 1,2,-1
 1639 -328 l 1,3,4
 1543 -390 1543 -390 1352 -424 c 0,5,6
 1254 -442 1254 -442 1133.5 -441.5 c 128,-1,7
 1013 -441 1013 -441 899 -420.5 c 128,-1,8
 785 -400 785 -400 674 -355 c 128,-1,9
 563 -310 563 -310 463 -238 c 128,-1,10
 363 -166 363 -166 287 -64 c 0,11,12
 121 159 121 159 121 478 c 0,13,14
 121 802 121 802 273 1042 c 0,15,16
 410 1259 410 1259 645 1379 c 0,17,18
 863 1490 863 1490 1110 1490 c 0,19,20
 1477 1490 1477 1490 1713 1290 c 0,21,22
 1869 1157 1869 1157 1929 950 c 0,23,24
 1959 846 1959 846 1959 724 c 256,25,26
 1960 497 1960 497 1854 313 c 0,27,28
 1764 156 1764 156 1622 60 c 0,29,30
 1496 -25 1496 -25 1398 -25 c 0,31,32
 1248 -26 1248 -26 1203 68 c 0,33,34
 1187 102 1187 102 1183 152 c 1,35,36
 1100 72 1100 72 1053 41 c 0,37,38
 954 -25 954 -25 879.5 -25 c 128,-1,39
 805 -25 805 -25 743 0.5 c 128,-1,40
 681 26 681 26 630 80 c 0,41,42
 514 204 514 204 514 422 c 0,43,44
 514 569 514 569 583 720.5 c 128,-1,45
 652 872 652 872 768 970 c 0,46,47
 892 1074 892 1074 1033 1074 c 0,48,49
 1216 1074 1216 1074 1341 949 c 1,50,-1
 1366 1062 l 1,51,-1
 1500 1032 l 1,52,53
 1462 859 1462 859 1416 656.5 c 128,-1,54
 1370 454 1370 454 1348 356 c 0,55,56
 1320 236 1320 236 1320 189.5 c 128,-1,57
 1320 143 1320 143 1340.5 128 c 128,-1,58
 1361 113 1361 113 1396 113 c 128,-1,59
 1431 113 1431 113 1475.5 131 c 128,-1,60
 1520 149 1520 149 1567 183.5 c 128,-1,61
 1614 218 1614 218 1659.5 270 c 128,-1,62
 1705 322 1705 322 1741 390 c 0,63,64
 1821 540 1821 540 1821 706.5 c 128,-1,65
 1821 873 1821 873 1765.5 989.5 c 128,-1,66
 1710 1106 1710 1106 1614 1186 c 0,67,68
 1417 1351 1417 1351 1110 1352 c 0,69,70
 782 1352 782 1352 534 1134 c 0,71,72
 363 984 363 984 294 746 c 0,73,74
 259 624 259 624 259 478 c 128,-1,75
 259 332 259 332 297.5 218 c 128,-1,76
 336 104 336 104 401.5 17 c 128,-1,77
 467 -70 467 -70 553.5 -131 c 128,-1,78
 640 -192 640 -192 736 -230 c 0,79,80
 920 -303 920 -303 1117 -303 c 0,0,1
1301 772 m 1,81,82
 1256 870 1256 870 1148 916 c 0,83,84
 1100 936 1100 936 1039.5 936 c 128,-1,85
 979 936 979 936 930 914 c 128,-1,86
 881 892 881 892 838.5 854 c 128,-1,87
 796 816 796 816 761.5 765 c 0,88,89
 726 714 726 714 702 657 c 0,90,91
 652 540 652 540 652 442.5 c 128,-1,92
 652 345 652 345 671.5 287 c 0,93,94
 691 228 691 228 722 190 c 0,95,96
 784 113 784 113 864 113 c 0,97,98
 1018 114 1018 114 1158 302 c 0,99,100
 1212 375 1212 375 1229 451 c 128,-1,101
 1246 527 1246 527 1265.5 613.5 c 128,-1,102
 1285 700 1285 700 1301 772 c 1,81,82
EndSplineSet
EndChar

StartChar: A
Encoding: 65 65 37
Width: 1365
GlyphClass: 2
Flags: W
LayerCount: 2
Fore
SplineSet
601 1466 m 1,0,-1
 735 1466 l 1,1,-1
 1344 0 l 1,2,-1
 1194 0 l 1,3,-1
 1010 444 l 1,4,-1
 350 444 l 1,5,-1
 176 0 l 1,6,-1
 29 0 l 1,7,-1
 601 1466 l 1,0,-1
670 1263 m 1,8,9
 603 1090 603 1090 536.5 921.5 c 128,-1,10
 470 753 470 753 404 582 c 1,11,-1
 952 582 l 1,12,-1
 670 1263 l 1,8,9
EndSplineSet
EndChar

StartChar: B
Encoding: 66 66 38
Width: 1365
GlyphClass: 2
Flags: W
LayerCount: 2
Fore
SplineSet
686 0 m 1,0,-1
 507 -1 l 1,1,-1
 198 -1 l 1,2,-1
 198 1466 l 1,3,-1
 752 1466 l 2,4,5
 933 1466 933 1466 1053 1365 c 0,6,7
 1179 1259 1179 1259 1179 1084.5 c 128,-1,8
 1179 910 1179 910 1005 779 c 1,9,10
 1117 726 1117 726 1184 626 c 0,11,12
 1250 528 1250 528 1250 410 c 0,13,14
 1250 218 1250 218 1080 101 c 0,15,16
 933 0 933 0 760 0 c 2,17,18
 686 0 l 1,0,-1
336 693 m 1,19,-1
 336 138 l 1,20,-1
 760 138 l 2,21,22
 886 138 886 138 990 205 c 0,23,24
 1112 284 1112 284 1112 410 c 0,25,26
 1112 528 1112 528 1016 610 c 0,27,28
 917 694 917 694 768 693 c 2,29,-1
 336 693 l 1,19,-1
336 831 m 1,30,-1
 768 831 l 2,31,32
 862 830 862 830 948 904 c 0,33,34
 1042 984 1042 984 1041 1090 c 0,35,36
 1042 1197 1042 1197 956 1264 c 0,37,38
 874 1328 874 1328 752 1328 c 2,39,-1
 336 1328 l 1,40,-1
 336 831 l 1,30,-1
EndSplineSet
EndChar

StartChar: C
Encoding: 67 67 39
Width: 1479
GlyphClass: 2
Flags: W
LayerCount: 2
Fore
SplineSet
1210 1006 m 1,0,1
 1185 1146 1185 1146 1069 1245 c 0,2,3
 944 1352 944 1352 780 1352 c 0,4,5
 596 1352 596 1352 446 1222 c 0,6,7
 258 1059 258 1059 257 735 c 256,8,9
 258 410 258 410 442 246 c 0,10,11
 591 114 591 114 780 113 c 0,12,13
 952 113 952 113 1074 225 c 0,14,15
 1184 326 1184 326 1205 472 c 1,16,-1
 1341 452 l 1,17,18
 1311 254 1311 254 1167 122 c 0,19,20
 1007 -25 1007 -25 780 -25 c 0,21,22
 541 -25 541 -25 352 136 c 0,23,24
 210 257 210 257 150 476 c 0,25,26
 119 589 119 589 119 735 c 256,27,28
 120 1004 120 1004 236 1190 c 0,29,30
 332 1345 332 1345 498 1424 c 0,31,32
 637 1490 637 1490 780 1490 c 0,33,34
 998 1490 998 1490 1160 1348 c 0,35,36
 1315 1212 1315 1212 1346 1030 c 1,37,-1
 1210 1006 l 1,0,1
EndSplineSet
EndChar

StartChar: D
Encoding: 68 68 40
Width: 1479
GlyphClass: 2
Flags: W
LayerCount: 2
Fore
SplineSet
357 138 m 1,0,-1
 685 138 l 2,1,2
 879 138 879 138 1020 244 c 0,3,4
 1140 334 1140 334 1190 517 c 0,5,6
 1216 613 1216 613 1216.5 748 c 128,-1,7
 1217 883 1217 883 1175.5 991 c 128,-1,8
 1134 1099 1134 1099 1062 1174 c 0,9,10
 914 1328 914 1328 685 1328 c 2,11,-1
 357 1328 l 1,12,-1
 357 138 l 1,0,-1
219 1466 m 1,13,-1
 685 1466 l 2,14,15
 974 1466 974 1466 1160 1276 c 0,16,17
 1356 1076 1356 1076 1355 745 c 0,18,19
 1355 446 1355 446 1233 264 c 0,20,21
 1057 0 1057 0 685 0 c 2,22,-1
 219 0 l 1,23,-1
 219 1466 l 1,13,-1
EndSplineSet
EndChar

StartChar: E
Encoding: 69 69 41
Width: 1365
GlyphClass: 2
Flags: W
LayerCount: 2
Fore
SplineSet
1166 690 m 1,0,-1
 310 690 l 1,1,-1
 310 139 l 1,2,-1
 1257 139 l 1,3,-1
 1257 0 l 1,4,-1
 172 0 l 1,5,-1
 172 1465 l 1,6,-1
 1224 1465 l 1,7,-1
 1224 1327 l 1,8,-1
 310 1327 l 1,9,-1
 310 828 l 1,10,-1
 1166 828 l 1,11,-1
 1166 690 l 1,0,-1
EndSplineSet
EndChar

StartChar: F
Encoding: 70 70 42
Width: 1251
GlyphClass: 2
Flags: W
LayerCount: 2
Fore
SplineSet
1046 690 m 1,0,-1
 310 690 l 1,1,-1
 310 0 l 1,2,-1
 172 0 l 1,3,-1
 172 1465 l 1,4,-1
 1154 1465 l 1,5,-1
 1154 1327 l 1,6,-1
 310 1327 l 1,7,-1
 310 828 l 1,8,-1
 1046 828 l 1,9,-1
 1046 690 l 1,0,-1
EndSplineSet
EndChar

StartChar: G
Encoding: 71 71 43
Width: 1593
GlyphClass: 2
Flags: W
LayerCount: 2
Fore
SplineSet
1266 1022 m 1,0,1
 1266 1182 1266 1182 1089 1276 c 0,2,3
 947 1352 947 1352 801 1352 c 0,4,5
 706 1352 706 1352 619.5 1312 c 128,-1,6
 533 1272 533 1272 473.5 1226 c 128,-1,7
 414 1180 414 1180 366 1111 c 0,8,9
 259 957 259 957 259 734 c 256,10,11
 258 404 258 404 464 240 c 0,12,13
 624 113 624 113 815 113 c 0,14,15
 972 113 972 113 1130 205 c 0,16,17
 1302 305 1302 305 1301 435 c 2,18,-1
 1301 599 l 1,19,-1
 887 599 l 1,20,-1
 887 737 l 1,21,-1
 1439 737 l 1,22,-1
 1439 435 l 2,23,24
 1439 309 1439 309 1332 198 c 0,25,26
 1236 98 1236 98 1086 35 c 0,27,28
 942 -25 942 -25 815 -25 c 0,29,30
 577 -25 577 -25 377 131 c 0,31,32
 222 252 222 252 156 470 c 0,33,34
 122 584 122 584 121 734 c 256,35,36
 121 1008 121 1008 255 1196 c 0,37,38
 362 1347 362 1347 540 1427 c 0,39,40
 680 1490 680 1490 801 1490 c 0,41,42
 988 1490 988 1490 1174 1383 c 0,43,44
 1312 1304 1312 1304 1372 1174 c 0,45,46
 1404 1106 1404 1106 1404 1022 c 1,47,-1
 1266 1022 l 1,0,1
EndSplineSet
EndChar

StartChar: H
Encoding: 72 72 44
Width: 1479
GlyphClass: 2
Flags: W
LayerCount: 2
Fore
SplineSet
1145 704 m 1,0,-1
 333 704 l 1,1,-1
 333 0 l 1,2,-1
 195 0 l 1,3,-1
 195 1465 l 1,4,-1
 333 1465 l 1,5,-1
 333 842 l 1,6,-1
 1145 842 l 1,7,-1
 1145 1465 l 1,8,-1
 1283 1465 l 1,9,-1
 1283 0 l 1,10,-1
 1145 0 l 1,11,-1
 1145 704 l 1,0,-1
EndSplineSet
EndChar

StartChar: I
Encoding: 73 73 45
Width: 568
GlyphClass: 2
Flags: W
LayerCount: 2
Fore
SplineSet
352 1465 m 1,0,-1
 352 0 l 1,1,-1
 214 0 l 1,2,-1
 214 1465 l 1,3,-1
 352 1465 l 1,0,-1
EndSplineSet
EndChar

StartChar: J
Encoding: 74 74 46
Width: 1024
GlyphClass: 2
Flags: W
LayerCount: 2
Fore
SplineSet
217 414 m 1,0,1
 217 215 217 215 336 141 c 0,2,3
 381 113 381 113 450.5 113 c 128,-1,4
 520 113 520 113 568.5 141 c 0,5,6
 617 168 617 168 647 210 c 0,7,8
 704 289 704 289 704 391 c 2,9,-1
 704 1465 l 1,10,-1
 842 1465 l 1,11,-1
 842 391 l 2,12,13
 842 238 842 238 754 120 c 0,14,15
 646 -26 646 -26 450 -25 c 0,16,17
 192 -25 192 -25 110 212 c 0,18,19
 79 301 79 301 79 414 c 1,20,-1
 217 414 l 1,0,1
EndSplineSet
EndChar

StartChar: K
Encoding: 75 75 47
Width: 1365
GlyphClass: 2
Flags: W
LayerCount: 2
Fore
SplineSet
195 1458 m 1,0,-1
 333 1458 l 1,1,-1
 333 679 l 1,2,-1
 1120 1489 l 1,3,-1
 1218 1393 l 1,4,-1
 692 853 l 1,5,-1
 1278 58 l 1,6,-1
 1166 -24 l 1,7,-1
 594 752 l 1,8,-1
 333 483 l 1,9,-1
 333 0 l 1,10,-1
 195 0 l 1,11,-1
 195 1458 l 1,0,-1
EndSplineSet
EndChar

StartChar: L
Encoding: 76 76 48
Width: 1139
GlyphClass: 2
Flags: W
LayerCount: 2
Fore
SplineSet
190 1465 m 1,0,-1
 328 1465 l 1,1,-1
 328 138 l 1,2,-1
 1072 138 l 1,3,-1
 1072 0 l 1,4,-1
 190 0 l 1,5,-1
 190 1465 l 1,0,-1
EndSplineSet
EndChar

StartChar: M
Encoding: 77 77 49
Width: 1704
GlyphClass: 2
Flags: W
LayerCount: 2
Fore
SplineSet
855 210 m 1,0,-1
 1278 1466 l 1,1,-1
 1519 1466 l 1,2,-1
 1519 0 l 1,3,-1
 1381 0 l 1,4,-1
 1381 1344 l 1,5,-1
 930 -1 l 1,6,-1
 782 -1 l 1,7,-1
 319 1332 l 1,8,-1
 319 0 l 1,9,-1
 181 0 l 1,10,-1
 181 1465 l 1,11,-1
 419 1465 l 1,12,-1
 855 210 l 1,0,-1
EndSplineSet
EndChar

StartChar: N
Encoding: 78 78 50
Width: 1479
GlyphClass: 2
Flags: W
LayerCount: 2
Fore
SplineSet
1153 0 m 1,0,-1
 315 1236 l 1,1,-1
 315 0 l 1,2,-1
 177 0 l 1,3,-1
 177 1466 l 1,4,-1
 326 1466 l 1,5,-1
 1168 225 l 1,6,-1
 1168 1461 l 1,7,-1
 1306 1461 l 1,8,-1
 1306 0 l 1,9,-1
 1153 0 l 1,0,-1
EndSplineSet
EndChar

StartChar: O
Encoding: 79 79 51
Width: 1593
GlyphClass: 2
Flags: W
LayerCount: 2
Fore
SplineSet
784 1352 m 0,0,1
 674 1352 674 1352 573 1302 c 128,-1,2
 472 1252 472 1252 402 1168 c 0,3,4
 260 996 260 996 261 737 c 0,5,6
 261 494 261 494 401 311 c 0,7,8
 496 188 496 188 644 138 c 0,9,10
 718 113 718 113 821 113 c 128,-1,11
 924 113 924 113 1020.5 161.5 c 128,-1,12
 1117 210 1117 210 1187 294 c 0,13,14
 1334 470 1334 470 1334 737 c 0,15,16
 1334 992 1334 992 1201 1166 c 0,17,18
 1059 1352 1059 1352 784 1352 c 0,0,1
514.5 1429 m 128,-1,20
 642 1490 642 1490 779.5 1490 c 128,-1,21
 917 1490 917 1490 1009.5 1462 c 128,-1,22
 1102 1434 1102 1434 1175.5 1383 c 128,-1,23
 1249 1332 1249 1332 1304.5 1262 c 128,-1,24
 1360 1192 1360 1192 1398 1108 c 0,25,26
 1472 942 1472 942 1472 759 c 128,-1,27
 1472 576 1472 576 1423.5 437 c 128,-1,28
 1375 298 1375 298 1287 195.5 c 128,-1,29
 1199 93 1199 93 1076.5 34 c 128,-1,30
 954 -25 954 -25 825 -25 c 128,-1,31
 696 -25 696 -25 602 5.5 c 128,-1,32
 508 36 508 36 432 90 c 128,-1,33
 356 144 356 144 298.5 216.5 c 128,-1,34
 241 289 241 289 202 374 c 0,35,36
 123 546 123 546 123 717 c 128,-1,37
 123 888 123 888 168 1024.5 c 128,-1,38
 213 1161 213 1161 300 1264.5 c 128,-1,19
 387 1368 387 1368 514.5 1429 c 128,-1,20
EndSplineSet
EndChar

StartChar: P
Encoding: 80 80 52
Width: 1365
GlyphClass: 2
Flags: W
LayerCount: 2
Fore
SplineSet
180 1465 m 1,0,-1
 793 1465 l 2,1,2
 1006 1465 1006 1465 1134 1339 c 0,3,4
 1256 1219 1256 1219 1256 1028 c 256,5,6
 1256 836 1256 836 1136 718 c 0,7,8
 1009 592 1009 592 793 593 c 2,9,-1
 318 593 l 1,10,-1
 318 -5 l 1,11,-1
 180 -5 l 1,12,-1
 180 1465 l 1,0,-1
318 1327 m 1,13,-1
 318 731 l 1,14,-1
 793 731 l 2,15,16
 945 730 945 730 1034 816 c 0,17,18
 1118 897 1118 897 1118 1028 c 0,19,20
 1118 1156 1118 1156 1032 1240 c 0,21,22
 942 1328 942 1328 793 1327 c 2,23,-1
 318 1327 l 1,13,-1
EndSplineSet
EndChar

StartChar: Q
Encoding: 81 81 53
Width: 1593
GlyphClass: 2
Flags: W
LayerCount: 2
Fore
SplineSet
1177 94 m 1,0,1
 1014 -25 1014 -25 807 -25 c 0,2,3
 490 -26 490 -26 298 216 c 0,4,5
 122 437 122 437 123 737 c 0,6,7
 123 1054 123 1054 300 1264 c 0,8,9
 490 1490 490 1490 807 1490 c 0,10,11
 1124 1490 1124 1490 1304 1262 c 0,12,13
 1472 1051 1472 1051 1472 728.5 c 128,-1,14
 1472 406 1472 406 1280 187 c 1,15,-1
 1510 8 l 1,16,-1
 1426 -100 l 1,17,-1
 1177 94 l 1,0,1
1169 273 m 1,18,19
 1334 455 1334 455 1334 737 c 0,20,21
 1334 992 1334 992 1201 1166 c 0,22,23
 1059 1351 1059 1351 807 1352 c 0,24,25
 554 1352 554 1352 402 1168 c 0,26,27
 260 996 260 996 261 737 c 0,28,29
 261 494 261 494 401 311 c 0,30,31
 496 188 496 188 644 138 c 0,32,33
 718 113 718 113 798 113 c 0,34,35
 947 113 947 113 1061 184 c 1,36,-1
 887 320 l 1,37,-1
 971 428 l 1,38,-1
 1169 273 l 1,18,19
EndSplineSet
EndChar

StartChar: R
Encoding: 82 82 54
Width: 1479
GlyphClass: 2
Flags: W
LayerCount: 2
Fore
SplineSet
180 1465 m 1,0,-1
 793 1465 l 2,1,2
 1008 1465 1008 1465 1134 1349 c 0,3,4
 1256 1237 1256 1237 1256 1048 c 0,5,6
 1256 912 1256 912 1192 816.5 c 128,-1,7
 1128 721 1128 721 1005 676 c 1,8,9
 1150 571 1150 571 1228 375 c 0,10,11
 1250 318 1250 318 1271 260 c 0,12,13
 1326 107 1326 107 1361 41 c 1,14,-1
 1239 -25 l 1,15,16
 1195 56 1195 56 1157.5 166 c 128,-1,17
 1120 276 1120 276 1092.5 339 c 0,18,19
 1066 402 1066 402 1024 458 c 0,20,21
 933 581 933 581 776 643 c 1,22,-1
 318 643 l 1,23,-1
 318 -5 l 1,24,-1
 180 -5 l 1,25,-1
 180 1465 l 1,0,-1
318 1327 m 1,26,-1
 318 781 l 1,27,-1
 793 781 l 2,28,29
 951 781 951 781 1034.5 851 c 128,-1,30
 1118 921 1118 921 1118 1048 c 0,31,32
 1118 1174 1118 1174 1032 1250 c 0,33,34
 944 1328 944 1328 793 1327 c 2,35,-1
 318 1327 l 1,26,-1
EndSplineSet
EndChar

StartChar: S
Encoding: 83 83 55
Width: 1365
GlyphClass: 2
Flags: W
LayerCount: 2
Fore
SplineSet
1068 1046 m 1,0,1
 1068 1186 1068 1186 951 1272 c 0,2,3
 841 1352 841 1352 668 1352 c 0,4,5
 506 1352 506 1352 404 1274 c 0,6,7
 304 1199 304 1199 305 1091 c 0,8,9
 304 942 304 942 564 867 c 0,10,11
 636 846 636 846 706 829 c 128,-1,12
 776 812 776 812 840 795 c 128,-1,13
 904 778 904 778 963 755 c 128,-1,14
 1022 732 1022 732 1073 702 c 128,-1,15
 1124 672 1124 672 1162 630 c 0,16,17
 1242 541 1242 541 1242 409 c 0,18,19
 1242 262 1242 262 1149 154 c 0,20,21
 1032 21 1032 21 822 -15 c 0,22,23
 764 -25 764 -25 699.5 -25 c 128,-1,24
 635 -25 635 -25 560.5 -8 c 128,-1,25
 486 9 486 9 419.5 41 c 128,-1,26
 353 73 353 73 297.5 117.5 c 128,-1,27
 242 162 242 162 202 218 c 0,28,29
 117 336 117 336 117 473 c 1,30,-1
 255 473 l 1,31,32
 256 321 256 321 394 216 c 0,33,34
 530 113 530 113 714 113 c 0,35,36
 851 114 851 114 964 180 c 0,37,38
 1104 262 1104 262 1104 409 c 0,39,40
 1104 578 1104 578 835 654 c 0,41,42
 759 676 759 676 687 692.5 c 128,-1,43
 615 709 615 709 552 725.5 c 128,-1,44
 489 742 489 742 432 763 c 128,-1,45
 375 784 375 784 326.5 812 c 128,-1,46
 278 840 278 840 242 879 c 0,47,48
 166 962 166 962 167 1091 c 0,49,50
 167 1256 167 1256 305 1370 c 0,51,52
 450 1490 450 1490 668 1490 c 0,53,54
 898 1490 898 1490 1048 1373 c 0,55,56
 1206 1250 1206 1250 1206 1046 c 1,57,-1
 1068 1046 l 1,0,1
EndSplineSet
EndChar

StartChar: T
Encoding: 84 84 56
Width: 1251
GlyphClass: 2
Flags: W
LayerCount: 2
Fore
SplineSet
44 1465 m 1,0,-1
 1210 1465 l 1,1,-1
 1210 1327 l 1,2,-1
 694 1327 l 1,3,-1
 694 -1 l 1,4,-1
 556 -1 l 1,5,-1
 556 1327 l 1,6,-1
 44 1327 l 1,7,-1
 44 1465 l 1,0,-1
EndSplineSet
EndChar

StartChar: U
Encoding: 85 85 57
Width: 1479
GlyphClass: 2
Flags: W
LayerCount: 2
Fore
SplineSet
305 1465 m 1,0,-1
 305 509 l 2,1,2
 306 360 306 360 398 250 c 0,3,4
 513 113 513 113 746 113 c 0,5,6
 1042 113 1042 113 1137 334 c 0,7,8
 1172 415 1172 415 1172 509 c 2,9,-1
 1172 1465 l 1,10,-1
 1310 1465 l 1,11,-1
 1310 509 l 2,12,13
 1310 305 1310 305 1197 160 c 0,14,15
 1053 -25 1053 -25 746 -25 c 256,16,17
 538 -25 538 -25 396 65 c 0,18,19
 222 176 222 176 179 394 c 0,20,21
 167 454 167 454 167 509 c 2,22,-1
 167 1465 l 1,23,-1
 305 1465 l 1,0,-1
EndSplineSet
EndChar

StartChar: V
Encoding: 86 86 58
Width: 1365
GlyphClass: 2
Flags: W
LayerCount: 2
Fore
SplineSet
615 0 m 1,0,-1
 48 1440 l 1,1,-1
 176 1490 l 1,2,-1
 691 185 l 1,3,-1
 1189 1491 l 1,4,-1
 1317 1441 l 1,5,-1
 766 0 l 1,6,-1
 615 0 l 1,0,-1
EndSplineSet
EndChar

StartChar: W
Encoding: 87 87 59
Width: 1933
GlyphClass: 2
Flags: W
LayerCount: 2
Fore
SplineSet
1422 258 m 1,0,-1
 1750 1490 l 1,1,-1
 1884 1454 l 1,2,-1
 1496 0 l 1,3,-1
 1353 0 l 1,4,-1
 972 1319 l 1,5,6
 769 613 769 613 591 0 c 1,7,-1
 446 0 l 1,8,-1
 55 1454 l 1,9,-1
 189 1490 l 1,10,-1
 522 253 l 1,11,12
 527 271 527 271 871 1466 c 1,13,-1
 1073 1466 l 1,14,-1
 1422 258 l 1,0,-1
EndSplineSet
EndChar

StartChar: X
Encoding: 88 88 60
Width: 1365
GlyphClass: 2
Flags: W
LayerCount: 2
Fore
SplineSet
1224 1408 m 1,0,-1
 769 781 l 1,1,-1
 1295 57 l 1,2,-1
 1183 -25 l 1,3,-1
 683 663 l 1,4,-1
 183 -25 l 1,5,-1
 71 57 l 1,6,-1
 597 781 l 1,7,-1
 142 1408 l 1,8,-1
 254 1490 l 1,9,-1
 683 900 l 1,10,-1
 1112 1490 l 1,11,-1
 1224 1408 l 1,0,-1
EndSplineSet
EndChar

StartChar: Y
Encoding: 89 89 61
Width: 1365
GlyphClass: 2
Flags: W
LayerCount: 2
Fore
SplineSet
198 1491 m 1,0,-1
 682 756 l 1,1,-1
 1168 1490 l 1,2,-1
 1284 1414 l 1,3,-1
 751 608 l 1,4,-1
 751 0 l 1,5,-1
 613 0 l 1,6,-1
 613 609 l 1,7,-1
 82 1415 l 1,8,-1
 198 1491 l 1,0,-1
EndSplineSet
EndChar

StartChar: Z
Encoding: 90 90 62
Width: 1251
GlyphClass: 2
Flags: W
LayerCount: 2
Fore
SplineSet
1170 1284 m 1,0,-1
 186 138 l 1,1,-1
 1196 138 l 1,2,-1
 1196 0 l 1,3,-1
 36 0 l 1,4,-1
 36 174 l 1,5,-1
 1026 1327 l 1,6,-1
 121 1327 l 1,7,-1
 121 1465 l 1,8,-1
 1170 1465 l 1,9,-1
 1170 1284 l 1,0,-1
EndSplineSet
EndChar

StartChar: bracketleft
Encoding: 91 91 63
Width: 568
GlyphClass: 2
Flags: W
LayerCount: 2
Fore
SplineSet
536 1465 m 1,0,-1
 536 1327 l 1,1,-1
 278 1327 l 1,2,-1
 278 -270 l 1,3,-1
 536 -270 l 1,4,-1
 536 -408 l 1,5,-1
 140 -408 l 1,6,-1
 140 1465 l 1,7,-1
 536 1465 l 1,0,-1
EndSplineSet
EndChar

StartChar: backslash
Encoding: 92 92 64
Width: 568
GlyphClass: 2
Flags: W
LayerCount: 2
Fore
SplineSet
140 1484 m 1,0,-1
 564 19 l 1,1,-1
 432 -19 l 1,2,-1
 8 1446 l 1,3,-1
 140 1484 l 1,0,-1
EndSplineSet
EndChar

StartChar: bracketright
Encoding: 93 93 65
Width: 568
GlyphClass: 2
Flags: W
LayerCount: 2
Fore
SplineSet
430 1465 m 1,0,-1
 430 -408 l 1,1,-1
 34 -408 l 1,2,-1
 34 -270 l 1,3,-1
 292 -270 l 1,4,-1
 292 1327 l 1,5,-1
 34 1327 l 1,6,-1
 34 1465 l 1,7,-1
 430 1465 l 1,0,-1
EndSplineSet
EndChar

StartChar: asciicircum
Encoding: 94 94 66
Width: 962
GlyphClass: 2
Flags: W
LayerCount: 2
Fore
SplineSet
555 1466 m 1,0,-1
 859 881 l 1,1,-1
 737 817 l 1,2,-1
 479 1314 l 1,3,-1
 228 818 l 1,4,-1
 104 880 l 1,5,-1
 401 1466 l 1,6,-1
 555 1466 l 1,0,-1
EndSplineSet
EndChar

StartChar: underscore
Encoding: 95 95 67
Width: 1130
GlyphClass: 2
Flags: W
LayerCount: 2
Fore
SplineSet
-13 -204 m 5,0,-1
 1143 -204 l 5,1,-1
 1143 -342 l 5,2,-1
 -13 -342 l 5,3,-1
 -13 -204 l 5,0,-1
EndSplineSet
EndChar

StartChar: grave
Encoding: 96 96 68
Width: 682
GlyphClass: 2
Flags: W
LayerCount: 2
Fore
SplineSet
294 1209 m 1,0,-1
 104 1490 l 1,1,-1
 301 1490 l 1,2,-1
 460 1209 l 1,3,-1
 294 1209 l 1,0,-1
EndSplineSet
EndChar

StartChar: a
Encoding: 97 97 69
Width: 1139
GlyphClass: 2
Flags: W
LayerCount: 2
Fore
SplineSet
839 124 m 1,0,1
 656 -25 656 -25 485 -25 c 0,2,3
 258 -25 258 -25 171 76 c 0,4,5
 105 153 105 153 105 290 c 0,6,7
 104 442 104 442 214 534 c 0,8,9
 360 656 360 656 638 656 c 2,10,-1
 839 656 l 1,11,-1
 839 737 l 2,12,13
 838 824 838 824 768 881 c 0,14,15
 693 942 693 942 566 942 c 0,16,17
 436 942 436 942 351 886 c 0,18,19
 270 833 270 833 270 758 c 1,20,-1
 132 758 l 1,21,22
 132 890 132 890 251 982 c 0,23,24
 376 1080 376 1080 566 1080 c 128,-1,25
 756 1080 756 1080 870 978 c 0,26,27
 976 883 976 883 977 737 c 2,28,-1
 977 0 l 1,29,-1
 839 0 l 1,30,-1
 839 124 l 1,0,1
408 117 m 128,-1,32
 450 113 450 113 491.5 113 c 128,-1,33
 533 113 533 113 580 130 c 0,34,35
 627 146 627 146 672 174 c 0,36,37
 743 217 743 217 839 309 c 1,38,-1
 839 518 l 1,39,-1
 638 518 l 2,40,41
 350 518 350 518 266 380 c 0,42,43
 244 342 244 342 243.5 284.5 c 128,-1,44
 243 227 243 227 267.5 191.5 c 128,-1,45
 292 156 292 156 329 138.5 c 128,-1,31
 366 121 366 121 408 117 c 128,-1,32
EndSplineSet
EndChar

StartChar: b
Encoding: 98 98 70
Width: 1139
GlyphClass: 2
Flags: W
LayerCount: 2
Fore
SplineSet
606 -25 m 0,0,1
 445 -25 445 -25 301 93 c 1,2,-1
 301 0 l 1,3,-1
 163 0 l 1,4,-1
 163 1461 l 1,5,-1
 301 1461 l 1,6,-1
 301 915 l 1,7,8
 451 1080 451 1080 623 1080 c 0,9,10
 835 1080 835 1080 953 902 c 0,11,12
 1054 750 1054 750 1054 550 c 0,13,14
 1054 318 1054 318 938 153 c 0,15,16
 813 -25 813 -25 606 -25 c 0,0,1
716 925 m 0,17,18
 674 942 674 942 628.5 942 c 128,-1,19
 583 942 583 942 546.5 928.5 c 128,-1,20
 510 915 510 915 478 893 c 128,-1,21
 446 871 446 871 419 842.5 c 128,-1,22
 392 814 392 814 370 785 c 0,23,24
 328 731 328 731 301 680 c 1,25,-1
 301 291 l 1,26,27
 384 178 384 178 501 132 c 0,28,29
 549 113 549 113 615 113 c 128,-1,30
 681 113 681 113 739 150 c 128,-1,31
 797 187 797 187 836 248 c 0,32,33
 916 373 916 373 916 550 c 0,34,35
 916 697 916 697 848 811 c 0,36,37
 800 891 800 891 716 925 c 0,17,18
EndSplineSet
EndChar

StartChar: c
Encoding: 99 99 71
Width: 1024
GlyphClass: 2
Flags: W
LayerCount: 2
Fore
SplineSet
843 740 m 1,0,1
 844 836 844 836 758 892 c 0,2,3
 681 942 681 942 564 942 c 256,4,5
 442 942 442 942 341 839 c 0,6,7
 226 722 226 722 226 536 c 0,8,9
 226 324 226 324 320 214 c 0,10,11
 406 113 406 113 564 113 c 0,12,13
 706 112 706 112 782 184 c 0,14,15
 844 242 844 242 843 311 c 1,16,-1
 981 311 l 1,17,18
 980 197 980 197 888 97 c 0,19,20
 775 -25 775 -25 564 -25 c 0,21,22
 225 -25 225 -25 123 284 c 0,23,24
 88 390 88 390 88 530 c 128,-1,25
 88 670 88 670 134 771.5 c 128,-1,26
 180 873 180 873 250.5 941.5 c 128,-1,27
 321 1010 321 1010 404.5 1045 c 128,-1,28
 488 1080 488 1080 566 1080 c 128,-1,29
 644 1080 644 1080 719.5 1059 c 128,-1,30
 795 1038 795 1038 853 996 c 0,31,32
 981 903 981 903 981 740 c 1,33,-1
 843 740 l 1,0,1
EndSplineSet
EndChar

StartChar: d
Encoding: 100 100 72
Width: 1139
GlyphClass: 2
Flags: W
LayerCount: 2
Fore
SplineSet
973 0 m 1,0,-1
 835 0 l 1,1,-1
 835 123 l 1,2,3
 708 20 708 20 621 -10 c 0,4,5
 578 -24 578 -24 518 -24.5 c 128,-1,6
 458 -25 458 -25 397 -2.5 c 128,-1,7
 336 20 336 20 286 59.5 c 128,-1,8
 236 99 236 99 198 153 c 128,-1,9
 160 207 160 207 134 271 c 0,10,11
 82 399 82 399 82 550 c 0,12,13
 82 750 82 750 183 902 c 0,14,15
 301 1080 301 1080 513 1080 c 0,16,17
 740 1080 740 1080 835 975 c 1,18,-1
 835 1461 l 1,19,-1
 973 1461 l 1,20,-1
 973 0 l 1,0,-1
624 922 m 0,21,22
 572 942 572 942 516.5 942 c 128,-1,23
 461 942 461 942 419.5 925 c 128,-1,24
 378 908 378 908 345 879 c 128,-1,25
 312 850 312 850 288.5 811 c 128,-1,26
 265 772 265 772 250 728 c 0,27,28
 220 641 220 641 220 554 c 128,-1,29
 220 467 220 467 240.5 388 c 128,-1,30
 261 309 261 309 300 248 c 0,31,32
 386 113 386 113 530 113 c 0,33,34
 626 113 626 113 722 194 c 0,35,36
 773 237 773 237 835 321 c 1,37,-1
 835 740 l 1,38,39
 765 867 765 867 624 922 c 0,21,22
EndSplineSet
EndChar

StartChar: e
Encoding: 101 101 73
Width: 1139
GlyphClass: 2
Flags: W
LayerCount: 2
Fore
SplineSet
230 492 m 1,0,1
 245 328 245 328 335 224 c 0,2,3
 432 113 432 113 583 113 c 256,4,5
 722 114 722 114 814 194 c 0,6,7
 852 226 852 226 869.5 259.5 c 128,-1,8
 887 293 887 293 887 312 c 1,9,-1
 1025 312 l 1,10,11
 1026 225 1026 225 920 112 c 0,12,13
 844 31 844 31 722 -6 c 0,14,15
 660 -25 660 -25 562 -25 c 128,-1,16
 464 -25 464 -25 372.5 20.5 c 128,-1,17
 281 66 281 66 218 144 c 0,18,19
 90 303 90 303 90 548 c 0,20,21
 90 766 90 766 211 916 c 0,22,23
 343 1080 343 1080 574.5 1080 c 128,-1,24
 806 1080 806 1080 932 929.5 c 128,-1,25
 1058 779 1058 779 1058 492 c 1,26,-1
 230 492 l 1,0,1
916 630 m 1,27,28
 881 942 881 942 561 942 c 0,29,30
 427 942 427 942 338 849 c 0,31,32
 255 762 255 762 234 630 c 1,33,-1
 916 630 l 1,27,28
EndSplineSet
EndChar

StartChar: f
Encoding: 102 102 74
Width: 568
GlyphClass: 2
Flags: W
LayerCount: 2
Fore
SplineSet
16 1059 m 1,0,-1
 186 1059 l 1,1,-1
 186 1208 l 2,2,3
 186 1342 186 1342 276 1422 c 0,4,5
 351 1489 351 1489 440 1490 c 2,6,-1
 610 1490 l 1,7,-1
 610 1352 l 1,8,-1
 440 1352 l 2,9,10
 399 1352 399 1352 373 1326 c 0,11,12
 324 1276 324 1276 324 1208 c 2,13,-1
 324 1059 l 1,14,-1
 562 1059 l 1,15,-1
 562 921 l 1,16,-1
 324 921 l 1,17,-1
 324 0 l 1,18,-1
 186 0 l 1,19,-1
 186 921 l 1,20,-1
 16 921 l 1,21,-1
 16 1059 l 1,0,-1
EndSplineSet
EndChar

StartChar: g
Encoding: 103 103 75
Width: 1139
GlyphClass: 2
Flags: W
LayerCount: 2
Fore
SplineSet
527 1080 m 0,0,1
 690 1080 690 1080 843 972 c 1,2,-1
 843 1062 l 1,3,-1
 981 1062 l 1,4,-1
 981 -15 l 2,5,6
 982 -189 982 -189 854 -309 c 0,7,8
 725 -430 725 -430 540 -430 c 256,9,10
 357 -430 357 -430 235 -336 c 0,11,12
 117 -244 117 -244 117 -110 c 1,13,-1
 255 -110 l 1,14,15
 255 -185 255 -185 335 -238 c 0,16,17
 417 -292 417 -292 540 -292 c 256,18,19
 667 -292 667 -292 755 -211.5 c 128,-1,20
 843 -131 843 -131 843 -15 c 2,21,-1
 843 136 l 1,22,23
 682 -25 682 -25 501 -25 c 0,24,25
 418 -25 418 -25 341 18 c 0,26,27
 264 60 264 60 206 136 c 0,28,29
 78 302 78 302 77 536 c 0,30,31
 78 765 78 765 226 928 c 0,32,33
 292 1000 292 1000 371 1040 c 128,-1,34
 450 1080 450 1080 527 1080 c 0,0,1
501 113 m 0,35,36
 677 113 677 113 843 354 c 1,37,-1
 843 789 l 1,38,39
 750 893 750 893 622 929 c 0,40,41
 576 942 576 942 525 942 c 128,-1,42
 474 942 474 942 418.5 912 c 128,-1,43
 363 882 363 882 318 828 c 0,44,45
 215 704 215 704 215 536 c 0,46,47
 216 358 216 358 302 234 c 0,48,49
 386 112 386 112 501 113 c 0,35,36
EndSplineSet
EndChar

StartChar: h
Encoding: 104 104 76
Width: 1139
GlyphClass: 2
Flags: W
LayerCount: 2
Fore
SplineSet
295 1465 m 1,0,-1
 295 909 l 1,1,2
 381 1000 381 1000 461.5 1040 c 128,-1,3
 542 1080 542 1080 621.5 1080 c 128,-1,4
 701 1080 701 1080 765 1052 c 128,-1,5
 829 1024 829 1024 879 977 c 0,6,7
 989 874 989 874 989 741 c 2,8,-1
 989 0 l 1,9,-1
 851 0 l 1,10,-1
 851 741 l 2,11,12
 852 819 852 819 784 881 c 0,13,14
 718 942 718 942 634 942 c 0,15,16
 510 942 510 942 386 804 c 0,17,18
 344 756 344 756 295 691 c 1,19,-1
 295 -3 l 1,20,-1
 157 -3 l 1,21,-1
 157 1465 l 1,22,-1
 295 1465 l 1,0,-1
EndSplineSet
EndChar

StartChar: i
Encoding: 105 105 77
Width: 467
GlyphClass: 2
Flags: W
LayerCount: 2
Fore
SplineSet
305 1062 m 1,0,-1
 305 -1 l 1,1,-1
 167 -1 l 1,2,-1
 167 1062 l 1,3,-1
 305 1062 l 1,0,-1
167 1262 m 1,4,-1
 167 1465 l 1,5,-1
 305 1465 l 1,6,-1
 305 1262 l 1,7,-1
 167 1262 l 1,4,-1
EndSplineSet
EndChar

StartChar: j
Encoding: 106 106 78
Width: 467
GlyphClass: 2
Flags: W
LayerCount: 2
Fore
SplineSet
303 1062 m 1,0,-1
 303 -105 l 2,1,2
 303 -254 303 -254 257 -330 c 0,3,4
 198 -427 198 -427 49 -428 c 2,5,-1
 -74 -428 l 1,6,-1
 -74 -290 l 1,7,-1
 49 -290 l 2,8,9
 152 -290 152 -290 163 -138 c 0,10,11
 166 -96 166 -96 166 -55 c 2,12,-1
 166 1062 l 1,13,-1
 303 1062 l 1,0,-1
166 1262 m 1,14,-1
 166 1465 l 1,15,-1
 303 1465 l 1,16,-1
 303 1262 l 1,17,-1
 166 1262 l 1,14,-1
EndSplineSet
EndChar

StartChar: k
Encoding: 107 107 79
Width: 1024
GlyphClass: 2
Flags: W
LayerCount: 2
Fore
SplineSet
867 984 m 1,0,-1
 555 664 l 1,1,-1
 965 50 l 1,2,-1
 851 -26 l 1,3,-1
 457 564 l 1,4,-1
 301 404 l 1,5,-1
 301 0 l 1,6,-1
 163 0 l 1,7,-1
 163 1465 l 1,8,-1
 301 1465 l 1,9,-1
 301 601 l 1,10,-1
 769 1080 l 1,11,-1
 867 984 l 1,0,-1
EndSplineSet
EndChar

StartChar: l
Encoding: 108 108 80
Width: 467
GlyphClass: 2
Flags: W
LayerCount: 2
Fore
SplineSet
305 1465 m 1,0,-1
 305 0 l 1,1,-1
 167 0 l 1,2,-1
 167 1465 l 1,3,-1
 305 1465 l 1,0,-1
EndSplineSet
EndChar

StartChar: m
Encoding: 109 109 81
Width: 1704
GlyphClass: 2
Flags: W
LayerCount: 2
Fore
SplineSet
910 872 m 1,0,1
 1077 1080 1077 1080 1250 1080 c 0,2,3
 1404 1080 1404 1080 1493 987 c 0,4,5
 1578 898 1578 898 1578 748 c 2,6,-1
 1578 0 l 1,7,-1
 1440 0 l 1,8,-1
 1440 748 l 2,9,10
 1440 884 1440 884 1332 928 c 0,11,12
 1296 942 1296 942 1251 942 c 128,-1,13
 1206 942 1206 942 1164 919.5 c 128,-1,14
 1122 897 1122 897 1082 859 c 0,15,16
 1012 791 1012 791 929 661 c 1,17,-1
 929 0 l 1,18,-1
 791 0 l 1,19,-1
 791 748 l 2,20,21
 790 884 790 884 682 928 c 0,22,23
 646 942 646 942 602 942 c 128,-1,24
 558 942 558 942 517.5 920.5 c 0,25,26
 477 898 477 898 438 862 c 0,27,28
 374 802 374 802 287 671 c 1,29,-1
 287 0 l 1,30,-1
 149 0 l 1,31,-1
 149 1062 l 1,32,-1
 287 1062 l 1,33,-1
 287 902 l 1,34,35
 438 1080 438 1080 601 1080 c 0,36,37
 723 1080 723 1080 801.5 1023.5 c 128,-1,38
 880 967 880 967 910 872 c 1,0,1
EndSplineSet
EndChar

StartChar: n
Encoding: 110 110 82
Width: 1139
GlyphClass: 2
Flags: W
LayerCount: 2
Fore
SplineSet
297 891 m 1,0,1
 472 1080 472 1080 642 1080 c 0,2,3
 801 1080 801 1080 900 987 c 0,4,5
 1000 893 1000 893 1000 748 c 2,6,-1
 1000 0 l 1,7,-1
 862 0 l 1,8,-1
 862 748 l 2,9,10
 862 833 862 833 798 887.5 c 128,-1,11
 734 942 734 942 642 942 c 0,12,13
 486 942 486 942 297 668 c 1,14,-1
 297 0 l 1,15,-1
 159 0 l 1,16,-1
 159 1062 l 1,17,-1
 297 1062 l 1,18,-1
 297 891 l 1,0,1
EndSplineSet
EndChar

StartChar: o
Encoding: 111 111 83
Width: 1139
GlyphClass: 2
Flags: W
LayerCount: 2
Fore
SplineSet
702 920 m 0,0,1
 645 942 645 942 553 942 c 128,-1,2
 461 942 461 942 391.5 902 c 128,-1,3
 322 862 322 862 282 800 c 0,4,5
 208 688 208 688 208 529 c 0,6,7
 208 374 208 374 283 257 c 0,8,9
 376 113 376 113 567 113 c 0,10,11
 754 112 754 112 848 270 c 0,12,13
 920 390 920 390 919 529 c 0,14,15
 919 836 919 836 702 920 c 0,0,1
394.5 1055 m 128,-1,17
 469 1080 469 1080 572.5 1080 c 128,-1,18
 676 1080 676 1080 755 1051 c 128,-1,19
 834 1022 834 1022 888.5 974.5 c 128,-1,20
 943 927 943 927 976 867 c 128,-1,21
 1009 807 1009 807 1027 746 c 0,22,23
 1057 644 1057 644 1057 564 c 128,-1,24
 1057 484 1057 484 1047.5 425.5 c 128,-1,25
 1038 367 1038 367 1015.5 305.5 c 128,-1,26
 993 244 993 244 956.5 184.5 c 0,27,28
 920 124 920 124 866 78 c 0,29,30
 745 -26 745 -26 567 -25 c 0,31,32
 388 -26 388 -26 266 68 c 0,33,34
 115 183 115 183 80 409 c 0,35,36
 70 472 70 472 70 529.5 c 128,-1,37
 70 587 70 587 79.5 650 c 128,-1,38
 89 713 89 713 112 774.5 c 128,-1,39
 135 836 135 836 172 891.5 c 128,-1,40
 209 947 209 947 264.5 988.5 c 128,-1,16
 320 1030 320 1030 394.5 1055 c 128,-1,17
EndSplineSet
EndChar

StartChar: p
Encoding: 112 112 84
Width: 1139
GlyphClass: 2
Flags: W
LayerCount: 2
Fore
SplineSet
161 1061 m 1,0,-1
 299 1061 l 1,1,-1
 299 933 l 1,2,3
 426 1036 426 1036 513 1066 c 0,4,5
 556 1080 556 1080 604 1081 c 0,6,7
 809 1081 809 1081 936 903 c 0,8,9
 1052 740 1052 740 1052 506 c 0,10,11
 1052 306 1052 306 951 154 c 0,12,13
 833 -24 833 -24 621 -24 c 0,14,15
 394 -24 394 -24 299 81 c 1,16,-1
 299 -408 l 1,17,-1
 161 -408 l 1,18,-1
 161 1061 l 1,0,-1
510 134 m 0,19,20
 562 114 562 114 617.5 114 c 128,-1,21
 673 114 673 114 714.5 131 c 128,-1,22
 756 148 756 148 789 177 c 128,-1,23
 822 206 822 206 845.5 245 c 128,-1,24
 869 284 869 284 884 328 c 0,25,26
 914 415 914 415 914 502 c 128,-1,27
 914 589 914 589 893.5 668 c 128,-1,28
 873 747 873 747 834 808 c 0,29,30
 748 943 748 943 604 943 c 0,31,32
 508 943 508 943 412 862 c 0,33,34
 361 819 361 819 299 735 c 1,35,-1
 299 316 l 1,36,37
 368 188 368 188 510 134 c 0,19,20
EndSplineSet
EndChar

StartChar: q
Encoding: 113 113 85
Width: 1139
GlyphClass: 2
Flags: W
LayerCount: 2
Fore
SplineSet
971 -408 m 1,0,-1
 833 -408 l 1,1,-1
 833 81 l 1,2,3
 738 -24 738 -24 511 -24 c 0,4,5
 299 -24 299 -24 181 154 c 0,6,7
 80 306 80 306 80 506 c 0,8,9
 80 740 80 740 196 903 c 0,10,11
 323 1081 323 1081 528 1081 c 0,12,13
 644 1081 644 1081 772 982 c 0,14,15
 806 956 806 956 833 933 c 1,16,-1
 833 1061 l 1,17,-1
 971 1061 l 1,18,-1
 971 -408 l 1,0,-1
515 114 m 0,19,20
 571 114 571 114 622.5 133.5 c 128,-1,21
 674 153 674 153 715 183 c 0,22,23
 792 240 792 240 833 316 c 1,24,-1
 833 735 l 1,25,26
 771 819 771 819 726 857 c 0,27,28
 624 943 624 943 538.5 943 c 128,-1,29
 453 943 453 943 395 906 c 128,-1,30
 337 869 337 869 298 808 c 0,31,32
 218 683 218 683 218 506 c 0,33,34
 218 359 218 359 286 245 c 0,35,36
 364 114 364 114 515 114 c 0,19,20
EndSplineSet
EndChar

StartChar: r
Encoding: 114 114 86
Width: 682
GlyphClass: 2
Flags: W
LayerCount: 2
Fore
SplineSet
283 894 m 1,0,1
 415 1080 415 1080 596 1080 c 2,2,-1
 689 1080 l 1,3,-1
 689 942 l 1,4,-1
 596 942 l 2,5,6
 477 942 477 942 384 818 c 0,7,8
 315 727 315 727 283 605 c 1,9,-1
 283 0 l 1,10,-1
 145 0 l 1,11,-1
 145 1062 l 1,12,-1
 283 1062 l 1,13,-1
 283 894 l 1,0,1
EndSplineSet
EndChar

StartChar: s
Encoding: 115 115 87
Width: 1024
GlyphClass: 2
Flags: W
LayerCount: 2
Fore
SplineSet
771 787 m 1,0,1
 771 856 771 856 693 900 c 0,2,3
 618 942 618 942 501 942 c 0,4,5
 395 942 395 942 335 912 c 128,-1,6
 275 882 275 882 250 853 c 128,-1,7
 225 824 225 824 225 786.5 c 128,-1,8
 225 749 225 749 251.5 723 c 0,9,10
 278 698 278 698 322 678 c 0,11,12
 379 652 379 652 492 626 c 0,13,14
 830 548 830 548 898 438 c 0,15,16
 933 382 933 382 925 310 c 1,17,18
 945 167 945 167 772 57 c 0,19,20
 641 -25 641 -25 534 -25 c 128,-1,21
 427 -25 427 -25 345.5 3.5 c 128,-1,22
 264 32 264 32 201 79 c 0,23,24
 63 182 63 182 63 317 c 1,25,-1
 201 317 l 1,26,27
 201 237 201 237 297.5 175 c 128,-1,28
 394 113 394 113 515 113 c 0,29,30
 604 113 604 113 696 161 c 0,31,32
 726 178 726 178 761 219.5 c 128,-1,33
 796 261 796 261 787 310 c 1,34,35
 804 380 804 380 710 421 c 0,36,37
 651 448 651 448 536.5 474.5 c 128,-1,38
 422 501 422 501 348 521 c 0,39,40
 274 542 274 542 216 574 c 0,41,42
 87 646 87 646 87 786 c 0,43,44
 87 920 87 920 222 1004 c 0,45,46
 343 1080 343 1080 501 1080 c 0,47,48
 675 1080 675 1080 791 1000 c 0,49,50
 909 918 909 918 909 787 c 1,51,-1
 771 787 l 1,0,1
EndSplineSet
EndChar

StartChar: t
Encoding: 116 116 88
Width: 568
GlyphClass: 2
Flags: W
LayerCount: 2
Fore
SplineSet
324 252 m 2,0,1
 324 138 324 138 440 138 c 2,2,-1
 550 138 l 1,3,-1
 550 0 l 1,4,-1
 440 0 l 2,5,6
 346 0 346 0 276 53 c 0,7,8
 186 120 186 120 186 252 c 2,9,-1
 186 913 l 1,10,-1
 34 913 l 1,11,-1
 34 1051 l 1,12,-1
 186 1051 l 1,13,-1
 186 1324 l 1,14,-1
 324 1324 l 1,15,-1
 324 1051 l 1,16,-1
 525 1051 l 1,17,-1
 525 913 l 1,18,-1
 324 913 l 1,19,-1
 324 252 l 2,0,1
EndSplineSet
EndChar

StartChar: u
Encoding: 117 117 89
Width: 1139
GlyphClass: 2
Flags: W
LayerCount: 2
Fore
SplineSet
851 164 m 1,0,1
 676 -25 676 -25 506 -25 c 0,2,3
 347 -25 347 -25 248 68 c 0,4,5
 148 162 148 162 148 307 c 2,6,-1
 148 1062 l 1,7,-1
 286 1062 l 1,8,-1
 286 307 l 2,9,10
 286 222 286 222 350 167.5 c 128,-1,11
 414 113 414 113 506 113 c 0,12,13
 624 114 624 114 770 282 c 0,14,15
 813 332 813 332 851 387 c 1,16,-1
 851 1062 l 1,17,-1
 989 1062 l 1,18,-1
 989 0 l 1,19,-1
 851 0 l 1,20,-1
 851 164 l 1,0,1
EndSplineSet
EndChar

StartChar: v
Encoding: 118 118 90
Width: 1024
GlyphClass: 2
Flags: W
LayerCount: 2
Fore
SplineSet
513 205 m 1,0,-1
 825 1081 l 1,1,-1
 955 1035 l 1,2,-1
 587 0 l 1,3,-1
 440 0 l 1,4,-1
 62 1032 l 1,5,-1
 192 1080 l 1,6,-1
 513 205 l 1,0,-1
EndSplineSet
EndChar

StartChar: w
Encoding: 119 119 91
Width: 1479
GlyphClass: 2
Flags: W
LayerCount: 2
Fore
SplineSet
418 234 m 1,0,-1
 670 1062 l 1,1,-1
 812 1062 l 1,2,-1
 1070 237 l 1,3,-1
 1319 1081 l 1,4,-1
 1451 1043 l 1,5,-1
 1145 0 l 1,6,-1
 999 0 l 1,7,-1
 742 822 l 1,8,9
 607 374 607 374 491 0 c 1,10,-1
 345 0 l 1,11,-1
 28 1042 l 1,12,-1
 160 1082 l 1,13,-1
 418 234 l 1,0,-1
EndSplineSet
EndChar

StartChar: x
Encoding: 120 120 92
Width: 1024
GlyphClass: 2
Flags: W
LayerCount: 2
Fore
SplineSet
908 1002 m 1,0,-1
 596 554 l 1,1,-1
 948 53 l 1,2,-1
 834 -25 l 1,3,-1
 512 433 l 1,4,-1
 193 -26 l 1,5,-1
 79 52 l 1,6,-1
 428 554 l 1,7,-1
 113 1003 l 1,8,-1
 227 1081 l 1,9,-1
 512 674 l 1,10,-1
 794 1080 l 1,11,-1
 908 1002 l 1,0,-1
EndSplineSet
EndChar

StartChar: y
Encoding: 121 121 93
Width: 1024
GlyphClass: 2
Flags: W
LayerCount: 2
Fore
SplineSet
519 192 m 1,0,-1
 835 1080 l 1,1,-1
 965 1034 l 1,2,3
 879 790 879 790 825 637.5 c 128,-1,4
 771 485 771 485 738 391.5 c 128,-1,5
 705 298 705 298 675 214 c 128,-1,6
 645 130 645 130 620 61.5 c 128,-1,7
 595 -7 595 -7 575 -61.5 c 128,-1,8
 555 -116 555 -116 533.5 -170.5 c 128,-1,9
 512 -225 512 -225 487 -267.5 c 128,-1,10
 462 -310 462 -310 430.5 -341 c 128,-1,11
 399 -372 399 -372 355 -392 c 0,12,13
 269 -431 269 -431 110 -431 c 1,14,-1
 110 -293 l 1,15,16
 270 -293 270 -293 336 -228 c 0,17,18
 370 -194 370 -194 394.5 -140 c 128,-1,19
 419 -86 419 -86 447 -9 c 1,20,-1
 58 1032 l 1,21,-1
 188 1080 l 1,22,-1
 519 192 l 1,0,-1
EndSplineSet
EndChar

StartChar: z
Encoding: 122 122 94
Width: 1024
GlyphClass: 2
Flags: W
LayerCount: 2
Fore
SplineSet
79 1062 m 1,0,-1
 947 1062 l 1,1,-1
 947 924 l 1,2,-1
 227 138 l 1,3,-1
 981 138 l 1,4,-1
 981 0 l 1,5,-1
 41 0 l 1,6,-1
 41 138 l 1,7,-1
 761 924 l 1,8,-1
 79 924 l 1,9,-1
 79 1062 l 1,0,-1
EndSplineSet
EndChar

StartChar: braceleft
Encoding: 123 123 95
Width: 684
GlyphClass: 2
Flags: W
LayerCount: 2
Fore
SplineSet
634 1353 m 1,0,-1
 541 1353 l 2,1,2
 394 1353 394 1353 382 1122 c 0,3,4
 378 1056 378 1056 377.5 988.5 c 128,-1,5
 377 921 377 921 374.5 854.5 c 128,-1,6
 372 788 372 788 362 728 c 0,7,8
 340 596 340 596 271 531 c 1,9,10
 377 438 377 438 391 204 c 0,11,12
 395 137 395 137 398 70 c 128,-1,13
 401 3 401 3 405 -62 c 128,-1,14
 409 -127 409 -127 423 -178 c 0,15,16
 454 -292 454 -292 541 -292 c 2,17,-1
 631 -292 l 1,18,-1
 631 -430 l 1,19,-1
 541 -430 l 2,20,21
 368 -430 368 -430 308 -272 c 0,22,23
 275 -184 275 -184 268.5 -90.5 c 128,-1,24
 262 3 262 3 259.5 69 c 128,-1,25
 257 135 257 135 250.5 206.5 c 128,-1,26
 244 278 244 278 224 334 c 0,27,28
 178 460 178 460 56 461 c 1,29,-1
 56 599 l 1,30,31
 222 600 222 600 236 848 c 0,32,33
 240 918 240 918 241 985 c 128,-1,34
 242 1052 242 1052 244 1113.5 c 128,-1,35
 246 1175 246 1175 254.5 1231 c 128,-1,36
 263 1287 263 1287 281.5 1334.5 c 128,-1,37
 300 1382 300 1382 333 1417 c 0,38,39
 403 1491 403 1491 541 1491 c 2,40,-1
 634 1491 l 1,41,-1
 634 1353 l 1,0,-1
EndSplineSet
EndChar

StartChar: bar
Encoding: 124 124 96
Width: 532
GlyphClass: 2
Flags: W
LayerCount: 2
Fore
SplineSet
336 1465 m 1,0,-1
 336 -430 l 1,1,-1
 198 -430 l 1,2,-1
 198 1465 l 1,3,-1
 336 1465 l 1,0,-1
EndSplineSet
EndChar

StartChar: braceright
Encoding: 125 125 97
Width: 684
GlyphClass: 2
Flags: W
LayerCount: 2
Fore
SplineSet
49 1491 m 1,0,-1
 142 1491 l 2,1,2
 342 1490 342 1490 402 1334 c 0,3,4
 435 1249 435 1249 438 1150.5 c 128,-1,5
 441 1052 441 1052 442 984.5 c 128,-1,6
 443 917 443 917 447 847.5 c 0,7,8
 450 778 450 778 468 722 c 0,9,10
 507 598 507 598 627 599 c 1,11,-1
 627 461 l 1,12,13
 456 460 456 460 432 206 c 0,14,15
 426 134 426 134 423.5 68.5 c 128,-1,16
 421 3 421 3 417 -56.5 c 128,-1,17
 413 -116 413 -116 403 -170.5 c 128,-1,18
 393 -225 393 -225 375 -272.5 c 0,19,20
 356 -320 356 -320 326 -355 c 0,21,22
 261 -430 261 -430 142 -430 c 2,23,-1
 52 -430 l 1,24,-1
 52 -292 l 1,25,-1
 142 -292 l 2,26,27
 264 -292 264 -292 278 -62 c 0,28,29
 282 3 282 3 285 70 c 128,-1,30
 288 137 288 137 292 204 c 0,31,32
 296 272 296 272 309 332 c 0,33,34
 338 466 338 466 412 531 c 1,35,36
 316 620 316 620 308 854 c 0,37,38
 306 920 306 920 305 988 c 128,-1,39
 304 1056 304 1056 300.5 1122 c 128,-1,40
 297 1188 297 1188 282 1239 c 0,41,42
 248 1353 248 1353 142 1353 c 2,43,-1
 49 1353 l 1,44,-1
 49 1491 l 1,0,-1
EndSplineSet
EndChar

StartChar: asciitilde
Encoding: 126 126 98
Width: 1195
GlyphClass: 2
Flags: W
LayerCount: 2
Fore
SplineSet
852 521 m 4,0,1
 985 521 985 521 1048 622 c 5,2,-1
 1170 556 l 5,3,4
 1089 424 1089 424 930 390 c 4,5,6
 894 382 894 382 834 383 c 4,7,8
 744 383 744 383 565 460 c 4,9,10
 428 517 428 517 374 517 c 4,11,12
 247 517 247 517 135 416 c 5,13,-1
 39 514 l 5,14,15
 120 588 120 588 209 621.5 c 132,-1,16
 298 655 298 655 366.5 655 c 132,-1,17
 435 655 435 655 496 633.5 c 132,-1,18
 557 612 557 612 616 587 c 132,-1,19
 675 562 675 562 732.5 541.5 c 132,-1,20
 790 521 790 521 852 521 c 4,0,1
EndSplineSet
EndChar

StartChar: anusvara
Encoding: 258 3330 99
Width: 909
GlyphClass: 2
Flags: W
LayerCount: 2
Fore
SplineSet
100 337 m 260,0,1
 100 484 100 484 204 588 c 132,-1,2
 308 692 308 692 455 692 c 4,3,4
 601 692 601 692 705 588 c 132,-1,5
 809 484 809 484 809 337 c 260,6,7
 809 191 809 191 705 87 c 4,8,9
 602 -16 602 -16 455 -16 c 4,10,11
 307 -16 307 -16 204 87 c 4,12,13
 100 191 100 191 100 337 c 260,0,1
238 337 m 260,14,15
 238 247 238 247 302 185 c 4,16,17
 366 122 366 122 455 122 c 260,18,19
 544 122 544 122 608 185 c 4,20,21
 672 247 672 247 671 337 c 260,22,23
 671 427 671 427 607.5 490.5 c 132,-1,24
 544 554 544 554 455 554 c 260,25,26
 365 554 365 554 301.5 490.5 c 132,-1,27
 238 427 238 427 238 337 c 260,14,15
EndSplineSet
EndChar

StartChar: visarga
Encoding: 259 3331 100
Width: 629
GlyphClass: 2
Flags: W
LayerCount: 2
Fore
SplineSet
100 780 m 4,0,1
 100 824 100 824 117 863 c 132,-1,2
 134 902 134 902 163 931 c 4,3,4
 226 994 226 994 314 994 c 4,5,6
 403 994 403 994 466 931 c 132,-1,7
 529 868 529 868 529 779 c 4,8,9
 529 691 529 691 466 628 c 132,-1,10
 403 565 403 565 314 565 c 4,11,12
 226 565 226 565 163 628.5 c 132,-1,13
 100 692 100 692 100 780 c 4,0,1
260.5 833.5 m 132,-1,15
 238 811 238 811 238 779.5 c 132,-1,16
 238 748 238 748 260.5 725.5 c 132,-1,17
 283 703 283 703 314.5 703 c 132,-1,18
 346 703 346 703 368.5 725.5 c 132,-1,19
 391 748 391 748 391 779.5 c 132,-1,20
 391 811 391 811 368.5 833.5 c 132,-1,21
 346 856 346 856 314.5 856 c 132,-1,14
 283 856 283 856 260.5 833.5 c 132,-1,15
100 198 m 0,22,23
 100 242 100 242 117 281.5 c 128,-1,24
 134 321 134 321 163 350 c 0,25,26
 226 413 226 413 314 413 c 0,27,28
 403 413 403 413 466 350 c 128,-1,29
 529 287 529 287 529 198 c 0,30,31
 529 110 529 110 466 47 c 128,-1,32
 403 -16 403 -16 314 -16 c 0,33,34
 226 -16 226 -16 163 47 c 128,-1,35
 100 110 100 110 100 198 c 0,22,23
260.5 252.5 m 128,-1,37
 238 230 238 230 238 198.5 c 128,-1,38
 238 167 238 167 260.5 144.5 c 128,-1,39
 283 122 283 122 314.5 122 c 128,-1,40
 346 122 346 122 368.5 144.5 c 128,-1,41
 391 167 391 167 391 198.5 c 128,-1,42
 391 230 391 230 368.5 252.5 c 128,-1,43
 346 275 346 275 314.5 275 c 128,-1,36
 283 275 283 275 260.5 252.5 c 128,-1,37
EndSplineSet
EndChar

StartChar: ml_a
Encoding: 260 3333 101
Width: 2548
GlyphClass: 2
Flags: W
LayerCount: 2
Fore
SplineSet
2170 830 m 1,0,1
 2067 942 2067 942 1928 942 c 0,2,3
 1805 942 1805 942 1713 872 c 0,4,5
 1652 825 1652 825 1615 761 c 1,6,-1
 1615 0 l 1,7,-1
 1477 0 l 1,8,-1
 1477 688 l 2,9,10
 1477 800 1477 800 1400 870 c 0,11,12
 1321 942 1321 942 1188 942 c 0,13,14
 1140 942 1140 942 1088 930 c 1,15,16
 1212 823 1212 823 1212 716 c 0,17,18
 1212 607 1212 607 1077 479 c 1,19,20
 1212 411 1212 411 1212 282 c 0,21,22
 1212 154 1212 154 1121 68 c 0,23,24
 1031 -17 1031 -17 902 -17 c 0,25,26
 758 -17 758 -17 667 74 c 0,27,28
 534 207 534 207 534 481 c 128,-1,29
 534 755 534 755 768 933 c 1,30,31
 712 942 712 942 669 942 c 128,-1,32
 626 942 626 942 579.5 934.5 c 128,-1,33
 533 927 533 927 486 908 c 128,-1,34
 439 889 439 889 394 857.5 c 0,35,36
 348 826 348 826 314 779 c 0,37,38
 238 675 238 675 238 517 c 0,39,40
 238 280 238 280 390 111 c 0,41,42
 414 85 414 85 430.5 71.5 c 128,-1,43
 447 58 447 58 449 56 c 1,44,-1
 325 -18 l 1,45,46
 182 116 182 116 124 324 c 0,47,48
 100 410 100 410 100 519 c 128,-1,49
 100 628 100 628 128 712.5 c 128,-1,50
 156 797 156 797 202 859.5 c 128,-1,51
 248 922 248 922 307 964.5 c 0,52,53
 366 1006 366 1006 429 1032 c 0,54,55
 546 1080 546 1080 676.5 1080 c 128,-1,56
 807 1080 807 1080 932 1026 c 1,57,58
 1066 1080 1066 1080 1190 1080 c 128,-1,59
 1314 1080 1314 1080 1405.5 1034 c 128,-1,60
 1497 988 1497 988 1550 910 c 1,61,62
 1703 1080 1703 1080 1928 1080 c 0,63,64
 2094 1080 2094 1080 2222 968 c 0,65,66
 2330 874 2330 874 2393 721 c 0,67,68
 2448 587 2448 587 2448 472.5 c 128,-1,69
 2448 358 2448 358 2424 269 c 128,-1,70
 2400 180 2400 180 2357 116 c 0,71,72
 2268 -17 2268 -17 2125 -17 c 0,73,74
 1986 -18 1986 -18 1887 96 c 0,75,76
 1791 206 1791 206 1791 337.5 c 128,-1,77
 1791 469 1791 469 1826 553.5 c 128,-1,78
 1861 638 1861 638 1916 694 c 0,79,80
 2016 796 2016 796 2170 830 c 1,0,1
1053 643 m 0,81,82
 1074 673 1074 673 1074 715 c 128,-1,83
 1074 757 1074 757 1037.5 800 c 128,-1,84
 1001 843 1001 843 937 878 c 1,85,86
 754 784 754 784 694 612 c 0,87,88
 672 550 672 550 672 498 c 128,-1,89
 672 446 672 446 675.5 408.5 c 128,-1,90
 679 371 679 371 688 331.5 c 128,-1,91
 697 292 697 292 713.5 254 c 128,-1,92
 730 216 730 216 756 186 c 0,93,94
 813 121 813 121 902 121 c 0,95,96
 974 120 974 120 1024 166 c 128,-1,97
 1074 212 1074 212 1074 282 c 0,98,99
 1074 356 1074 356 934 388 c 0,100,101
 872 401 872 401 794 403 c 1,102,-1
 794 541 l 1,103,104
 988 551 988 551 1053 643 c 0,81,82
1947 455 m 0,105,106
 1929 409 1929 409 1929 358 c 128,-1,107
 1929 307 1929 307 1944 265.5 c 0,108,109
 1960 224 1960 224 1986 192 c 0,110,111
 2045 121 2045 121 2125 121 c 0,112,113
 2206 121 2206 121 2258 215.5 c 128,-1,114
 2310 310 2310 310 2310 468 c 0,115,116
 2310 576 2310 576 2256 698 c 1,117,118
 2013 624 2013 624 1947 455 c 0,105,106
EndSplineSet
EndChar

StartChar: ml_aa
Encoding: 261 3334 102
Width: 2863
GlyphClass: 2
Flags: W
LayerCount: 2
Fore
SplineSet
1550 910 m 1,0,1
 1703 1080 1703 1080 1928 1080 c 256,2,3
 2178 1080 2178 1080 2331 841 c 1,4,5
 2660 808 2660 808 2764 508 c 0,6,7
 2800 404 2800 404 2800.5 283 c 128,-1,8
 2801 162 2801 162 2771.5 77 c 128,-1,9
 2742 -8 2742 -8 2692.5 -77.5 c 128,-1,10
 2643 -147 2643 -147 2577.5 -200.5 c 128,-1,11
 2512 -254 2512 -254 2440 -290 c 0,12,13
 2296 -364 2296 -364 2157 -364 c 0,14,15
 2004 -364 2004 -364 1908 -311 c 1,16,-1
 1975 -189 l 1,17,18
 2046 -226 2046 -226 2127.5 -226 c 128,-1,19
 2209 -226 2209 -226 2266.5 -211.5 c 128,-1,20
 2324 -197 2324 -197 2380 -168.5 c 128,-1,21
 2436 -140 2436 -140 2487.5 -98.5 c 0,22,23
 2539 -56 2539 -56 2578 -2 c 0,24,25
 2663 117 2663 117 2663 261 c 0,26,27
 2663 596 2663 596 2408 684 c 1,28,29
 2448 564 2448 564 2448 461 c 128,-1,30
 2448 358 2448 358 2424 269 c 128,-1,31
 2400 180 2400 180 2357 116 c 0,32,33
 2268 -17 2268 -17 2125 -17 c 0,34,35
 1986 -18 1986 -18 1887 96 c 0,36,37
 1791 206 1791 206 1791 337.5 c 128,-1,38
 1791 469 1791 469 1826 553.5 c 128,-1,39
 1861 638 1861 638 1916 694 c 0,40,41
 2016 796 2016 796 2170 830 c 1,42,43
 2067 942 2067 942 1928 942 c 0,44,45
 1805 942 1805 942 1713 872 c 0,46,47
 1652 825 1652 825 1615 761 c 1,48,-1
 1615 0 l 1,49,-1
 1477 0 l 1,50,-1
 1477 688 l 2,51,52
 1477 800 1477 800 1400 870 c 0,53,54
 1321 942 1321 942 1188 942 c 0,55,56
 1140 942 1140 942 1088 930 c 1,57,58
 1212 823 1212 823 1212 716 c 0,59,60
 1212 607 1212 607 1077 479 c 1,61,62
 1212 411 1212 411 1212 282 c 0,63,64
 1212 154 1212 154 1121 68 c 0,65,66
 1031 -17 1031 -17 902 -17 c 0,67,68
 758 -17 758 -17 667 74 c 0,69,70
 534 207 534 207 534 481 c 128,-1,71
 534 755 534 755 768 933 c 1,72,73
 712 942 712 942 669 942 c 128,-1,74
 626 942 626 942 579.5 934.5 c 128,-1,75
 533 927 533 927 486 908 c 128,-1,76
 439 889 439 889 394 857.5 c 0,77,78
 348 826 348 826 314 779 c 0,79,80
 238 675 238 675 238 517 c 0,81,82
 238 280 238 280 390 111 c 0,83,84
 414 85 414 85 430.5 71.5 c 128,-1,85
 447 58 447 58 449 56 c 1,86,-1
 325 -18 l 1,87,88
 182 116 182 116 124 324 c 0,89,90
 100 410 100 410 100 519 c 128,-1,91
 100 628 100 628 128 712.5 c 128,-1,92
 156 797 156 797 202 859.5 c 128,-1,93
 248 922 248 922 307 964.5 c 0,94,95
 366 1006 366 1006 429 1032 c 0,96,97
 546 1080 546 1080 676.5 1080 c 128,-1,98
 807 1080 807 1080 932 1026 c 1,99,100
 1066 1080 1066 1080 1190 1080 c 128,-1,101
 1314 1080 1314 1080 1405.5 1034 c 128,-1,102
 1497 988 1497 988 1550 910 c 1,0,1
1053 643 m 0,103,104
 1074 673 1074 673 1074 715 c 128,-1,105
 1074 757 1074 757 1037.5 800 c 128,-1,106
 1001 843 1001 843 937 878 c 1,107,108
 754 784 754 784 694 612 c 0,109,110
 672 550 672 550 672 498 c 128,-1,111
 672 446 672 446 675.5 408.5 c 128,-1,112
 679 371 679 371 688 331.5 c 128,-1,113
 697 292 697 292 713.5 254 c 128,-1,114
 730 216 730 216 756 186 c 0,115,116
 813 121 813 121 902 121 c 0,117,118
 974 120 974 120 1024 166 c 128,-1,119
 1074 212 1074 212 1074 282 c 0,120,121
 1074 356 1074 356 934 388 c 0,122,123
 872 401 872 401 794 403 c 1,124,-1
 794 541 l 1,125,126
 988 551 988 551 1053 643 c 0,103,104
1947 455 m 0,127,128
 1929 409 1929 409 1929 358 c 128,-1,129
 1929 307 1929 307 1944 265.5 c 0,130,131
 1960 224 1960 224 1986 192 c 0,132,133
 2045 121 2045 121 2125 121 c 0,134,135
 2206 121 2206 121 2258 215.5 c 128,-1,136
 2310 310 2310 310 2310 468 c 0,137,138
 2310 576 2310 576 2256 698 c 1,139,140
 2013 624 2013 624 1947 455 c 0,127,128
EndSplineSet
EndChar

StartChar: ml_i
Encoding: 262 3335 103
Width: 1910
GlyphClass: 2
Flags: W
LayerCount: 2
Fore
SplineSet
1008 912 m 1,0,1
 1138 1080 1138 1080 1343 1080 c 0,2,3
 1565 1080 1565 1080 1698 884 c 0,4,5
 1810 719 1810 719 1810 549 c 0,6,7
 1810 293 1810 293 1664 122 c 0,8,9
 1580 22 1580 22 1480 -14 c 0,10,11
 1432 -32 1432 -32 1389 -31 c 2,12,-1
 363 -31 l 1,13,14
 302 -35 302 -35 268 -78 c 0,15,16
 250 -100 250 -100 250.5 -129.5 c 128,-1,17
 251 -159 251 -159 254.5 -177 c 0,18,19
 258 -196 258 -196 267 -210 c 0,20,21
 287 -242 287 -242 329 -242 c 2,22,-1
 1790 -242 l 1,23,-1
 1790 -380 l 1,24,-1
 329 -380 l 2,25,26
 214 -380 214 -380 158 -302 c 0,27,28
 112 -238 112 -238 113 -142 c 0,29,30
 113 14 113 14 239 77 c 0,31,32
 294 104 294 104 365 107 c 1,33,-1
 1389 107 l 2,34,35
 1432 107 1432 107 1481.5 137 c 0,36,37
 1532 168 1532 168 1574 224 c 0,38,39
 1672 355 1672 355 1672 549 c 0,40,41
 1672 676 1672 676 1593 798 c 0,42,43
 1499 943 1499 943 1343 942 c 0,44,45
 1223 942 1223 942 1139 853 c 0,46,47
 1088 799 1088 799 1061 726 c 1,48,-1
 1061 171 l 1,49,-1
 923 171 l 1,50,-1
 923 746 l 2,51,52
 923 820 923 820 857 876 c 0,53,54
 776 944 776 944 628 944 c 0,55,56
 466 944 466 944 352 847 c 0,57,58
 310 811 310 811 281 756 c 1,59,60
 354 800 354 800 418 800 c 128,-1,61
 482 800 482 800 525.5 783 c 128,-1,62
 569 766 569 766 601 738.5 c 128,-1,63
 633 711 633 711 653.5 676.5 c 128,-1,64
 674 642 674 642 686 606 c 0,65,66
 708 542 708 542 708.5 470 c 128,-1,67
 709 398 709 398 677 337 c 128,-1,68
 645 276 645 276 598 235 c 0,69,70
 505 154 505 154 415 154 c 128,-1,71
 325 154 325 154 268 191.5 c 0,72,73
 212 229 212 229 174 288 c 0,74,75
 100 404 100 404 100 561 c 0,76,77
 100 920 100 920 401 1040 c 0,78,79
 508 1082 508 1082 628 1082 c 0,80,81
 893 1082 893 1082 1008 912 c 1,0,1
498 642 m 0,82,83
 470 662 470 662 430.5 662 c 128,-1,84
 391 662 391 662 361 647 c 0,85,86
 330 632 330 632 306 610 c 0,87,88
 254 564 254 564 241 513 c 1,89,90
 255 366 255 366 336 311 c 0,91,92
 364 292 364 292 395 292 c 128,-1,93
 426 292 426 292 455 303 c 128,-1,94
 484 314 484 314 510 338 c 0,95,96
 571 393 571 393 571 481 c 0,97,98
 572 589 572 589 498 642 c 0,82,83
EndSplineSet
EndChar

StartChar: ml_ii
Encoding: 263 3336 104
Width: 3381
GlyphClass: 2
Flags: W
LayerCount: 2
Fore
SplineSet
1008 912 m 1,0,1
 1138 1080 1138 1080 1343 1080 c 0,2,3
 1565 1080 1565 1080 1698 884 c 0,4,5
 1810 719 1810 719 1810 549 c 0,6,7
 1810 293 1810 293 1664 122 c 0,8,9
 1580 22 1580 22 1480 -14 c 0,10,11
 1432 -32 1432 -32 1389 -31 c 2,12,-1
 363 -31 l 1,13,14
 302 -35 302 -35 268 -78 c 0,15,16
 250 -100 250 -100 250.5 -129.5 c 128,-1,17
 251 -159 251 -159 254.5 -177 c 0,18,19
 258 -196 258 -196 267 -210 c 0,20,21
 287 -242 287 -242 329 -242 c 2,22,-1
 1790 -242 l 1,23,-1
 1790 -380 l 1,24,-1
 329 -380 l 2,25,26
 214 -380 214 -380 158 -302 c 0,27,28
 112 -238 112 -238 113 -142 c 0,29,30
 113 14 113 14 239 77 c 0,31,32
 294 104 294 104 365 107 c 1,33,-1
 1389 107 l 2,34,35
 1432 107 1432 107 1481.5 137 c 0,36,37
 1532 168 1532 168 1574 224 c 0,38,39
 1672 355 1672 355 1672 549 c 0,40,41
 1672 676 1672 676 1593 798 c 0,42,43
 1499 943 1499 943 1343 942 c 0,44,45
 1223 942 1223 942 1139 853 c 0,46,47
 1088 799 1088 799 1061 726 c 1,48,-1
 1061 171 l 1,49,-1
 923 171 l 1,50,-1
 923 746 l 2,51,52
 923 820 923 820 857 876 c 0,53,54
 776 944 776 944 628 944 c 0,55,56
 466 944 466 944 352 847 c 0,57,58
 310 811 310 811 281 756 c 1,59,60
 354 800 354 800 418 800 c 128,-1,61
 482 800 482 800 525.5 783 c 128,-1,62
 569 766 569 766 601 738.5 c 128,-1,63
 633 711 633 711 653.5 676.5 c 128,-1,64
 674 642 674 642 686 606 c 0,65,66
 708 542 708 542 708.5 470 c 128,-1,67
 709 398 709 398 677 337 c 128,-1,68
 645 276 645 276 598 235 c 0,69,70
 505 154 505 154 415 154 c 128,-1,71
 325 154 325 154 268 191.5 c 0,72,73
 212 229 212 229 174 288 c 0,74,75
 100 404 100 404 100 561 c 0,76,77
 100 920 100 920 401 1040 c 0,78,79
 508 1082 508 1082 628 1082 c 0,80,81
 893 1082 893 1082 1008 912 c 1,0,1
498 642 m 0,82,83
 470 662 470 662 430.5 662 c 128,-1,84
 391 662 391 662 361 647 c 0,85,86
 330 632 330 632 306 610 c 0,87,88
 254 564 254 564 241 513 c 1,89,90
 255 366 255 366 336 311 c 0,91,92
 364 292 364 292 395 292 c 128,-1,93
 426 292 426 292 455 303 c 128,-1,94
 484 314 484 314 510 338 c 0,95,96
 571 393 571 393 571 481 c 0,97,98
 572 589 572 589 498 642 c 0,82,83
2316 166 m 1,99,100
 2426 247 2426 247 2426 251 c 1,101,102
 2498 180 2498 180 2622 141 c 0,103,104
 2686 121 2686 121 2769 121 c 128,-1,105
 2852 121 2852 121 2920.5 145.5 c 0,106,107
 2988 170 2988 170 3038 221 c 0,108,109
 3142 329 3142 329 3143 533 c 0,110,111
 3144 716 3144 716 3068 828 c 0,112,113
 2991 943 2991 943 2866 942 c 0,114,115
 2728 942 2728 942 2680 826 c 0,116,117
 2665 790 2665 790 2655 748 c 1,118,-1
 2655 478 l 1,119,-1
 2511 478 l 1,120,-1
 2511 742 l 2,121,122
 2511 795 2511 795 2476.5 843.5 c 128,-1,123
 2442 892 2442 892 2406 917 c 128,-1,124
 2370 942 2370 942 2315.5 942 c 128,-1,125
 2261 942 2261 942 2215.5 923.5 c 0,126,127
 2170 904 2170 904 2138 856 c 0,128,129
 2074 757 2074 757 2074 512 c 1,130,-1
 1936 512 l 1,131,132
 1936 832 1936 832 2036 964 c 0,133,134
 2125 1081 2125 1081 2320 1080 c 0,135,136
 2480 1080 2480 1080 2585 917 c 1,137,138
 2650 1002 2650 1002 2690 1030 c 0,139,140
 2765 1080 2765 1080 2861 1080 c 128,-1,141
 2957 1080 2957 1080 3033 1039.5 c 0,142,143
 3109 998 3109 998 3164 926 c 0,144,145
 3281 772 3281 772 3281 533 c 0,146,147
 3280 266 3280 266 3134 120 c 0,148,149
 2996 -18 2996 -18 2769 -17 c 0,150,151
 2588 -17 2588 -17 2433 74 c 0,152,153
 2365 114 2365 114 2316 166 c 1,99,100
EndSplineSet
EndChar

StartChar: ml_u
Encoding: 264 3337 105
Width: 1349
GlyphClass: 2
Flags: W
LayerCount: 2
Fore
SplineSet
265 -117 m 256,0,1
 265 -211 265 -211 342 -211 c 2,2,-1
 1245 -211 l 1,3,-1
 1245 -349 l 1,4,-1
 342 -349 l 2,5,6
 241 -349 241 -349 184 -288.5 c 128,-1,7
 127 -228 127 -228 127 -117 c 0,8,9
 128 50 128 50 258 102 c 0,10,11
 300 119 300 119 354 119 c 2,12,-1
 839 119 l 2,13,14
 956 120 956 120 1032 232 c 0,15,16
 1110 349 1110 349 1111 541 c 0,17,18
 1110 803 1110 803 880 904 c 0,19,20
 794 942 794 942 692.5 942 c 128,-1,21
 591 942 591 942 530.5 934.5 c 128,-1,22
 470 927 470 927 422 909 c 0,23,24
 320 871 320 871 276 784 c 1,25,26
 350 841 350 841 426 841 c 128,-1,27
 502 841 502 841 554.5 811.5 c 0,28,29
 608 782 608 782 640 736 c 0,30,31
 700 649 700 649 700 542 c 128,-1,32
 700 435 700 435 668.5 372 c 128,-1,33
 637 309 637 309 592 269 c 0,34,35
 505 192 505 192 416 192 c 128,-1,36
 327 192 327 192 267.5 226 c 128,-1,37
 208 260 208 260 171 316 c 0,38,39
 100 424 100 424 100 579 c 128,-1,40
 100 734 100 734 138.5 826.5 c 0,41,42
 177 920 177 920 249 976 c 0,43,44
 382 1080 382 1080 662 1080 c 0,45,46
 1064 1080 1064 1080 1199 784 c 0,47,48
 1249 674 1249 674 1249 542 c 128,-1,49
 1249 410 1249 410 1217.5 306.5 c 128,-1,50
 1186 203 1186 203 1130 130 c 0,51,52
 1016 -20 1016 -20 839 -20 c 2,53,-1
 354 -20 l 2,54,55
 311 -20 311 -20 288 -46 c 128,-1,56
 265 -72 265 -72 265 -117 c 256,0,1
252 480 m 1,57,58
 290 330 290 330 412 330 c 0,59,60
 460 330 460 330 494 364 c 0,61,62
 562 432 562 432 562 523 c 0,63,64
 562 640 562 640 489 686 c 0,65,66
 463 702 463 702 429 702.5 c 128,-1,67
 395 703 395 703 365 683.5 c 128,-1,68
 335 664 335 664 310 632 c 0,69,70
 254 562 254 562 252 480 c 1,57,58
EndSplineSet
EndChar

StartChar: ml_uu
Encoding: 265 3338 106
Width: 2815
GlyphClass: 2
Flags: W
LayerCount: 2
Fore
SplineSet
265 -117 m 256,0,1
 265 -211 265 -211 342 -211 c 2,2,-1
 1245 -211 l 1,3,-1
 1245 -349 l 1,4,-1
 342 -349 l 2,5,6
 241 -349 241 -349 184 -288.5 c 128,-1,7
 127 -228 127 -228 127 -117 c 0,8,9
 128 50 128 50 258 102 c 0,10,11
 300 119 300 119 354 119 c 2,12,-1
 839 119 l 2,13,14
 956 120 956 120 1032 232 c 0,15,16
 1110 349 1110 349 1111 541 c 0,17,18
 1110 803 1110 803 880 904 c 0,19,20
 794 942 794 942 692.5 942 c 128,-1,21
 591 942 591 942 530.5 934.5 c 128,-1,22
 470 927 470 927 422 909 c 0,23,24
 320 871 320 871 276 784 c 1,25,26
 350 841 350 841 426 841 c 128,-1,27
 502 841 502 841 554.5 811.5 c 0,28,29
 608 782 608 782 640 736 c 0,30,31
 700 649 700 649 700 542 c 128,-1,32
 700 435 700 435 668.5 372 c 128,-1,33
 637 309 637 309 592 269 c 0,34,35
 505 192 505 192 416 192 c 128,-1,36
 327 192 327 192 267.5 226 c 128,-1,37
 208 260 208 260 171 316 c 0,38,39
 100 424 100 424 100 579 c 128,-1,40
 100 734 100 734 138.5 826.5 c 0,41,42
 177 920 177 920 249 976 c 0,43,44
 382 1080 382 1080 662 1080 c 0,45,46
 1064 1080 1064 1080 1199 784 c 0,47,48
 1249 674 1249 674 1249 542 c 128,-1,49
 1249 410 1249 410 1217.5 306.5 c 128,-1,50
 1186 203 1186 203 1130 130 c 0,51,52
 1016 -20 1016 -20 839 -20 c 2,53,-1
 354 -20 l 2,54,55
 311 -20 311 -20 288 -46 c 128,-1,56
 265 -72 265 -72 265 -117 c 256,0,1
252 480 m 1,57,58
 290 330 290 330 412 330 c 0,59,60
 460 330 460 330 494 364 c 0,61,62
 562 432 562 432 562 523 c 0,63,64
 562 640 562 640 489 686 c 0,65,66
 463 702 463 702 429 702.5 c 128,-1,67
 395 703 395 703 365 683.5 c 128,-1,68
 335 664 335 664 310 632 c 0,69,70
 254 562 254 562 252 480 c 1,57,58
1749 166 m 1,71,72
 1860 245 1860 245 1860 251 c 1,73,74
 1932 180 1932 180 2056 141 c 0,75,76
 2120 121 2120 121 2203 121 c 128,-1,77
 2286 121 2286 121 2354.5 145.5 c 0,78,79
 2422 170 2422 170 2472 221 c 0,80,81
 2576 329 2576 329 2577 533 c 0,82,83
 2578 716 2578 716 2502 828 c 0,84,85
 2425 943 2425 943 2300 942 c 0,86,87
 2161 942 2161 942 2113 826 c 0,88,89
 2098 790 2098 790 2089 748 c 1,90,-1
 2089 478 l 1,91,-1
 1945 478 l 1,92,-1
 1945 742 l 2,93,94
 1944 792 1944 792 1910 842 c 0,95,96
 1841 941 1841 941 1754 942 c 0,97,98
 1628 942 1628 942 1572 856 c 0,99,100
 1508 758 1508 758 1508 512 c 1,101,-1
 1370 512 l 1,102,103
 1370 832 1370 832 1470 964 c 0,104,105
 1559 1080 1559 1080 1754 1080 c 0,106,107
 1914 1080 1914 1080 2019 917 c 1,108,109
 2079 999 2079 999 2122 1028 c 0,110,111
 2199 1080 2199 1080 2294.5 1080 c 128,-1,112
 2390 1080 2390 1080 2466.5 1039.5 c 0,113,114
 2543 998 2543 998 2598 926 c 0,115,116
 2715 772 2715 772 2715 533 c 0,117,118
 2714 266 2714 266 2568 120 c 0,119,120
 2430 -18 2430 -18 2203 -17 c 0,121,122
 2022 -17 2022 -17 1867 74 c 0,123,124
 1799 114 1799 114 1749 166 c 1,71,72
EndSplineSet
EndChar

StartChar: ml_r
Encoding: 266 3339 107
Width: 1875
GlyphClass: 2
Flags: W
LayerCount: 2
Fore
SplineSet
1502 899.5 m 128,-1,1
 1439 942 1439 942 1375 942 c 128,-1,2
 1311 942 1311 942 1278 920 c 128,-1,3
 1245 898 1245 898 1226 866 c 0,4,5
 1192 808 1192 808 1192 743 c 128,-1,6
 1192 678 1192 678 1206.5 635.5 c 0,7,8
 1222 593 1222 593 1246 563 c 0,9,10
 1297 501 1297 501 1361 501 c 128,-1,11
 1425 501 1425 501 1467 528.5 c 128,-1,12
 1509 556 1509 556 1538 597 c 0,13,14
 1595 678 1595 678 1600 775 c 1,15,0
 1565 857 1565 857 1502 899.5 c 128,-1,1
490 497 m 0,16,17
 542 497 542 497 578 521 c 0,18,19
 614 546 614 546 636 580 c 0,20,21
 680 647 680 647 680 712 c 128,-1,22
 680 777 680 777 667.5 817.5 c 128,-1,23
 655 858 655 858 632 886 c 0,24,25
 586 942 586 942 508 942 c 128,-1,26
 430 942 430 942 372 897.5 c 128,-1,27
 314 853 314 853 280 779 c 1,28,29
 282 682 282 682 334 597 c 0,30,31
 396 497 396 497 490 497 c 0,16,17
849 -16 m 1,32,33
 362 -30 362 -30 264 -168 c 0,34,35
 238 -204 238 -204 238 -259.5 c 128,-1,36
 238 -315 238 -315 273 -362.5 c 128,-1,37
 308 -410 308 -410 365.5 -443.5 c 128,-1,38
 423 -477 423 -477 497.5 -498 c 0,39,40
 572 -518 572 -518 652 -530 c 0,41,42
 794 -550 794 -550 953 -551 c 256,43,44
 1200 -551 1200 -551 1392 -488 c 0,45,46
 1541 -439 1541 -439 1602 -350 c 0,47,48
 1634 -303 1634 -303 1634 -251 c 128,-1,49
 1634 -199 1634 -199 1608 -166 c 128,-1,50
 1582 -133 1582 -133 1537 -107.5 c 128,-1,51
 1492 -82 1492 -82 1431.5 -64.5 c 0,52,53
 1371 -46 1371 -46 1302 -36 c 0,54,55
 1167 -16 1167 -16 1016 -16 c 2,56,-1
 849 -16 l 1,32,33
1632 496 m 1,57,58
 1524 363 1524 363 1370 363 c 0,59,60
 1242 363 1242 363 1150 463 c 0,61,62
 1054 568 1054 568 1054 731 c 0,63,64
 1054 856 1054 856 1115 952 c 0,65,66
 1195 1080 1195 1080 1362 1080 c 0,67,68
 1542 1080 1542 1080 1655 950 c 0,69,70
 1775 812 1775 812 1775 575 c 0,71,72
 1776 292 1776 292 1612 151 c 0,73,74
 1550 98 1550 98 1457 61 c 1,75,76
 1772 -32 1772 -32 1772 -242 c 0,77,78
 1772 -406 1772 -406 1630 -514 c 0,79,80
 1403 -688 1403 -688 953 -689 c 0,81,82
 636 -688 636 -688 408 -610 c 0,83,84
 220 -545 220 -545 141 -413 c 0,85,86
 100 -344 100 -344 100 -265 c 128,-1,87
 100 -186 100 -186 123 -136 c 128,-1,88
 146 -86 146 -86 187 -48 c 0,89,90
 261 22 261 22 406 66 c 1,91,92
 101 197 101 197 101 582 c 0,93,94
 100 794 100 794 212 934 c 0,95,96
 327 1080 327 1080 506 1080 c 0,97,98
 649 1080 649 1080 732 987 c 0,99,100
 818 891 818 891 818 723 c 0,101,102
 818 602 818 602 743 492 c 0,103,104
 652 359 652 359 491 359 c 0,105,106
 345 359 345 359 246 485 c 1,107,108
 277 303 277 303 449 209 c 0,109,110
 609 122 609 122 854 122 c 2,111,-1
 1016 122 l 2,112,113
 1322 122 1322 122 1478 232 c 0,114,115
 1610 324 1610 324 1632 496 c 1,57,58
EndSplineSet
EndChar

StartChar: ml_l
Encoding: 267 3340 108
Width: 2158
GlyphClass: 2
Flags: W
LayerCount: 2
Fore
SplineSet
1319 417 m 0,0,1
 1319 706 1319 706 1571 927 c 1,2,3
 1517 942 1517 942 1454.5 942 c 128,-1,4
 1392 942 1392 942 1338 926.5 c 0,5,6
 1284 910 1284 910 1240 886 c 0,7,8
 1153 837 1153 837 1115 770 c 1,9,10
 1120 742 1120 742 1120 719 c 2,11,-1
 1120 0 l 1,12,-1
 982 0 l 1,13,-1
 982 719 l 2,14,15
 982 801 982 801 912 866 c 0,16,17
 830 942 830 942 692 942 c 0,18,19
 637 942 637 942 585 927 c 1,20,21
 829 707 829 707 829 417 c 0,22,23
 829 212 829 212 711 89 c 0,24,25
 609 -17 609 -17 465 -17 c 0,26,27
 298 -17 298 -17 193 136 c 0,28,29
 100 271 100 271 100 432 c 0,30,31
 100 710 100 710 284 898 c 0,32,33
 461 1080 461 1080 699 1080 c 128,-1,34
 937 1080 937 1080 1058 906 c 1,35,36
 1171 1026 1171 1026 1334 1066 c 0,37,38
 1391 1080 1391 1080 1477.5 1080 c 128,-1,39
 1564 1080 1564 1080 1652 1045 c 128,-1,40
 1740 1010 1740 1010 1807 953.5 c 128,-1,41
 1874 897 1874 897 1921.5 826 c 0,42,43
 1970 755 1970 755 2000 683 c 0,44,45
 2058 545 2058 545 2058 446.5 c 128,-1,46
 2058 348 2058 348 2037 282.5 c 128,-1,47
 2016 217 2016 217 1982.5 167 c 128,-1,48
 1949 117 1949 117 1906.5 82 c 128,-1,49
 1864 47 1864 47 1821 25 c 0,50,51
 1636 -70 1636 -70 1486 54 c 0,52,53
 1370 150 1370 150 1330 320 c 0,54,55
 1318 370 1318 370 1319 417 c 0,0,1
1707 859 m 1,56,57
 1457 677 1457 677 1457 417 c 0,58,59
 1457 312 1457 312 1516 220 c 0,60,61
 1580 121 1580 121 1671 121 c 0,62,63
 1744 121 1744 121 1822 189 c 0,64,65
 1920 274 1920 274 1920 432 c 0,66,67
 1920 524 1920 524 1882 612 c 0,68,69
 1810 780 1810 780 1707 859 c 1,56,57
691 422 m 0,70,71
 691 504 691 504 665 576 c 0,72,73
 640 648 640 648 602 704 c 0,74,75
 539 797 539 797 449 861 c 1,76,77
 300 754 300 754 254 566 c 0,78,79
 238 502 238 502 238 442 c 128,-1,80
 238 382 238 382 252 327 c 128,-1,81
 266 272 266 272 294 226 c 0,82,83
 359 121 359 121 465 121 c 0,84,85
 555 120 555 120 618 192 c 0,86,87
 691 276 691 276 691 422 c 0,70,71
EndSplineSet
EndChar

StartChar: ml_e
Encoding: 268 3342 109
Width: 2442
GlyphClass: 2
Flags: W
LayerCount: 2
Fore
SplineSet
864 140 m 1,0,-1
 1118 140 l 1,1,-1
 1118 212 l 2,2,3
 1118 630 1118 630 1298 860 c 0,4,5
 1469 1078 1469 1078 1759 1078 c 0,6,7
 1964 1078 1964 1078 2110 928 c 0,8,9
 2228 806 2228 806 2291 606 c 0,10,11
 2342 444 2342 444 2342 323.5 c 128,-1,12
 2342 203 2342 203 2326.5 116.5 c 128,-1,13
 2311 30 2311 30 2286 -43 c 0,14,15
 2243 -170 2243 -170 2164.5 -283 c 128,-1,16
 2086 -396 2086 -396 1987 -471 c 1,17,-1
 1901 -360 l 1,18,19
 2024 -270 2024 -270 2108 -112 c 0,20,21
 2204 69 2204 69 2204 303 c 0,22,23
 2204 498 2204 498 2110 692 c 0,24,25
 2038 842 2038 842 1912 906 c 0,26,27
 1846 940 1846 940 1747.5 940 c 128,-1,28
 1649 940 1649 940 1556.5 894 c 128,-1,29
 1464 848 1464 848 1398 757 c 0,30,31
 1256 563 1256 563 1256 212 c 2,32,-1
 1256 140 l 1,33,-1
 1610 140 l 1,34,-1
 1610 810 l 1,35,-1
 1752 810 l 1,36,-1
 1752 -189 l 2,37,38
 1752 -302 1752 -302 1658 -388 c 0,39,40
 1567 -471 1567 -471 1467 -471 c 128,-1,41
 1367 -471 1367 -471 1304 -432.5 c 0,42,43
 1240 -394 1240 -394 1202 -329 c 0,44,45
 1136 -218 1136 -218 1123 0 c 1,46,-1
 679 0 l 1,47,-1
 678 104 l 1,48,49
 773 244 773 244 773 341 c 0,50,51
 772 426 772 426 714 494 c 0,52,53
 642 578 642 578 513 577 c 0,54,55
 400 577 400 577 324 519 c 0,56,57
 238 454 238 454 238 344 c 0,58,59
 238 158 238 158 342 61 c 1,60,-1
 238 -15 l 1,61,62
 164 46 164 46 122 180 c 0,63,64
 100 248 100 248 100 343.5 c 128,-1,65
 100 439 100 439 135.5 509 c 0,66,67
 172 578 172 578 230 624 c 0,68,69
 346 714 346 714 513 715 c 0,70,71
 773 714 773 714 874 504 c 0,72,73
 912 425 912 425 912 345.5 c 128,-1,74
 912 266 912 266 864 140 c 1,0,-1
1261 0 m 1,75,76
 1272 -155 1272 -155 1304.5 -217.5 c 128,-1,77
 1337 -280 1337 -280 1373 -306.5 c 128,-1,78
 1409 -333 1409 -333 1449 -333 c 128,-1,79
 1489 -333 1489 -333 1515.5 -321.5 c 128,-1,80
 1542 -310 1542 -310 1563 -290 c 0,81,82
 1611 -245 1611 -245 1611 -189 c 2,83,-1
 1611 0 l 1,84,-1
 1261 0 l 1,75,76
EndSplineSet
EndChar

StartChar: ml_ee
Encoding: 269 3343 110
Width: 2432
GlyphClass: 2
Flags: W
LayerCount: 2
Fore
SplineSet
1261 0 m 1,0,1
 1272 -155 1272 -155 1304.5 -217.5 c 128,-1,2
 1337 -280 1337 -280 1373 -306.5 c 128,-1,3
 1409 -333 1409 -333 1449 -333 c 128,-1,4
 1489 -333 1489 -333 1515.5 -321.5 c 128,-1,5
 1542 -310 1542 -310 1563 -290 c 0,6,7
 1611 -245 1611 -245 1611 -189 c 2,8,-1
 1611 0 l 1,9,-1
 1261 0 l 1,0,1
864 140 m 1,10,-1
 1118 140 l 1,11,-1
 1118 212 l 2,12,13
 1118 630 1118 630 1298 860 c 0,14,15
 1469 1078 1469 1078 1759 1078 c 0,16,17
 1942 1078 1942 1078 2092 972 c 0,18,19
 2198 897 2198 897 2243 778 c 0,20,21
 2266 717 2266 717 2266 660.5 c 128,-1,22
 2266 604 2266 604 2258.5 570.5 c 128,-1,23
 2251 537 2251 537 2239 509 c 0,24,25
 2195 406 2195 406 2096 351 c 1,26,27
 2200 302 2200 302 2256 231 c 0,28,29
 2332 134 2332 134 2332 -5.5 c 128,-1,30
 2332 -145 2332 -145 2297.5 -225.5 c 128,-1,31
 2263 -306 2263 -306 2203 -352 c 0,32,33
 2099 -433 2099 -433 1885 -433 c 1,34,-1
 1875 -295 l 1,35,36
 2026 -296 2026 -296 2100 -244 c 0,37,38
 2194 -178 2194 -178 2194 -17 c 0,39,40
 2194 108 2194 108 2105 184 c 0,41,42
 2043 236 2043 236 1940 260 c 0,43,44
 1902 268 1902 268 1877 270 c 128,-1,45
 1852 272 1852 272 1851 272 c 1,46,-1
 1851 410 l 1,47,48
 2064 426 2064 426 2116 568 c 0,49,50
 2128 600 2128 600 2128 658.5 c 128,-1,51
 2128 717 2128 717 2091.5 772.5 c 128,-1,52
 2055 828 2055 828 2000 866 c 0,53,54
 1891 940 1891 940 1770 940 c 128,-1,55
 1649 940 1649 940 1556.5 894 c 128,-1,56
 1464 848 1464 848 1398 757 c 0,57,58
 1256 563 1256 563 1256 212 c 2,59,-1
 1256 140 l 1,60,-1
 1610 140 l 1,61,-1
 1610 808 l 1,62,-1
 1752 808 l 1,63,-1
 1752 -189 l 2,64,65
 1752 -302 1752 -302 1658 -388 c 0,66,67
 1567 -471 1567 -471 1467 -471 c 128,-1,68
 1367 -471 1367 -471 1304 -432.5 c 0,69,70
 1240 -394 1240 -394 1202 -329 c 0,71,72
 1136 -218 1136 -218 1123 0 c 1,73,-1
 682 0 l 1,74,-1
 683 112 l 1,75,76
 773 244 773 244 773 341 c 0,77,78
 772 426 772 426 714 494 c 0,79,80
 642 578 642 578 513 577 c 0,81,82
 400 577 400 577 324 519 c 0,83,84
 238 454 238 454 238 344 c 0,85,86
 238 154 238 154 342 61 c 1,87,-1
 244 -15 l 1,88,89
 166 48 166 48 122 178 c 0,90,91
 100 246 100 246 100 342.5 c 128,-1,92
 100 439 100 439 135.5 509 c 0,93,94
 172 578 172 578 230 624 c 0,95,96
 346 714 346 714 513 715 c 0,97,98
 773 714 773 714 874 504 c 0,99,100
 912 425 912 425 912 345.5 c 128,-1,101
 912 266 912 266 864 140 c 1,10,-1
EndSplineSet
EndChar

StartChar: ml_ai
Encoding: 270 3344 111
Width: 3670
GlyphClass: 2
Flags: W
LayerCount: 2
Fore
SplineSet
2092 140 m 1,0,-1
 2346 140 l 1,1,-1
 2346 212 l 2,2,3
 2346 630 2346 630 2526 860 c 0,4,5
 2697 1078 2697 1078 2987 1078 c 0,6,7
 3192 1078 3192 1078 3338 928 c 0,8,9
 3456 806 3456 806 3519 606 c 0,10,11
 3570 444 3570 444 3570 323.5 c 128,-1,12
 3570 203 3570 203 3554.5 116.5 c 128,-1,13
 3539 30 3539 30 3514 -43 c 0,14,15
 3471 -170 3471 -170 3392.5 -283 c 128,-1,16
 3314 -396 3314 -396 3215 -471 c 1,17,-1
 3130 -360 l 1,18,19
 3362 -189 3362 -189 3419 141 c 0,20,21
 3432 216 3432 216 3432 283 c 128,-1,22
 3432 350 3432 350 3423 415 c 128,-1,23
 3414 480 3414 480 3393 551 c 128,-1,24
 3372 622 3372 622 3338.5 691.5 c 0,25,26
 3306 760 3306 760 3256 816 c 0,27,28
 3146 940 3146 940 2987 940 c 0,29,30
 2760 940 2760 940 2626 757 c 0,31,32
 2484 563 2484 563 2484 212 c 2,33,-1
 2484 140 l 1,34,-1
 2838 140 l 1,35,-1
 2838 802 l 1,36,-1
 2980 802 l 1,37,-1
 2980 -189 l 2,38,39
 2980 -302 2980 -302 2886 -388 c 0,40,41
 2795 -471 2795 -471 2695 -471 c 128,-1,42
 2595 -471 2595 -471 2532 -432 c 128,-1,43
 2469 -393 2469 -393 2431 -328 c 0,44,45
 2365 -215 2365 -215 2351 2 c 1,46,-1
 1825 2 l 1,47,48
 2002 201 2002 201 2002 341 c 0,49,50
 2002 426 2002 426 1943 494 c 0,51,52
 1870 578 1870 578 1741 577 c 0,53,54
 1631 577 1631 577 1553 519 c 0,55,56
 1466 454 1466 454 1466 344 c 0,57,58
 1466 161 1466 161 1570 61 c 1,59,-1
 1463 -15 l 1,60,61
 1388 49 1388 49 1348 178 c 0,62,63
 1328 246 1328 246 1328 342.5 c 128,-1,64
 1328 439 1328 439 1364 509 c 0,65,66
 1400 578 1400 578 1458 624 c 0,67,68
 1573 714 1573 714 1741 715 c 0,69,70
 2001 714 2001 714 2102 504 c 0,71,72
 2140 425 2140 425 2140 345.5 c 128,-1,73
 2140 266 2140 266 2092 140 c 1,0,-1
2842 -189 m 2,74,-1
 2839 2 l 1,75,-1
 2490 2 l 1,76,77
 2501 -153 2501 -153 2533 -216.5 c 128,-1,78
 2565 -280 2565 -280 2601 -306.5 c 128,-1,79
 2637 -333 2637 -333 2677 -333 c 128,-1,80
 2717 -333 2717 -333 2744 -321.5 c 0,81,82
 2770 -310 2770 -310 2792 -290 c 0,83,84
 2842 -246 2842 -246 2842 -189 c 2,74,-1
251 572 m 1,85,86
 333 642 333 642 430 642 c 0,87,88
 632 642 632 642 714 438 c 0,89,90
 742 369 742 369 741.5 309.5 c 128,-1,91
 741 250 741 250 725.5 202 c 128,-1,92
 710 154 710 154 684.5 117.5 c 128,-1,93
 659 81 659 81 626.5 55.5 c 128,-1,94
 594 30 594 30 560 14 c 0,95,96
 493 -17 493 -17 417.5 -17 c 128,-1,97
 342 -17 342 -17 279.5 20 c 128,-1,98
 217 57 217 57 177 119 c 0,99,100
 100 238 100 238 100 432 c 0,101,102
 100 744 100 744 278 921 c 0,103,104
 438 1080 438 1080 664 1080 c 0,105,106
 859 1080 859 1080 994 962 c 0,107,108
 1100 870 1100 870 1160 720 c 0,109,110
 1206 607 1206 607 1206 534 c 128,-1,111
 1206 461 1206 461 1194.5 401.5 c 128,-1,112
 1183 342 1183 342 1164 290 c 0,113,114
 1094 100 1094 100 938 -20 c 1,115,-1
 853 89 l 1,116,117
 1018 218 1018 218 1058 426 c 0,118,119
 1068 474 1068 474 1068 511.5 c 128,-1,120
 1068 549 1068 549 1060 587.5 c 128,-1,121
 1052 626 1052 626 1034 672 c 128,-1,122
 1016 718 1016 718 985.5 766 c 128,-1,123
 955 814 955 814 910 853 c 0,124,125
 807 942 807 942 664 942 c 0,126,127
 520 942 520 942 410 851 c 0,128,129
 288 749 288 749 251 572 c 1,85,86
513.5 481.5 m 128,-1,131
 480 504 480 504 433 504 c 128,-1,132
 386 504 386 504 352.5 482.5 c 0,133,134
 318 460 318 460 296 430 c 0,135,136
 251 369 251 369 249 313 c 1,137,138
 275 176 275 176 362 135 c 0,139,140
 392 121 392 121 422 121 c 128,-1,141
 452 121 452 121 482 130.5 c 128,-1,142
 512 140 512 140 539 162 c 0,143,144
 603 215 603 215 603 311 c 0,145,146
 603 371 603 371 575 415 c 128,-1,130
 547 459 547 459 513.5 481.5 c 128,-1,131
EndSplineSet
EndChar

StartChar: ml_o
Encoding: 271 3346 112
Width: 1451
GlyphClass: 2
Flags: W
LayerCount: 2
Fore
SplineSet
1136 542 m 1,0,1
 1351 457 1351 457 1351 273 c 256,2,3
 1352 131 1352 131 1200 56 c 0,4,5
 1071 -8 1071 -8 874 -15 c 1,6,-1
 874 123 l 1,7,8
 1136 134 1136 134 1198 225 c 0,9,10
 1212 246 1212 246 1212.5 282.5 c 128,-1,11
 1213 319 1213 319 1185 350.5 c 128,-1,12
 1157 382 1157 382 1114.5 403 c 128,-1,13
 1072 424 1072 424 1022 436 c 0,14,15
 917 460 917 460 831 460 c 1,16,-1
 831 599 l 1,17,18
 1070 613 1070 613 1128 722 c 0,19,20
 1142 747 1142 747 1142 776.5 c 128,-1,21
 1142 806 1142 806 1122 835 c 128,-1,22
 1102 864 1102 864 1060 888 c 0,23,24
 961 942 961 942 814.5 942 c 128,-1,25
 668 942 668 942 572.5 915 c 0,26,27
 478 888 478 888 410 838 c 0,28,29
 278 740 278 740 247 549 c 1,30,31
 340 642 340 642 453 642 c 0,32,33
 596 642 596 642 676 518 c 0,34,35
 742 415 742 415 742 284 c 0,36,37
 742 146 742 146 642 60 c 0,38,39
 554 -15 554 -15 445 -16 c 0,40,41
 208 -16 208 -16 128 240 c 0,42,43
 100 327 100 327 100 451.5 c 128,-1,44
 100 576 100 576 140 697.5 c 128,-1,45
 180 819 180 819 264 904 c 0,46,47
 438 1080 438 1080 794 1080 c 0,48,49
 1028 1080 1028 1080 1164 980 c 0,50,51
 1280 895 1280 895 1280 779 c 0,52,53
 1280 708 1280 708 1208 617 c 0,54,55
 1176 577 1176 577 1136 542 c 1,0,1
262 266 m 1,56,57
 308 122 308 122 445 122 c 0,58,59
 505 122 505 122 539 152 c 0,60,61
 604 207 604 207 604 284 c 0,62,63
 604 365 604 365 578 412 c 0,64,65
 529 503 529 503 453 503 c 0,66,67
 370 503 370 503 312 414 c 0,68,69
 265 341 265 341 262 266 c 1,56,57
EndSplineSet
EndChar

StartChar: ml_oo
Encoding: 272 3347 113
Width: 2240
GlyphClass: 2
Flags: W
LayerCount: 2
Fore
SplineSet
1136 542 m 1,0,1
 1351 457 1351 457 1351 273 c 0,2,3
 1351 96 1351 96 1112 22 c 0,4,5
 1007 -11 1007 -11 874 -16 c 1,6,-1
 874 122 l 1,7,8
 1132 130 1132 130 1198 225 c 0,9,10
 1212 246 1212 246 1212.5 282.5 c 128,-1,11
 1213 319 1213 319 1185 350.5 c 128,-1,12
 1157 382 1157 382 1114.5 403 c 128,-1,13
 1072 424 1072 424 1022 436 c 0,14,15
 917 460 917 460 831 460 c 1,16,-1
 831 599 l 1,17,18
 1070 613 1070 613 1128 722 c 0,19,20
 1142 747 1142 747 1142 776.5 c 128,-1,21
 1142 806 1142 806 1122 835 c 128,-1,22
 1102 864 1102 864 1060 888 c 0,23,24
 961 942 961 942 814.5 942 c 128,-1,25
 668 942 668 942 572.5 915 c 0,26,27
 478 888 478 888 410 838 c 0,28,29
 278 740 278 740 247 549 c 1,30,31
 340 642 340 642 453 642 c 0,32,33
 596 642 596 642 676 518 c 0,34,35
 742 415 742 415 742 284 c 0,36,37
 742 146 742 146 642 60 c 0,38,39
 554 -15 554 -15 445 -16 c 0,40,41
 208 -16 208 -16 128 240 c 0,42,43
 100 327 100 327 100 451.5 c 128,-1,44
 100 576 100 576 140 697.5 c 128,-1,45
 180 819 180 819 264 904 c 0,46,47
 438 1080 438 1080 794 1080 c 0,48,49
 1028 1080 1028 1080 1164 980 c 0,50,51
 1280 895 1280 895 1280 779 c 0,52,53
 1280 708 1280 708 1208 617 c 0,54,55
 1176 577 1176 577 1136 542 c 1,0,1
262 266 m 1,56,57
 308 122 308 122 445 122 c 0,58,59
 505 122 505 122 539 152 c 0,60,61
 604 207 604 207 604 284 c 0,62,63
 604 365 604 365 578 412 c 0,64,65
 529 503 529 503 453 503 c 0,66,67
 370 503 370 503 312 414 c 0,68,69
 265 341 265 341 262 266 c 1,56,57
1467 970 m 1,70,71
 1584 1080 1584 1080 1683.5 1080 c 128,-1,72
 1783 1080 1783 1080 1850 1053.5 c 128,-1,73
 1917 1027 1917 1027 1966.5 983 c 128,-1,74
 2016 939 2016 939 2049 882 c 0,75,76
 2082 824 2082 824 2102 764 c 0,77,78
 2140 653 2140 653 2140 547 c 128,-1,79
 2140 441 2140 441 2119 364 c 128,-1,80
 2098 287 2098 287 2063.5 226 c 128,-1,81
 2029 165 2029 165 1983.5 119.5 c 128,-1,82
 1938 74 1938 74 1889 44 c 0,83,84
 1791 -16 1791 -16 1715 -16 c 0,85,86
 1551 -16 1551 -16 1465 92 c 1,87,-1
 1571 180 l 1,88,89
 1612 122 1612 122 1697 122 c 0,90,91
 1741 122 1741 122 1794.5 146.5 c 128,-1,92
 1848 171 1848 171 1894 222 c 0,93,94
 2002 342 2002 342 2002 535 c 0,95,96
 2002 680 2002 680 1940 794 c 0,97,98
 1892 882 1892 882 1802 922 c 0,99,100
 1756 942 1756 942 1697.5 942 c 128,-1,101
 1639 942 1639 942 1569 876 c 1,102,-1
 1467 970 l 1,70,71
EndSplineSet
EndChar

StartChar: ml_au
Encoding: 273 3348 114
Width: 2873
GlyphClass: 2
Flags: W
LayerCount: 2
Fore
SplineSet
1136 542 m 1,0,1
 1351 457 1351 457 1351 273 c 256,2,3
 1352 130 1352 130 1200 55 c 0,4,5
 1071 -9 1071 -9 874 -16 c 1,6,-1
 874 122 l 1,7,8
 1134 130 1134 130 1198 224 c 0,9,10
 1212 245 1212 245 1212.5 282 c 128,-1,11
 1213 319 1213 319 1185 350.5 c 128,-1,12
 1157 382 1157 382 1114.5 403 c 128,-1,13
 1072 424 1072 424 1022 436 c 0,14,15
 917 460 917 460 831 460 c 1,16,-1
 831 599 l 1,17,18
 1070 613 1070 613 1128 722 c 0,19,20
 1142 747 1142 747 1142 776.5 c 128,-1,21
 1142 806 1142 806 1122 835 c 128,-1,22
 1102 864 1102 864 1060 888 c 0,23,24
 961 942 961 942 814.5 942 c 128,-1,25
 668 942 668 942 572.5 915 c 0,26,27
 478 888 478 888 410 838 c 0,28,29
 278 740 278 740 247 549 c 1,30,31
 340 642 340 642 453 642 c 0,32,33
 596 642 596 642 676 518 c 0,34,35
 742 415 742 415 742 284 c 0,36,37
 742 146 742 146 642 60 c 0,38,39
 554 -15 554 -15 445 -16 c 0,40,41
 208 -16 208 -16 128 240 c 0,42,43
 100 327 100 327 100 451.5 c 128,-1,44
 100 576 100 576 140 697.5 c 128,-1,45
 180 819 180 819 264 904 c 0,46,47
 438 1080 438 1080 794 1080 c 0,48,49
 1028 1080 1028 1080 1164 980 c 0,50,51
 1280 895 1280 895 1280 779 c 0,52,53
 1280 708 1280 708 1208 617 c 0,54,55
 1176 577 1176 577 1136 542 c 1,0,1
262 266 m 1,56,57
 308 122 308 122 445 122 c 0,58,59
 505 122 505 122 539 152 c 0,60,61
 604 207 604 207 604 284 c 0,62,63
 604 365 604 365 578 412 c 0,64,65
 529 503 529 503 453 503 c 0,66,67
 370 503 370 503 312 414 c 0,68,69
 265 341 265 341 262 266 c 1,56,57
1807 166 m 1,70,71
 1918 245 1918 245 1918 251 c 1,72,73
 1988 181 1988 181 2113 141 c 0,74,75
 2176 121 2176 121 2259.5 121 c 128,-1,76
 2343 121 2343 121 2412 145.5 c 0,77,78
 2480 170 2480 170 2530 221 c 0,79,80
 2634 329 2634 329 2635 533 c 0,81,82
 2635 712 2635 712 2559 828 c 0,83,84
 2483 943 2483 943 2357 942 c 0,85,86
 2219 942 2219 942 2171 826 c 0,87,88
 2156 790 2156 790 2147 748 c 1,89,-1
 2147 478 l 1,90,-1
 2003 478 l 1,91,-1
 2003 742 l 2,92,93
 2002 792 2002 792 1968 842 c 0,94,95
 1899 942 1899 942 1812 942 c 0,96,97
 1686 942 1686 942 1630 856 c 0,98,99
 1566 757 1566 757 1565 512 c 1,100,-1
 1427 512 l 1,101,102
 1427 832 1427 832 1527 964 c 0,103,104
 1616 1080 1616 1080 1812 1080 c 0,105,106
 1971 1080 1971 1080 2076 917 c 1,107,108
 2141 1002 2141 1002 2181 1030 c 0,109,110
 2256 1080 2256 1080 2352 1080 c 128,-1,111
 2448 1080 2448 1080 2524 1039.5 c 0,112,113
 2600 998 2600 998 2656 926 c 0,114,115
 2774 773 2774 773 2773 533 c 0,116,117
 2772 266 2772 266 2626 120 c 0,118,119
 2488 -18 2488 -18 2261 -17 c 0,120,121
 2079 -17 2079 -17 1924 74 c 0,122,123
 1856 114 1856 114 1807 166 c 1,70,71
EndSplineSet
EndChar

StartChar: k1
Encoding: 274 3349 115
Width: 1871
GlyphClass: 2
Flags: W
AnchorPoint: "dotreph" 900 1200 basechar 0
LayerCount: 2
Fore
SplineSet
100 325 m 0,0,1
 100 642 100 642 437 642 c 2,2,-1
 585 642 l 1,3,4
 612 938 612 938 766 1040 c 0,5,6
 826 1080 826 1080 903.5 1080 c 128,-1,7
 981 1080 981 1080 1033.5 1062 c 128,-1,8
 1086 1044 1086 1044 1125.5 1012.5 c 128,-1,9
 1165 981 1165 981 1193 938.5 c 128,-1,10
 1221 896 1221 896 1240 847 c 0,11,12
 1275 758 1275 758 1286 642 c 1,13,-1
 1494 642 l 2,14,15
 1620 642 1620 642 1698 536 c 0,16,17
 1772 438 1772 438 1771 304 c 0,18,19
 1771 -13 1771 -13 1390 -13 c 1,20,-1
 1390 125 l 1,21,22
 1633 125 1633 125 1633 304 c 0,23,24
 1634 384 1634 384 1606 427 c 0,25,26
 1557 504 1557 504 1494 504 c 2,27,-1
 1291 504 l 1,28,29
 1292 99 1292 99 1052 5 c 0,30,31
 994 -18 994 -18 914 -18 c 0,32,33
 750 -18 750 -18 665 116 c 1,34,35
 599 22 599 22 488 -8 c 0,36,37
 453 -18 453 -18 394.5 -18 c 128,-1,38
 336 -18 336 -18 276.5 12 c 0,39,40
 218 42 218 42 178 90 c 0,41,42
 100 186 100 186 100 325 c 0,0,1
814 156 m 0,43,44
 852 120 852 120 908 120 c 128,-1,45
 964 120 964 120 1001 136.5 c 128,-1,46
 1038 153 1038 153 1064.5 181.5 c 128,-1,47
 1091 210 1091 210 1108 248 c 0,48,49
 1124 286 1124 286 1134 329 c 0,50,51
 1150 402 1150 402 1153 504 c 1,52,-1
 718 504 l 1,53,54
 718 248 718 248 814 156 c 0,43,44
437 504 m 2,55,56
 238 504 238 504 238 325 c 0,57,58
 238 190 238 190 338 138 c 0,59,60
 372 120 372 120 409.5 120 c 128,-1,61
 447 120 447 120 477 133 c 128,-1,62
 507 146 507 146 531 168 c 0,63,64
 585 218 585 218 585 284 c 2,65,-1
 585 401 l 1,66,67
 580 444 580 444 580 504 c 1,68,-1
 437 504 l 2,55,56
1146 642 m 1,69,70
 1113 942 1113 942 914 942 c 0,71,72
 826 942 826 942 776 848 c 0,73,74
 736 773 736 773 724 642 c 1,75,-1
 1146 642 l 1,69,70
EndSplineSet
EndChar

StartChar: k2
Encoding: 275 3350 116
Width: 1917
GlyphClass: 2
Flags: W
AnchorPoint: "dotreph" 1000 1300 basechar 0
LayerCount: 2
Fore
SplineSet
819 0 m 1,0,-1
 819 85 l 1,1,2
 914 170 914 170 990 298 c 0,3,4
 1072 437 1072 437 1073 543 c 0,5,6
 1073 671 1073 671 986 788 c 0,7,8
 871 942 871 942 653 942 c 0,9,10
 490 942 490 942 381 822 c 0,11,12
 295 727 295 727 257 575 c 1,13,14
 328 642 328 642 450 642 c 0,15,16
 656 642 656 642 724 442 c 0,17,18
 746 375 746 375 746.5 296 c 128,-1,19
 747 217 747 217 718 155.5 c 128,-1,20
 689 94 689 94 644 56 c 0,21,22
 559 -16 559 -16 442 -16 c 0,23,24
 200 -16 200 -16 126 240 c 0,25,26
 100 332 100 332 100 409 c 128,-1,27
 100 486 100 486 112 551.5 c 128,-1,28
 124 617 124 617 150.5 688.5 c 128,-1,29
 177 760 177 760 220 830 c 0,30,31
 262 900 262 900 324 956 c 0,32,33
 462 1080 462 1080 653 1080 c 0,34,35
 853 1080 853 1080 991 976 c 0,36,37
 1104 892 1104 892 1164 754 c 0,38,39
 1212 643 1212 643 1211 543 c 0,40,41
 1211 368 1211 368 1050 125 c 1,42,-1
 1639 125 l 1,43,-1
 1639 1062 l 1,44,-1
 1777 1062 l 1,45,-1
 1777 0 l 1,46,-1
 819 0 l 1,0,-1
264 260 m 1,47,48
 309 122 309 122 442 122 c 0,49,50
 505 122 505 122 541 153 c 0,51,52
 609 212 609 212 609 306 c 0,53,54
 609 428 609 428 530 482 c 0,55,56
 499 504 499 504 450 504 c 256,57,58
 361 504 361 504 310 420 c 0,59,60
 269 352 269 352 264 260 c 1,47,48
EndSplineSet
EndChar

StartChar: k3
Encoding: 276 3351 117
Width: 1696
GlyphClass: 2
Flags: W
AnchorPoint: "dotreph" 800 1300 basechar 0
LayerCount: 2
Fore
SplineSet
518 961 m 1,0,1
 404 900 404 900 326 790 c 0,2,3
 238 667 238 667 238 502 c 0,4,5
 238 330 238 330 329 222 c 0,6,7
 415 120 415 120 544 121 c 0,8,9
 692 121 692 121 764 275 c 0,10,11
 788 328 788 328 788 364 c 2,12,-1
 788 683 l 2,13,14
 788 892 788 892 906 995 c 0,15,16
 1003 1080 1003 1080 1158 1080 c 128,-1,17
 1313 1080 1313 1080 1423 978 c 0,18,19
 1551 858 1551 858 1587 646 c 0,20,21
 1596 592 1596 592 1596 536.5 c 128,-1,22
 1596 481 1596 481 1581.5 416.5 c 128,-1,23
 1567 352 1567 352 1544 298 c 0,24,25
 1504 203 1504 203 1430.5 120.5 c 128,-1,26
 1357 38 1357 38 1264 -17 c 1,27,-1
 1190 101 l 1,28,29
 1394 216 1394 216 1446 444 c 0,30,31
 1458 496 1458 496 1458 539.5 c 128,-1,32
 1458 583 1458 583 1452 622.5 c 128,-1,33
 1446 662 1446 662 1432 705 c 128,-1,34
 1418 748 1418 748 1395 790.5 c 0,35,36
 1372 832 1372 832 1339 866 c 0,37,38
 1265 941 1265 941 1158 942 c 0,39,40
 1002 942 1002 942 946 806 c 0,41,42
 926 756 926 756 926 683 c 2,43,-1
 926 364 l 2,44,45
 926 264 926 264 838 139 c 0,46,47
 773 47 773 47 667 5 c 0,48,49
 612 -17 612 -17 533 -17 c 128,-1,50
 454 -17 454 -17 373.5 18.5 c 0,51,52
 292 54 292 54 232 120 c 0,53,54
 100 266 100 266 100 502 c 0,55,56
 100 761 100 761 275 947 c 0,57,58
 352 1030 352 1030 451 1083 c 1,59,-1
 518 961 l 1,0,1
EndSplineSet
EndChar

StartChar: k4
Encoding: 277 3352 118
Width: 2803
GlyphClass: 2
Flags: W
AnchorPoint: "dotreph" 1300 1300 basechar 0
LayerCount: 2
Fore
SplineSet
923 698 m 256,0,1
 923 624 923 624 855 502 c 1,2,-1
 1199 502 l 1,3,4
 1198 758 1198 758 1320 914 c 0,5,6
 1450 1080 1450 1080 1683 1081 c 0,7,8
 1939 1081 1939 1081 2062 953 c 0,9,10
 2200 809 2200 809 2200 471 c 2,11,-1
 2200 364 l 1,12,-1
 1337 364 l 1,13,-1
 1337 138 l 1,14,-1
 2525 138 l 1,15,-1
 2525 1062 l 1,16,-1
 2663 1062 l 1,17,-1
 2663 0 l 1,18,-1
 1199 0 l 1,19,-1
 1199 364 l 1,20,-1
 643 364 l 1,21,-1
 626 432 l 1,22,23
 785 580 785 580 785 698 c 0,24,25
 784 778 784 778 730 850 c 0,26,27
 659 942 659 942 526 943 c 0,28,29
 410 943 410 943 328 883 c 0,30,31
 238 817 238 817 238 704 c 0,32,33
 238 600 238 600 298 511 c 0,34,35
 324 471 324 471 358 441 c 1,36,-1
 270 335 l 1,37,38
 100 487 100 487 100 704 c 0,39,40
 100 880 100 880 233 986 c 0,41,42
 352 1080 352 1080 526 1081 c 0,43,44
 788 1082 788 1082 888 854 c 0,45,46
 922 774 922 774 923 698 c 256,0,1
1840 920 m 0,47,48
 1770 943 1770 943 1685 943 c 128,-1,49
 1600 943 1600 943 1535.5 909 c 0,50,51
 1471 876 1471 876 1427 816 c 0,52,53
 1337 694 1337 694 1337 502 c 1,54,-1
 2060 502 l 1,55,56
 2060 848 2060 848 1840 920 c 0,47,48
EndSplineSet
EndChar

StartChar: ng
Encoding: 278 3353 119
Width: 1703
GlyphClass: 2
Flags: W
AnchorPoint: "dotreph" 870 1300 basechar 0
LayerCount: 2
Fore
SplineSet
1441 558 m 1,0,1
 1603 482 1603 482 1603 306 c 0,2,3
 1602 16 1602 16 1262 -12 c 0,4,5
 1208 -16 1208 -16 1156 -17 c 1,6,-1
 1156 121 l 1,7,8
 1294 121 1294 121 1352 146.5 c 128,-1,9
 1410 172 1410 172 1437.5 208.5 c 128,-1,10
 1465 245 1465 245 1465 306 c 0,11,12
 1465 474 1465 474 1127 474 c 1,13,-1
 1127 612 l 1,14,15
 1329 612 1329 612 1391 712 c 0,16,17
 1412 746 1412 746 1412 781.5 c 128,-1,18
 1412 817 1412 817 1396.5 844 c 0,19,20
 1380 872 1380 872 1354 894 c 0,21,22
 1295 944 1295 944 1213 944 c 0,23,24
 1080 944 1080 944 986 850 c 0,25,26
 954 818 954 818 933 773 c 1,27,-1
 933 0 l 1,28,-1
 796 0 l 1,29,-1
 796 752 l 2,30,31
 796 826 796 826 748 880 c 0,32,33
 691 944 691 944 587 944 c 0,34,35
 477 944 477 944 388 861 c 0,36,37
 290 770 290 770 254 599 c 1,38,39
 318 642 318 642 375 642 c 128,-1,40
 432 642 432 642 469 625.5 c 128,-1,41
 506 609 506 609 532.5 582 c 128,-1,42
 559 555 559 555 576.5 520 c 0,43,44
 594 486 594 486 604 448 c 0,45,46
 622 379 622 379 621.5 317 c 128,-1,47
 621 255 621 255 606 198.5 c 128,-1,48
 591 142 591 142 561 94 c 0,49,50
 491 -16 491 -16 379 -16 c 0,51,52
 254 -16 254 -16 177 102 c 0,53,54
 100 221 100 221 100 424 c 0,55,56
 100 744 100 744 256 923 c 0,57,58
 394 1082 394 1082 589 1082 c 128,-1,59
 784 1082 784 1082 876 944 c 1,60,61
 962 1042 962 1042 1122 1073 c 0,62,63
 1168 1082 1168 1082 1228 1082 c 128,-1,64
 1288 1082 1288 1082 1350 1055 c 128,-1,65
 1412 1028 1412 1028 1456 986 c 0,66,67
 1550 897 1550 897 1550 790 c 0,68,69
 1550 640 1550 640 1441 558 c 1,0,1
433.5 483.5 m 128,-1,71
 414 504 414 504 380.5 504 c 128,-1,72
 347 504 347 504 322 483.5 c 128,-1,73
 297 463 297 463 281 433 c 0,74,75
 251 377 251 377 246 307 c 1,76,77
 260 213 260 213 295 167.5 c 128,-1,78
 330 122 330 122 367.5 122 c 128,-1,79
 405 122 405 122 424.5 139.5 c 128,-1,80
 444 157 444 157 457 184 c 0,81,82
 483 238 483 238 483 285.5 c 128,-1,83
 483 333 483 333 479 367.5 c 128,-1,84
 475 402 475 402 464 432.5 c 128,-1,70
 453 463 453 463 433.5 483.5 c 128,-1,71
EndSplineSet
EndChar

StartChar: ch1
Encoding: 279 3354 120
Width: 1851
GlyphClass: 2
Flags: W
AnchorPoint: "dotreph" 900 1200 basechar 0
LayerCount: 2
Fore
SplineSet
965 138 m 1,0,-1
 1573 138 l 1,1,-1
 1573 1061 l 1,2,-1
 1711 1061 l 1,3,-1
 1711 0 l 1,4,-1
 0 0 l 1,5,-1
 0 138 l 1,6,-1
 549 138 l 2,7,8
 806 138 806 138 906 266 c 0,9,10
 944 314 944 314 944 366.5 c 128,-1,11
 944 419 944 419 936 455 c 128,-1,12
 928 491 928 491 904 521 c 0,13,14
 850 590 850 590 729 590 c 0,15,16
 632 590 632 590 580 529 c 0,17,18
 536 476 536 476 536 403 c 128,-1,19
 536 330 536 330 546 310 c 1,20,-1
 419 252 l 1,21,22
 398 298 398 298 398 376.5 c 128,-1,23
 398 455 398 455 416.5 516.5 c 0,24,25
 434 578 434 578 474 626 c 0,26,27
 560 729 560 729 729 729 c 0,28,29
 928 728 928 728 1016 612 c 0,30,31
 1082 526 1082 526 1082 384 c 128,-1,32
 1082 242 1082 242 965 138 c 1,0,-1
EndSplineSet
EndChar

StartChar: ch2
Encoding: 280 3355 121
Width: 2641
GlyphClass: 2
Flags: W
AnchorPoint: "dotreph" 1300 1300 basechar 0
LayerCount: 2
Fore
SplineSet
2116 912 m 1,0,1
 2042 938 2042 938 1957.5 938 c 128,-1,2
 1873 938 1873 938 1792 904.5 c 128,-1,3
 1711 871 1711 871 1649 813 c 0,4,5
 1514 687 1514 687 1514 506 c 0,6,7
 1514 342 1514 342 1608 218 c 0,8,9
 1640 176 1640 176 1681 143 c 1,10,-1
 1681 0 l 1,11,-1
 0 0 l 1,12,-1
 0 138 l 1,13,-1
 549 138 l 2,14,15
 806 138 806 138 906 266 c 0,16,17
 944 314 944 314 944 366.5 c 128,-1,18
 944 419 944 419 936 455 c 128,-1,19
 928 491 928 491 904 521 c 0,20,21
 850 590 850 590 729 590 c 0,22,23
 632 590 632 590 580 529 c 0,24,25
 536 476 536 476 536 403 c 128,-1,26
 536 330 536 330 546 310 c 1,27,-1
 419 252 l 1,28,29
 398 298 398 298 398 376.5 c 128,-1,30
 398 455 398 455 416.5 516.5 c 0,31,32
 434 578 434 578 474 626 c 0,33,34
 560 729 560 729 729 729 c 0,35,36
 928 728 928 728 1016 612 c 0,37,38
 1082 526 1082 526 1082 384 c 128,-1,39
 1082 242 1082 242 965 138 c 1,40,-1
 1494 138 l 1,41,42
 1376 295 1376 295 1376 506 c 0,43,44
 1376 746 1376 746 1552 912 c 0,45,46
 1726 1076 1726 1076 1962 1076 c 0,47,48
 2162 1076 2162 1076 2306 962 c 0,49,50
 2421 872 2421 872 2488 720 c 0,51,52
 2541 598 2541 598 2541 497.5 c 128,-1,53
 2541 397 2541 397 2518.5 305.5 c 128,-1,54
 2496 214 2496 214 2450 142 c 0,55,56
 2349 -15 2349 -15 2172 -15 c 0,57,58
 2002 -15 2002 -15 1897 121 c 0,59,60
 1808 237 1808 237 1808 353.5 c 128,-1,61
 1808 470 1808 470 1838.5 555.5 c 128,-1,62
 1869 641 1869 641 1915 709 c 0,63,64
 1991 822 1991 822 2116 912 c 1,0,1
1980 542 m 0,65,66
 1946 464 1946 464 1946 398 c 128,-1,67
 1946 332 1946 332 1959.5 289.5 c 128,-1,68
 1973 247 1973 247 2001 210 c 0,69,70
 2067 123 2067 123 2172 123 c 256,71,72
 2282 123 2282 123 2346 237 c 0,73,74
 2403 339 2403 339 2403 494 c 0,75,76
 2403 616 2403 616 2318 748 c 0,77,78
 2288 794 2288 794 2245 833 c 1,79,80
 2060 725 2060 725 1980 542 c 0,65,66
EndSplineSet
EndChar

StartChar: ch3
Encoding: 281 3356 122
Width: 1673
GlyphClass: 2
Flags: W
AnchorPoint: "dotreph" 850 1300 basechar 0
LayerCount: 2
Fore
SplineSet
909 595 m 1,0,-1
 771 595 l 1,1,-1
 771 792 l 2,2,3
 771 856 771 856 702 898 c 0,4,5
 632 942 632 942 539 942 c 128,-1,6
 446 942 446 942 382 921 c 1,7,8
 439 900 439 900 472 847.5 c 128,-1,9
 505 795 505 795 505 732 c 128,-1,10
 505 669 505 669 490 630.5 c 128,-1,11
 475 592 475 592 449 566 c 0,12,13
 396 513 396 513 324 513 c 128,-1,14
 252 513 252 513 210.5 532.5 c 0,15,16
 168 552 168 552 144 584 c 0,17,18
 100 642 100 642 100 734 c 128,-1,19
 100 826 100 826 135.5 890 c 128,-1,20
 171 954 171 954 230 996 c 0,21,22
 348 1080 348 1080 524 1080 c 0,23,24
 633 1080 633 1080 716.5 1041.5 c 128,-1,25
 800 1003 800 1003 851 943 c 1,26,27
 944 1042 944 1042 1107 1071 c 0,28,29
 1157 1080 1157 1080 1228.5 1080 c 128,-1,30
 1300 1080 1300 1080 1369 1048.5 c 128,-1,31
 1438 1017 1438 1017 1484 970 c 0,32,33
 1574 878 1574 878 1573 763 c 0,34,35
 1573 631 1573 631 1483 534 c 0,36,37
 1374 417 1374 417 1185 383 c 0,38,39
 1135 374 1135 374 1097 374 c 2,40,-1
 516 374 l 1,41,42
 340 370 340 370 295 276 c 0,43,44
 285 256 285 256 285 225.5 c 128,-1,45
 285 195 285 195 295.5 174 c 128,-1,46
 306 153 306 153 325 141 c 0,47,48
 357 121 357 121 428.5 121 c 128,-1,49
 500 121 500 121 575 141 c 128,-1,50
 650 161 650 161 727.5 191 c 128,-1,51
 805 221 805 221 883.5 256.5 c 128,-1,52
 962 292 962 292 1042 322 c 0,53,54
 1228 392 1228 392 1357 392 c 0,55,56
 1454 392 1454 392 1514 322 c 0,57,58
 1564 264 1564 264 1563 189 c 0,59,60
 1563 108 1563 108 1506 47 c 0,61,62
 1446 -17 1446 -17 1355 -17 c 0,63,64
 1265 -18 1265 -18 1206 52 c 0,65,66
 1153 114 1153 114 1153 190 c 2,67,-1
 1153 211 l 1,68,69
 1051 175 1051 175 961 134.5 c 0,70,71
 870 94 870 94 784 60 c 0,72,73
 584 -18 584 -18 428 -17 c 0,74,75
 292 -17 292 -17 226 31 c 0,76,77
 147 89 147 89 147 228 c 0,78,79
 147 401 147 401 330 474 c 0,80,81
 410 506 410 506 513 512 c 1,82,-1
 1097 512 l 2,83,84
 1202 512 1202 512 1306 568 c 0,85,86
 1434 637 1434 637 1435 763 c 0,87,88
 1435 830 1435 830 1379 882 c 0,89,90
 1315 942 1315 942 1207 942 c 0,91,92
 1032 942 1032 942 947 854 c 0,93,94
 918 824 918 824 909 784 c 1,95,-1
 909 595 l 1,0,-1
238 740 m 256,96,97
 238 651 238 651 315 651 c 0,98,99
 336 651 336 651 351.5 668 c 128,-1,100
 367 685 367 685 367 719.5 c 128,-1,101
 367 754 367 754 352.5 774.5 c 128,-1,102
 338 795 338 795 315 795 c 256,103,104
 278 795 278 795 241 775 c 1,105,106
 238 757 238 757 238 740 c 256,96,97
1311 251 m 1,107,108
 1291 226 1291 226 1291 202.5 c 128,-1,109
 1291 179 1291 179 1295 166.5 c 0,110,111
 1300 154 1300 154 1308 144 c 0,112,113
 1328 121 1328 121 1357.5 121 c 128,-1,114
 1387 121 1387 121 1406 142 c 128,-1,115
 1425 163 1425 163 1425 181 c 128,-1,116
 1425 199 1425 199 1421 210.5 c 0,117,118
 1416 222 1416 222 1408 232 c 0,119,120
 1388 254 1388 254 1361.5 254 c 128,-1,121
 1335 254 1335 254 1311 251 c 1,107,108
EndSplineSet
EndChar

StartChar: ch4
Encoding: 282 3357 123
Width: 3026
GlyphClass: 2
Flags: W
AnchorPoint: "dotreph" 1600 1300 basechar 0
LayerCount: 2
Fore
SplineSet
895 1013 m 1,0,1
 1039 1080 1039 1080 1177 1080 c 0,2,3
 1379 1080 1379 1080 1486 942 c 0,4,5
 1573 830 1573 830 1573 694 c 2,6,-1
 1573 444 l 2,7,8
 1574 304 1574 304 1638 214 c 0,9,10
 1705 121 1705 121 1814 121 c 0,11,12
 1926 122 1926 122 2012 184 c 0,13,14
 2095 244 2095 244 2095 310 c 2,15,-1
 2095 1061 l 1,16,-1
 2233 1061 l 1,17,-1
 2233 311 l 1,18,19
 2257 198 2257 198 2345 146 c 0,20,21
 2386 122 2386 122 2445.5 121.5 c 128,-1,22
 2505 121 2505 121 2551 140.5 c 128,-1,23
 2597 160 2597 160 2635 192.5 c 128,-1,24
 2673 225 2673 225 2701.5 268.5 c 128,-1,25
 2730 312 2730 312 2749 360 c 0,26,27
 2788 458 2788 458 2788 529.5 c 128,-1,28
 2788 601 2788 601 2776 646 c 0,29,30
 2764 692 2764 692 2744 730 c 0,31,32
 2712 793 2712 793 2649 855 c 128,-1,33
 2586 917 2586 917 2509 958 c 1,34,-1
 2576 1080 l 1,35,36
 2778 969 2778 969 2871 783 c 0,37,38
 2926 673 2926 673 2926 550 c 0,39,40
 2926 352 2926 352 2804 178 c 0,41,42
 2720 58 2720 58 2592 8 c 0,43,44
 2526 -18 2526 -18 2450 -17 c 0,45,46
 2250 -17 2250 -17 2155 136 c 1,47,48
 2061 28 2061 28 1915 -6 c 0,49,50
 1866 -18 1866 -18 1796 -17.5 c 128,-1,51
 1726 -17 1726 -17 1656 18.5 c 128,-1,52
 1586 54 1586 54 1537 116 c 0,53,54
 1435 246 1435 246 1435 444 c 2,55,-1
 1435 694 l 2,56,57
 1434 784 1434 784 1378 854 c 0,58,59
 1306 942 1306 942 1177 942 c 0,60,61
 1106 942 1106 942 1029 917 c 1,62,63
 1178 774 1178 774 1218 566 c 0,64,65
 1230 506 1230 506 1229.5 421 c 128,-1,66
 1229 336 1229 336 1199 248.5 c 0,67,68
 1168 161 1168 161 1118 102 c 0,69,70
 1016 -17 1016 -17 860 -17 c 0,71,72
 698 -17 698 -17 606 119 c 0,73,74
 518 249 518 249 518 458 c 0,75,76
 518 730 518 730 750 921 c 1,77,78
 675 942 675 942 607 942 c 128,-1,79
 539 942 539 942 473.5 914 c 128,-1,80
 408 886 408 886 356 832 c 0,81,82
 238 712 238 712 238 521 c 0,83,84
 238 309 238 309 347 190 c 0,85,86
 395 135 395 135 457 107 c 0,87,88
 457 106 457 106 447.5 87 c 128,-1,89
 438 68 438 68 427 45 c 2,90,-1
 397 -17 l 1,91,92
 276 40 276 40 194 166 c 0,93,94
 100 309 100 309 100 521 c 0,95,96
 100 688 100 688 178 824 c 0,97,98
 247 944 247 944 368 1014 c 0,99,100
 481 1080 481 1080 623 1080 c 128,-1,101
 765 1080 765 1080 895 1013 c 1,0,1
656 454 m 0,102,103
 656 386 656 386 669.5 324.5 c 0,104,105
 683 264 683 264 709 218 c 0,106,107
 764 122 764 122 860 121 c 0,108,109
 958 120 958 120 1022 204 c 0,110,111
 1092 296 1092 296 1091 452 c 0,112,113
 1091 620 1091 620 980 766 c 0,114,115
 942 816 942 816 890 854 c 1,116,117
 656 704 656 704 656 454 c 0,102,103
EndSplineSet
EndChar

StartChar: nj
Encoding: 283 3358 124
Width: 2668
GlyphClass: 2
Flags: W
AnchorPoint: "dotreph" 1400 1300 basechar 0
LayerCount: 2
Fore
SplineSet
1695 1007 m 1,0,1
 1849 1080 1849 1080 1969 1080 c 128,-1,2
 2089 1080 2089 1080 2174.5 1052 c 128,-1,3
 2260 1024 2260 1024 2325.5 977.5 c 128,-1,4
 2391 931 2391 931 2437 871 c 0,5,6
 2483 812 2483 812 2512 748 c 0,7,8
 2568 625 2568 625 2568 505 c 0,9,10
 2568 296 2568 296 2427 117 c 0,11,12
 2365 40 2365 40 2287 -17 c 1,13,-1
 2211 98 l 1,14,15
 2378 216 2378 216 2420 412 c 0,16,17
 2430 456 2430 456 2430 500.5 c 128,-1,18
 2430 545 2430 545 2419.5 593 c 128,-1,19
 2409 641 2409 641 2387 689.5 c 128,-1,20
 2365 738 2365 738 2329.5 783.5 c 0,21,22
 2294 828 2294 828 2244 864 c 0,23,24
 2136 942 2136 942 1981 942 c 0,25,26
 1910 942 1910 942 1823 913 c 1,27,28
 1966 774 1966 774 2010 589 c 0,29,30
 2024 529 2024 529 2024 453.5 c 128,-1,31
 2024 378 2024 378 2004 306 c 128,-1,32
 1984 234 1984 234 1952.5 180 c 128,-1,33
 1921 126 1921 126 1881.5 88.5 c 0,34,35
 1842 52 1842 52 1802 28 c 0,36,37
 1676 -47 1676 -47 1560 4 c 0,38,39
 1426 63 1426 63 1366 236 c 0,40,41
 1332 335 1332 335 1331 433 c 0,42,43
 1331 741 1331 741 1554 918 c 1,44,45
 1482 942 1482 942 1418 942 c 128,-1,46
 1354 942 1354 942 1310.5 930 c 128,-1,47
 1267 918 1267 918 1234.5 899.5 c 128,-1,48
 1202 881 1202 881 1179.5 858 c 128,-1,49
 1157 835 1157 835 1142 812 c 0,50,51
 1117 774 1117 774 1108 737 c 1,52,-1
 1108 0 l 1,53,-1
 970 0 l 1,54,-1
 970 744 l 2,55,56
 970 812 970 812 905 870 c 0,57,58
 825 942 825 942 684 942 c 0,59,60
 534 942 534 942 416 848 c 0,61,62
 289 747 289 747 252 573 c 1,63,64
 339 642 339 642 435 642 c 128,-1,65
 531 642 531 642 588.5 608.5 c 0,66,67
 646 576 646 576 679 526 c 0,68,69
 737 439 737 439 737 342.5 c 128,-1,70
 737 246 737 246 709 184.5 c 0,71,72
 682 123 682 123 638 78 c 0,73,74
 546 -17 546 -17 436 -17 c 0,75,76
 264 -18 264 -18 174 136 c 0,77,78
 100 262 100 262 100 429 c 128,-1,79
 100 596 100 596 150 715 c 128,-1,80
 200 834 200 834 282 915 c 0,81,82
 449 1080 449 1080 687.5 1080 c 128,-1,83
 926 1080 926 1080 1046 915 c 1,84,85
 1168 1080 1168 1080 1411 1080 c 0,86,87
 1564 1080 1564 1080 1695 1007 c 1,0,1
1860 304 m 128,-1,89
 1886 371 1886 371 1886 446.5 c 128,-1,90
 1886 522 1886 522 1872 575 c 128,-1,91
 1858 628 1858 628 1832 677 c 0,92,93
 1779 777 1779 777 1688 848 c 1,94,95
 1469 708 1469 708 1469 433 c 0,96,97
 1469 320 1469 320 1515 230 c 0,98,99
 1571 122 1571 122 1667 121 c 0,100,101
 1689 121 1689 121 1726 138.5 c 128,-1,102
 1763 156 1763 156 1798.5 196.5 c 128,-1,88
 1834 237 1834 237 1860 304 c 128,-1,89
520 485 m 0,103,104
 490 504 490 504 445 504 c 128,-1,105
 400 504 400 504 366 486.5 c 0,106,107
 332 468 332 468 308 440 c 0,108,109
 258 381 258 381 254 302 c 1,110,111
 284 178 284 178 368 136 c 0,112,113
 398 122 398 122 431 121.5 c 128,-1,114
 464 121 464 121 492.5 135.5 c 0,115,116
 520 150 520 150 544 176 c 0,117,118
 598 236 598 236 598 320 c 0,119,120
 598 436 598 436 520 485 c 0,103,104
EndSplineSet
EndChar

StartChar: t1
Encoding: 284 3359 125
Width: 1183
GlyphClass: 2
Flags: W
AnchorPoint: "dotreph" 600 1300 basechar 0
LayerCount: 2
Fore
SplineSet
991 822 m 1,0,1
 903 887 903 887 795 914.5 c 128,-1,2
 687 942 687 942 594.5 942 c 128,-1,3
 502 942 502 942 438.5 922 c 0,4,5
 374 902 374 902 336 872 c 0,6,7
 264 815 264 815 265 732 c 0,8,9
 266 652 266 652 330 615 c 0,10,11
 374 590 374 590 419 590 c 128,-1,12
 464 590 464 590 494.5 594.5 c 0,13,14
 525 598 525 598 556 604 c 0,15,16
 638 618 638 618 705 618.5 c 128,-1,17
 772 619 772 619 844.5 595 c 128,-1,18
 917 571 917 571 966 531 c 0,19,20
 1066 449 1066 449 1066 331 c 0,21,22
 1066 202 1066 202 976 115 c 0,23,24
 839 -17 839 -17 580 -17 c 0,25,26
 356 -17 356 -17 100 131 c 1,27,-1
 171 249 l 1,28,29
 391 121 391 121 580 121 c 0,30,31
 698 120 698 120 797 162 c 0,32,33
 928 217 928 217 928 331 c 0,34,35
 928 392 928 392 864 435 c 0,36,37
 795 481 795 481 678 481 c 0,38,39
 639 481 639 481 582 471 c 0,40,41
 475 452 475 452 442.5 452 c 128,-1,42
 410 452 410 452 377.5 456 c 128,-1,43
 345 460 345 460 311 471 c 128,-1,44
 277 482 277 482 244 501.5 c 128,-1,45
 211 521 211 521 185 552 c 0,46,47
 127 621 127 621 127 732 c 0,48,49
 128 868 128 868 228 962 c 0,50,51
 354 1080 354 1080 596 1080 c 0,52,53
 778 1080 778 1080 950 1002 c 0,54,55
 1025 968 1025 968 1083 925 c 1,56,-1
 991 822 l 1,0,1
EndSplineSet
EndChar

StartChar: t2
Encoding: 285 3360 126
Width: 1292
GlyphClass: 2
Flags: W
AnchorPoint: "dotreph" 620 1300 basechar 0
LayerCount: 2
Fore
SplineSet
100 529 m 256,0,1
 100 755 100 755 260 917 c 0,2,3
 422 1080 422 1080 646 1080 c 128,-1,4
 870 1080 870 1080 1031 917 c 0,5,6
 1105 842 1105 842 1148.5 741.5 c 128,-1,7
 1192 641 1192 641 1192 547.5 c 128,-1,8
 1192 454 1192 454 1172.5 384.5 c 128,-1,9
 1153 315 1153 315 1117 254.5 c 128,-1,10
 1081 194 1081 194 1031 144 c 0,11,12
 980 94 980 94 920 58 c 0,13,14
 794 -17 794 -17 663.5 -17 c 128,-1,15
 533 -17 533 -17 434 26.5 c 0,16,17
 334 70 334 70 260 144 c 0,18,19
 100 303 100 303 100 529 c 256,0,1
238 529 m 256,20,21
 238 362 238 362 358 242 c 128,-1,22
 478 122 478 122 646 121 c 256,23,24
 813 121 813 121 933.5 241.5 c 128,-1,25
 1054 362 1054 362 1054 529 c 256,26,27
 1054 697 1054 697 933.5 819.5 c 128,-1,28
 813 942 813 942 646 942 c 256,29,30
 478 942 478 942 358 820 c 128,-1,31
 238 698 238 698 238 529 c 256,20,21
EndSplineSet
EndChar

StartChar: t3
Encoding: 286 3361 127
Width: 2398
GlyphClass: 2
Flags: W
AnchorPoint: "dotreph" 1200 1300 basechar 0
LayerCount: 2
Fore
SplineSet
1738 145 m 128,-1,1
 1780 121 1780 121 1834 121 c 128,-1,2
 1888 121 1888 121 1931 138.5 c 128,-1,3
 1974 156 1974 156 2010 186 c 128,-1,4
 2046 216 2046 216 2074 256.5 c 0,5,6
 2102 296 2102 296 2121 342 c 0,7,8
 2160 435 2160 435 2160 512 c 128,-1,9
 2160 589 2160 589 2149.5 638 c 0,10,11
 2138 687 2138 687 2122 728 c 0,12,13
 2096 794 2096 794 2041.5 857 c 128,-1,14
 1987 920 1987 920 1921 958 c 1,15,-1
 1988 1080 l 1,16,17
 2224 939 2224 939 2284 667 c 0,18,19
 2298 605 2298 605 2298 537.5 c 128,-1,20
 2298 470 2298 470 2283.5 405 c 128,-1,21
 2269 340 2269 340 2241.5 279 c 128,-1,22
 2214 218 2214 218 2174.5 164.5 c 0,23,24
 2136 110 2136 110 2084 70 c 0,25,26
 1973 -18 1973 -18 1838 -17 c 0,27,28
 1692 -17 1692 -17 1588 88 c 0,29,30
 1558 118 1558 118 1537 151 c 1,31,32
 1446 34 1446 34 1282 -4 c 0,33,34
 1224 -18 1224 -18 1148 -17.5 c 128,-1,35
 1072 -17 1072 -17 1000.5 17 c 0,36,37
 930 51 930 51 878 111 c 0,38,39
 770 237 770 237 769 435 c 2,40,-1
 769 666 l 2,41,42
 768 844 768 844 656 916 c 0,43,44
 616 942 616 942 554 942 c 128,-1,45
 492 942 492 942 434 909.5 c 128,-1,46
 376 877 376 877 332 821 c 0,47,48
 238 699 238 699 238 524 c 0,49,50
 238 331 238 331 369 200 c 0,51,52
 427 142 427 142 501 107 c 1,53,-1
 438 -17 l 1,54,55
 300 51 300 51 206 180 c 0,56,57
 100 327 100 327 100 524 c 0,58,59
 100 755 100 755 236 919 c 0,60,61
 370 1080 370 1080 557 1080 c 0,62,63
 736 1080 736 1080 830 942 c 0,64,65
 907 828 907 828 907 666 c 2,66,-1
 907 435 l 2,67,68
 907 298 907 298 977 210 c 0,69,70
 1047 121 1047 121 1157 121 c 0,71,72
 1297 121 1297 121 1387 190 c 0,73,74
 1467 252 1467 252 1467 321 c 2,75,-1
 1467 1062 l 1,76,-1
 1606 1062 l 1,77,-1
 1606 330 l 1,78,79
 1614 266 1614 266 1655 217.5 c 128,-1,0
 1696 169 1696 169 1738 145 c 128,-1,1
EndSplineSet
EndChar

StartChar: t4
Encoding: 287 3362 128
Width: 2491
GlyphClass: 2
Flags: W
AnchorPoint: "dotreph" 1200 1300 basechar 0
LayerCount: 2
Fore
SplineSet
2252 535 m 1,0,1
 2252 496 2252 496 2186 462 c 0,2,3
 2124 430 2124 430 2066 430 c 128,-1,4
 2008 430 2008 430 1956 454 c 128,-1,5
 1904 478 1904 478 1866 521 c 0,6,7
 1782 614 1782 614 1782 754 c 128,-1,8
 1782 894 1782 894 1866 988 c 0,9,10
 1949 1082 1949 1082 2067 1082 c 0,11,12
 2218 1082 2218 1082 2302 944 c 0,13,14
 2392 799 2392 799 2391 532 c 0,15,16
 2390 336 2390 336 2238 164 c 0,17,18
 2139 52 2139 52 2010 6 c 0,19,20
 1944 -18 1944 -18 1881 -17.5 c 128,-1,21
 1818 -17 1818 -17 1766.5 -3 c 0,22,23
 1715 10 1715 10 1671 34 c 0,24,25
 1580 82 1580 82 1537 151 c 1,26,27
 1446 34 1446 34 1282 -4 c 0,28,29
 1224 -18 1224 -18 1148 -17.5 c 128,-1,30
 1072 -17 1072 -17 1000.5 17 c 0,31,32
 930 51 930 51 878 111 c 0,33,34
 770 237 770 237 769 435 c 2,35,-1
 769 666 l 2,36,37
 768 844 768 844 656 916 c 0,38,39
 616 942 616 942 554 942 c 128,-1,40
 492 942 492 942 434 909.5 c 128,-1,41
 376 877 376 877 332 821 c 0,42,43
 238 699 238 699 238 524 c 0,44,45
 238 331 238 331 369 200 c 0,46,47
 427 142 427 142 501 107 c 1,48,-1
 438 -17 l 1,49,50
 300 51 300 51 206 180 c 0,51,52
 100 327 100 327 100 524 c 0,53,54
 100 755 100 755 236 919 c 0,55,56
 370 1080 370 1080 557 1080 c 0,57,58
 736 1080 736 1080 830 942 c 0,59,60
 907 828 907 828 907 666 c 2,61,-1
 907 435 l 2,62,63
 907 298 907 298 977 210 c 0,64,65
 1047 121 1047 121 1157 121 c 0,66,67
 1297 121 1297 121 1387 190 c 0,68,69
 1467 252 1467 252 1467 321 c 2,70,-1
 1467 1062 l 1,71,-1
 1606 1062 l 1,72,-1
 1606 330 l 1,73,74
 1612 273 1612 273 1684 203 c 0,75,76
 1767 121 1767 121 1873 121 c 0,77,78
 2018 120 2018 120 2137 258 c 0,79,80
 2252 392 2252 392 2252 535 c 1,0,1
1920 754 m 256,81,82
 1920 675 1920 675 1963 621 c 0,83,84
 2005 569 2005 569 2067 569 c 256,85,86
 2164 570 2164 570 2204 680 c 0,87,88
 2216 714 2216 714 2216 754 c 256,89,90
 2216 834 2216 834 2172 890 c 0,91,92
 2129 945 2129 945 2067 944 c 256,93,94
 2006 944 2006 944 1963 890 c 128,-1,95
 1920 836 1920 836 1920 754 c 256,81,82
EndSplineSet
EndChar

StartChar: nh
Encoding: 288 3363 129
Width: 2663
GlyphClass: 2
Flags: W
AnchorPoint: "dotreph" 1400 1300 basechar 0
LayerCount: 2
Fore
SplineSet
1741 923 m 1,0,1
 1855 1080 1855 1080 2089 1080 c 0,2,3
 2299 1080 2299 1080 2438 904 c 0,4,5
 2563 745 2563 745 2563 547 c 0,6,7
 2563 284 2563 284 2383 109 c 0,8,9
 2304 31 2304 31 2203 -17 c 1,10,-1
 2145 109 l 1,11,12
 2256 160 2256 160 2336 266 c 0,13,14
 2424 382 2424 382 2425 547 c 0,15,16
 2424 696 2424 696 2336 812 c 0,17,18
 2237 942 2237 942 2089 942 c 0,19,20
 1906 942 1906 942 1838 820 c 0,21,22
 1822 791 1822 791 1813 759 c 1,23,-1
 1813 0 l 1,24,-1
 1675 0 l 1,25,-1
 1675 763 l 2,26,27
 1675 780 1675 780 1660 810 c 0,28,29
 1644 840 1644 840 1612 868 c 0,30,31
 1532 939 1532 939 1402 939 c 0,32,33
 1231 939 1231 939 1154 815 c 0,34,35
 1133 781 1133 781 1126 753 c 1,36,-1
 1126 0 l 1,37,-1
 988 0 l 1,38,-1
 988 763 l 2,39,40
 988 824 988 824 920 878 c 0,41,42
 837 942 837 942 700 942 c 0,43,44
 539 942 539 942 415 839 c 0,45,46
 286 732 286 732 251 559 c 1,47,48
 336 642 336 642 436 642 c 0,49,50
 652 642 652 642 722 446 c 0,51,52
 746 378 746 378 746 303.5 c 128,-1,53
 746 229 746 229 719.5 170 c 0,54,55
 694 112 694 112 650 70 c 0,56,57
 560 -16 560 -16 436 -16 c 0,58,59
 258 -16 258 -16 170 148 c 0,60,61
 100 279 100 279 100 431.5 c 128,-1,62
 100 584 100 584 149 703 c 128,-1,63
 198 822 198 822 281 906 c 0,64,65
 453 1080 453 1080 697 1080 c 128,-1,66
 941 1080 941 1080 1062 924 c 1,67,68
 1182 1077 1182 1077 1400 1077 c 128,-1,69
 1618 1077 1618 1077 1741 923 c 1,0,1
258 294 m 1,70,71
 309 122 309 122 436 122 c 0,72,73
 504 122 504 122 554 170 c 0,74,75
 608 223 608 223 608 303 c 0,76,77
 608 429 608 429 522 483 c 0,78,79
 488 504 488 504 445 504 c 128,-1,80
 402 504 402 504 371 484 c 128,-1,81
 340 464 340 464 316 434 c 0,82,83
 265 368 265 368 258 294 c 1,70,71
EndSplineSet
EndChar

StartChar: th1
Encoding: 289 3364 130
Width: 1791
GlyphClass: 2
Flags: W
AnchorPoint: "dotreph" 890 1300 basechar 0
LayerCount: 2
Fore
SplineSet
760 917 m 1,0,1
 672 942 672 942 612 942 c 128,-1,2
 552 942 552 942 486.5 912.5 c 128,-1,3
 421 883 421 883 366 828 c 0,4,5
 238 700 238 700 238 518 c 0,6,7
 238 305 238 305 347 186 c 0,8,9
 395 132 395 132 457 106 c 1,10,-1
 399 -18 l 1,11,12
 168 87 168 87 112 373 c 0,13,14
 100 438 100 438 100 521 c 128,-1,15
 100 604 100 604 123 679.5 c 128,-1,16
 146 755 146 755 185 817.5 c 128,-1,17
 224 880 224 880 275 929 c 128,-1,18
 326 978 326 978 383 1012 c 0,19,20
 500 1080 500 1080 625.5 1080 c 128,-1,21
 751 1080 751 1080 897 1008 c 1,22,23
 1017 1065 1017 1065 1072.5 1072.5 c 128,-1,24
 1128 1080 1128 1080 1182.5 1080 c 128,-1,25
 1237 1080 1237 1080 1298.5 1060.5 c 128,-1,26
 1360 1041 1360 1041 1417.5 1005 c 128,-1,27
 1475 969 1475 969 1525 918.5 c 0,28,29
 1576 868 1576 868 1612 806 c 0,30,31
 1692 670 1692 670 1691 518 c 256,32,33
 1691 252 1691 252 1541 91 c 0,34,35
 1475 20 1475 20 1392 -18 c 1,36,-1
 1334 106 l 1,37,38
 1502 177 1502 177 1544 404 c 0,39,40
 1554 455 1554 455 1553.5 519 c 128,-1,41
 1553 583 1553 583 1536 639.5 c 128,-1,42
 1519 696 1519 696 1491 743.5 c 128,-1,43
 1463 791 1463 791 1425.5 827.5 c 128,-1,44
 1388 864 1388 864 1347 890 c 0,45,46
 1263 942 1263 942 1184 942 c 0,47,48
 1112 942 1112 942 1031 917 c 1,49,50
 1202 784 1202 784 1254 569 c 0,51,52
 1270 500 1270 500 1270.5 418.5 c 128,-1,53
 1271 337 1271 337 1236 256 c 128,-1,54
 1201 175 1201 175 1146 114 c 128,-1,55
 1091 53 1091 53 1024.5 17.5 c 128,-1,56
 958 -18 958 -18 901.5 -18 c 128,-1,57
 845 -18 845 -18 798 1.5 c 128,-1,58
 751 21 751 21 709 54 c 128,-1,59
 667 87 667 87 632.5 131 c 0,60,61
 598 174 598 174 573 224 c 0,62,63
 520 329 520 329 520 428 c 0,64,65
 520 724 520 724 760 917 c 1,0,1
1133 435 m 0,66,67
 1133 501 1133 501 1115 562.5 c 128,-1,68
 1097 624 1097 624 1066 676 c 0,69,70
 1011 767 1011 767 900 848 c 1,71,72
 731 742 731 742 677 564 c 0,73,74
 658 501 658 501 658 439.5 c 128,-1,75
 658 378 658 378 678.5 324 c 128,-1,76
 699 270 699 270 732 225 c 0,77,78
 808 122 808 122 895 122 c 0,79,80
 978 122 978 122 1054 216 c 0,81,82
 1134 314 1134 314 1133 435 c 0,66,67
EndSplineSet
EndChar

StartChar: th2
Encoding: 290 3365 131
Width: 1853
GlyphClass: 2
Flags: W
AnchorPoint: "dotreph" 890 1300 basechar 0
LayerCount: 2
Fore
SplineSet
1713 498 m 1,0,-1
 1712 332 l 1,1,-1
 1712 238 l 1,2,3
 1711 128 1711 128 1711 0 c 1,4,-1
 140 0 l 1,5,-1
 140 1062 l 1,6,-1
 278 1062 l 1,7,-1
 278 138 l 1,8,-1
 744 138 l 1,9,-1
 744 664 l 2,10,11
 744 838 744 838 866 956 c 0,12,13
 994 1080 994 1080 1199 1080 c 0,14,15
 1548 1080 1548 1080 1666 797 c 0,16,17
 1712 685 1712 685 1713 551 c 2,18,-1
 1713 498 l 1,0,-1
1574 138 m 1,19,-1
 1575 356 l 1,20,-1
 1575 551 l 2,21,22
 1575 810 1575 810 1379 906 c 0,23,24
 1307 942 1307 942 1216 942 c 128,-1,25
 1125 942 1125 942 1066.5 919.5 c 128,-1,26
 1008 897 1008 897 967 859 c 0,27,28
 882 780 882 780 882 664 c 2,29,-1
 882 138 l 1,30,-1
 1574 138 l 1,19,-1
EndSplineSet
EndChar

StartChar: th3
Encoding: 291 3366 132
Width: 1222
GlyphClass: 2
Flags: W
AnchorPoint: "dotreph" 650 1300 basechar 0
LayerCount: 2
Fore
SplineSet
311 41 m 1,0,-1
 184 -16 l 1,1,2
 100 180 100 180 100 448 c 0,3,4
 100 752 100 752 266 923 c 0,5,6
 418 1080 418 1080 668 1080 c 0,7,8
 878 1080 878 1080 984 979 c 0,9,10
 1065 902 1065 902 1065 792 c 0,11,12
 1065 637 1065 637 902 549 c 1,13,14
 1051 487 1051 487 1103 380 c 0,15,16
 1122 341 1122 341 1122 288.5 c 128,-1,17
 1122 236 1122 236 1103.5 190.5 c 128,-1,18
 1085 145 1085 145 1054.5 110.5 c 128,-1,19
 1024 76 1024 76 984.5 51.5 c 0,20,21
 946 27 946 27 904 12 c 0,22,23
 743 -46 743 -46 569 15 c 0,24,25
 529 29 529 29 497 47 c 1,26,-1
 580 158 l 1,27,28
 654 121 654 121 748 121 c 0,29,30
 894 122 894 122 959 208 c 0,31,32
 984 242 984 242 984 292.5 c 128,-1,33
 984 343 984 343 946.5 376 c 128,-1,34
 909 409 909 409 846 429 c 0,35,36
 726 467 726 467 525 467 c 1,37,-1
 525 605 l 1,38,39
 699 607 699 607 813 661 c 0,40,41
 926 714 926 714 926 792 c 0,42,43
 926 890 926 890 796 928 c 0,44,45
 746 942 746 942 662 942 c 128,-1,46
 578 942 578 942 499.5 911.5 c 0,47,48
 421 882 421 882 363 820 c 0,49,50
 238 687 238 687 238 447.5 c 128,-1,51
 238 208 238 208 311 41 c 1,0,-1
EndSplineSet
EndChar

StartChar: th4
Encoding: 292 3367 133
Width: 1770
GlyphClass: 2
Flags: W
AnchorPoint: "dotreph" 890 1300 basechar 0
LayerCount: 2
Fore
SplineSet
1194 -17 m 0,0,1
 1005 -17 1005 -17 886 135 c 1,2,3
 775 -17 775 -17 516 -17 c 0,4,5
 328 -17 328 -17 210 155 c 0,6,7
 100 315 100 315 100 543 c 0,8,9
 100 754 100 754 260 941 c 0,10,11
 330 1021 330 1021 420 1081 c 1,12,-1
 498 968 l 1,13,14
 297 840 297 840 249 640 c 0,15,16
 238 594 238 594 238 528 c 128,-1,17
 238 462 238 462 257 386 c 128,-1,18
 276 310 276 310 312 251 c 0,19,20
 391 121 391 121 516 121 c 0,21,22
 660 121 660 121 742 188 c 0,23,24
 810 244 810 244 811 321 c 2,25,-1
 811 1062 l 1,26,-1
 950 1062 l 1,27,-1
 950 321 l 2,28,29
 950 254 950 254 1018 190 c 0,30,31
 1092 121 1092 121 1194 121 c 0,32,33
 1355 121 1355 121 1450 260 c 0,34,35
 1532 380 1532 380 1532 529 c 0,36,37
 1532 721 1532 721 1402 862 c 0,38,39
 1345 922 1345 922 1273 959 c 1,40,-1
 1340 1081 l 1,41,42
 1592 948 1592 948 1656 668 c 0,43,44
 1670 604 1670 604 1670 537 c 128,-1,45
 1670 470 1670 470 1657.5 407 c 128,-1,46
 1645 344 1645 344 1619 283 c 128,-1,47
 1593 222 1593 222 1554 167.5 c 128,-1,48
 1515 113 1515 113 1462 72 c 0,49,50
 1347 -17 1347 -17 1194 -17 c 0,0,1
EndSplineSet
EndChar

StartChar: n1
Encoding: 293 3368 134
Width: 1770
GlyphClass: 2
Flags: W
AnchorPoint: "dotreph" 890 1300 basechar 0
LayerCount: 2
Fore
SplineSet
817 742 m 2,0,1
 818 809 818 809 756 870 c 0,2,3
 682 943 682 943 562 943 c 0,4,5
 422 943 422 943 328 812 c 0,6,7
 238 688 238 688 238 520 c 128,-1,8
 238 352 238 352 368 206 c 0,9,10
 425 143 425 143 498 96 c 1,11,-1
 420 -17 l 1,12,13
 174 145 174 145 114 398 c 0,14,15
 100 455 100 455 100 541.5 c 128,-1,16
 100 628 100 628 133.5 729.5 c 128,-1,17
 167 831 167 831 227 909 c 0,18,19
 359 1081 359 1081 550 1081 c 0,20,21
 730 1081 730 1081 828 988 c 0,22,23
 858 960 858 960 886 929 c 1,24,25
 968 1034 968 1034 1099 1069 c 0,26,27
 1144 1081 1144 1081 1209.5 1081 c 128,-1,28
 1275 1081 1275 1081 1342 1057 c 128,-1,29
 1409 1033 1409 1033 1462 992 c 128,-1,30
 1515 951 1515 951 1554 896 c 0,31,32
 1593 840 1593 840 1619 780 c 0,33,34
 1670 661 1670 661 1670 560 c 128,-1,35
 1670 459 1670 459 1655.5 396 c 128,-1,36
 1641 333 1641 333 1618 280 c 0,37,38
 1534 86 1534 86 1340 -17 c 1,39,-1
 1273 105 l 1,40,41
 1378 157 1378 157 1450 259 c 0,42,43
 1532 375 1532 375 1532 534 c 0,44,45
 1532 684 1532 684 1450 804 c 0,46,47
 1355 943 1355 943 1194 943 c 0,48,49
 1094 943 1094 943 1020 873 c 0,50,51
 954 811 954 811 955 742 c 2,52,-1
 955 1 l 1,53,-1
 817 1 l 1,54,-1
 817 742 l 2,0,1
EndSplineSet
EndChar

StartChar: p1
Encoding: 294 3370 135
Width: 1923
GlyphClass: 2
Flags: W
AnchorPoint: "dotreph" 1000 1300 basechar 0
LayerCount: 2
Fore
SplineSet
255 -17 m 1,0,1
 100 107 100 107 100 294 c 0,2,3
 100 461 100 461 219 580 c 128,-1,4
 338 699 338 699 505 699 c 256,5,6
 674 699 674 699 792 580 c 0,7,8
 910 460 910 460 910 294 c 0,9,10
 910 252 910 252 895.5 214 c 128,-1,11
 881 176 881 176 865 138 c 1,12,-1
 1645 138 l 1,13,-1
 1645 1062 l 1,14,-1
 1783 1062 l 1,15,-1
 1783 0 l 1,16,-1
 678 0 l 1,17,-1
 678 98 l 1,18,19
 772 221 772 221 772 285 c 128,-1,20
 772 349 772 349 751 397.5 c 128,-1,21
 730 446 730 446 694 482 c 0,22,23
 617 561 617 561 505 561 c 256,24,25
 395 561 395 561 316.5 482.5 c 128,-1,26
 238 404 238 404 238 287 c 128,-1,27
 238 170 238 170 341 91 c 1,28,-1
 255 -17 l 1,0,1
EndSplineSet
EndChar

StartChar: p2
Encoding: 295 3371 136
Width: 2361
GlyphClass: 2
Flags: W
AnchorPoint: "dotreph" 1000 1300 basechar 0
LayerCount: 2
Fore
SplineSet
1728 1085 m 0,0,1
 2015 1086 2015 1086 2134 920 c 0,2,3
 2193 839 2193 839 2207 756 c 128,-1,4
 2221 673 2221 673 2221 604 c 2,5,-1
 2221 0 l 1,6,-1
 692 0 l 1,7,-1
 692 121 l 1,8,9
 710 148 710 148 729 175 c 128,-1,10
 748 202 748 202 764 230 c 0,11,12
 800 295 800 295 800 347 c 128,-1,13
 800 399 800 399 778 445 c 0,14,15
 756 490 756 490 718 522 c 0,16,17
 639 586 639 586 519 587 c 256,18,19
 400 587 400 587 320 516 c 0,20,21
 238 443 238 443 238 328 c 0,22,23
 238 255 238 255 272 194.5 c 128,-1,24
 306 134 306 134 361 96 c 1,25,-1
 283 -17 l 1,26,27
 200 40 200 40 150 129.5 c 128,-1,28
 100 219 100 219 100 317 c 128,-1,29
 100 415 100 415 133 487.5 c 128,-1,30
 166 560 166 560 223 613 c 0,31,32
 343 725 343 725 519 725 c 256,33,34
 696 726 696 726 815 620 c 0,35,36
 938 511 938 511 938 341 c 0,37,38
 938 266 938 266 890 178 c 0,39,40
 878 156 878 156 871 138 c 1,41,-1
 1276 138 l 1,42,-1
 1276 656 l 2,43,44
 1276 835 1276 835 1400 957 c 0,45,46
 1530 1085 1530 1085 1728 1085 c 0,0,1
2083 581 m 2,47,48
 2083 947 2083 947 1728 947 c 0,49,50
 1590 946 1590 946 1500 860 c 0,51,52
 1415 778 1415 778 1415 656 c 2,53,-1
 1415 138 l 1,54,-1
 2083 138 l 1,55,-1
 2083 581 l 2,47,48
EndSplineSet
EndChar

StartChar: p3
Encoding: 296 3372 137
Width: 2567
GlyphClass: 2
Flags: W
AnchorPoint: "dotreph" 1060 1300 basechar 0
LayerCount: 2
Fore
SplineSet
1517 140 m 1,0,1
 1737 366 1737 366 1737 556 c 0,2,3
 1736 706 1736 706 1650 816 c 0,4,5
 1554 939 1554 939 1402 939 c 0,6,7
 1231 939 1231 939 1154 815 c 0,8,9
 1133 781 1133 781 1126 753 c 1,10,-1
 1126 0 l 1,11,-1
 988 0 l 1,12,-1
 988 763 l 2,13,14
 988 824 988 824 920 878 c 0,15,16
 837 942 837 942 700 942 c 0,17,18
 539 942 539 942 415 839 c 0,19,20
 286 732 286 732 251 559 c 1,21,22
 336 642 336 642 436 642 c 0,23,24
 652 642 652 642 722 446 c 0,25,26
 746 378 746 378 746 303.5 c 128,-1,27
 746 229 746 229 719.5 170 c 0,28,29
 694 112 694 112 650 70 c 0,30,31
 560 -16 560 -16 436 -16 c 0,32,33
 258 -16 258 -16 170 148 c 0,34,35
 100 279 100 279 100 431.5 c 128,-1,36
 100 584 100 584 149 703 c 128,-1,37
 198 822 198 822 281 906 c 0,38,39
 453 1080 453 1080 697 1080 c 128,-1,40
 941 1080 941 1080 1062 924 c 1,41,42
 1182 1077 1182 1077 1402 1077 c 0,43,44
 1621 1077 1621 1077 1754 911 c 0,45,46
 1875 760 1875 760 1875 556 c 0,47,48
 1875 433 1875 433 1788 270 c 0,49,50
 1749 200 1749 200 1701 138 c 1,51,-1
 2289 138 l 1,52,-1
 2289 1062 l 1,53,-1
 2427 1062 l 1,54,-1
 2427 0 l 1,55,-1
 1517 0 l 1,56,-1
 1517 140 l 1,0,1
258 294 m 1,57,58
 309 122 309 122 436 122 c 0,59,60
 504 122 504 122 554 170 c 0,61,62
 608 223 608 223 608 303 c 0,63,64
 608 429 608 429 522 483 c 0,65,66
 488 504 488 504 445 504 c 128,-1,67
 402 504 402 504 371 484 c 128,-1,68
 340 464 340 464 316 434 c 0,69,70
 265 368 265 368 258 294 c 1,57,58
EndSplineSet
EndChar

StartChar: p4
Encoding: 297 3373 138
Width: 1223
GlyphClass: 2
Flags: W
AnchorPoint: "dotreph" 650 1300 basechar 0
LayerCount: 2
Fore
SplineSet
368 504 m 0,0,1
 368 726 368 726 594 726 c 0,2,3
 631 726 631 726 665 717 c 128,-1,4
 699 708 699 708 733 703.5 c 128,-1,5
 767 699 767 699 794 689.5 c 128,-1,6
 821 680 821 680 843 680 c 128,-1,7
 865 680 865 680 888 685.5 c 0,8,9
 910 690 910 690 930 702 c 0,10,11
 976 729 976 729 976 775 c 0,12,13
 976 830 976 830 904 880 c 0,14,15
 813 942 813 942 648 942 c 0,16,17
 350 942 350 942 266 670 c 0,18,19
 238 580 238 580 238 470 c 0,20,21
 238 208 238 208 327 33 c 1,22,-1
 198 -17 l 1,23,24
 100 186 100 186 100 457 c 0,25,26
 100 922 100 922 417 1042 c 0,27,28
 519 1080 519 1080 628 1080 c 128,-1,29
 737 1080 737 1080 806.5 1064.5 c 128,-1,30
 876 1049 876 1049 928 1023.5 c 128,-1,31
 980 998 980 998 1015.5 965.5 c 0,32,33
 1051 934 1051 934 1073 900 c 0,34,35
 1114 838 1114 838 1114 772.5 c 128,-1,36
 1114 707 1114 707 1090.5 662.5 c 128,-1,37
 1067 618 1067 618 1029 591 c 0,38,39
 960 542 960 542 845 542 c 0,40,41
 807 542 807 542 778 551 c 128,-1,42
 749 560 749 560 715 565 c 256,43,44
 681 570 681 570 649 579 c 128,-1,45
 617 588 617 588 594 588 c 0,46,47
 506 588 506 588 506 504 c 0,48,49
 506 433 506 433 610 433 c 0,50,51
 635 433 635 433 660 440.5 c 128,-1,52
 685 448 685 448 705.5 449.5 c 128,-1,53
 726 451 726 451 742.5 453.5 c 0,54,55
 760 456 760 456 776 459 c 0,56,57
 820 467 820 467 857 467 c 128,-1,58
 894 467 894 467 945.5 457.5 c 0,59,60
 996 448 996 448 1036 422 c 0,61,62
 1122 365 1122 365 1123 231 c 0,63,64
 1123 -17 1123 -17 716 -17 c 0,65,66
 633 -17 633 -17 540.5 12 c 128,-1,67
 448 41 448 41 387 63 c 1,68,-1
 424 197 l 1,69,70
 627 121 627 121 716 121 c 0,71,72
 827 121 827 121 875 133 c 0,73,74
 985 160 985 160 985 231 c 0,75,76
 985 329 985 329 838 329 c 0,77,78
 811 329 811 329 780 321.5 c 128,-1,79
 749 314 749 314 721.5 312 c 128,-1,80
 694 310 694 310 664.5 302.5 c 128,-1,81
 635 295 635 295 597 295 c 128,-1,82
 559 295 559 295 515 304.5 c 128,-1,83
 471 314 471 314 438 338 c 0,84,85
 368 389 368 389 368 504 c 0,0,1
EndSplineSet
EndChar

StartChar: m1
Encoding: 298 3374 139
Width: 1347
GlyphClass: 2
Flags: W
AnchorPoint: "dotreph" 690 1300 basechar 0
LayerCount: 2
Fore
SplineSet
139 0 m 1,0,-1
 139 496 l 2,1,2
 139 766 139 766 253 910 c 0,3,4
 387 1080 387 1080 681 1080 c 0,5,6
 946 1080 946 1080 1084 910 c 0,7,8
 1208 757 1208 757 1208 496 c 2,9,-1
 1208 0 l 1,10,-1
 139 0 l 1,0,-1
556 929 m 1,11,12
 277 870 277 870 277 496 c 2,13,-1
 277 125 l 1,14,15
 713 426 713 426 713 698 c 0,16,17
 713 877 713 877 556 929 c 1,11,12
852 698 m 0,18,19
 852 425 852 425 503 125 c 1,20,-1
 1070 125 l 1,21,-1
 1070 496 l 2,22,23
 1070 760 1070 760 913 874 c 0,24,25
 859 914 859 914 784 931 c 1,26,27
 852 836 852 836 852 698 c 0,18,19
EndSplineSet
EndChar

StartChar: y1
Encoding: 299 3375 140
Width: 1925
GlyphClass: 2
Flags: W
AnchorPoint: "dotreph" 750 1300 basechar 0
LayerCount: 2
Fore
SplineSet
459 1080 m 0,0,1
 649 1080 649 1080 731 894 c 1,2,3
 822 1026 822 1026 970 1066 c 0,4,5
 1020 1080 1020 1080 1096.5 1080 c 128,-1,6
 1173 1080 1173 1080 1245 1038.5 c 0,7,8
 1318 996 1318 996 1364 928 c 0,9,10
 1454 795 1454 795 1454 595 c 0,11,12
 1454 396 1454 396 1327 228 c 0,13,14
 1283 170 1283 170 1222 121 c 1,15,-1
 1242 121 l 2,16,17
 1456 120 1456 120 1580 278 c 0,18,19
 1688 415 1688 415 1687 595 c 0,20,21
 1687 752 1687 752 1601 881 c 0,22,23
 1563 936 1563 936 1515 975 c 1,24,-1
 1604 1081 l 1,25,26
 1774 940 1774 940 1816 708 c 0,27,28
 1826 656 1826 656 1825.5 591.5 c 128,-1,29
 1825 527 1825 527 1809.5 455 c 128,-1,30
 1794 383 1794 383 1763 315 c 128,-1,31
 1732 247 1732 247 1684.5 187 c 0,32,33
 1637 128 1637 128 1572 82 c 0,34,35
 1431 -17 1431 -17 1242 -17 c 0,36,37
 1131 -17 1131 -17 1030 21 c 1,38,39
 912 -17 912 -17 783.5 -17 c 128,-1,40
 655 -17 655 -17 557 10.5 c 128,-1,41
 459 38 459 38 384 84.5 c 128,-1,42
 309 131 309 131 255 192.5 c 0,43,44
 200 254 200 254 166 322 c 0,45,46
 100 453 100 453 100 588 c 128,-1,47
 100 723 100 723 130.5 814.5 c 128,-1,48
 161 906 161 906 211 965 c 0,49,50
 308 1080 308 1080 459 1080 c 0,0,1
1075 942 m 0,51,52
 1014 942 1014 942 961.5 919 c 0,53,54
 910 896 910 896 870 852 c 0,55,56
 784 756 784 756 784 595 c 0,57,58
 784 393 784 393 928 248 c 0,59,60
 974 201 974 201 1034 170 c 1,61,62
 1175 232 1175 232 1250 360 c 0,63,64
 1316 472 1316 472 1316 595 c 0,65,66
 1316 737 1316 737 1257 833 c 0,67,68
 1190 942 1190 942 1075 942 c 0,51,52
602 142 m 0,69,70
 680 121 680 121 749.5 121 c 128,-1,71
 819 121 819 121 857 124 c 1,72,73
 704 260 704 260 660 466 c 0,74,75
 646 530 646 530 646 595 c 0,76,77
 646 762 646 762 597.5 852 c 128,-1,78
 549 942 549 942 459 942 c 0,79,80
 366 942 366 942 306 860 c 0,81,82
 238 767 238 767 238 595 c 0,83,84
 238 418 238 418 361 282 c 0,85,86
 452 182 452 182 602 142 c 0,69,70
EndSplineSet
EndChar

StartChar: r3
Encoding: 300 3376 141
Width: 1294
GlyphClass: 2
Flags: W
AnchorPoint: "dotreph" 620 1300 basechar 0
LayerCount: 2
Fore
SplineSet
790 912 m 1,0,1
 711 942 711 942 623.5 942 c 128,-1,2
 536 942 536 942 465.5 904.5 c 0,3,4
 394 866 394 866 344 802 c 0,5,6
 238 666 238 666 238 465 c 0,7,8
 238 302 238 302 352 183 c 0,9,10
 402 132 402 132 466 99 c 1,11,-1
 392 -18 l 1,12,13
 310 26 310 26 264.5 75 c 128,-1,14
 219 124 219 124 192.5 161.5 c 128,-1,15
 166 199 166 199 146 245 c 0,16,17
 100 347 100 347 100 470.5 c 128,-1,18
 100 594 100 594 138 706 c 128,-1,19
 176 818 176 818 245 901 c 0,20,21
 394 1080 394 1080 621 1080 c 0,22,23
 896 1080 896 1080 1052 898 c 0,24,25
 1194 734 1194 734 1194 479 c 0,26,27
 1194 261 1194 261 1106 128 c 0,28,29
 1010 -17 1010 -17 839 -17 c 0,30,31
 670 -18 670 -18 584 120 c 0,32,33
 516 229 516 229 516 359 c 128,-1,34
 516 489 516 489 544.5 573.5 c 128,-1,35
 573 658 573 658 615 724 c 0,36,37
 684 832 684 832 790 912 c 1,0,1
1042 339 m 128,-1,39
 1055 404 1055 404 1055 493 c 128,-1,40
 1055 582 1055 582 1018 674 c 128,-1,41
 981 766 981 766 915 831 c 1,42,43
 839 790 839 790 765 699 c 0,44,45
 654 562 654 562 654 384 c 0,46,47
 654 284 654 284 685.5 228 c 128,-1,48
 717 172 717 172 752.5 146.5 c 128,-1,49
 788 121 788 121 841 121 c 128,-1,50
 894 121 894 121 934.5 149 c 128,-1,51
 975 177 975 177 1002 225.5 c 128,-1,38
 1029 274 1029 274 1042 339 c 128,-1,39
EndSplineSet
EndChar

StartChar: rh
Encoding: 301 3377 142
Width: 1237
GlyphClass: 2
Flags: W
AnchorPoint: "dotreph" 630 1300 basechar 0
LayerCount: 2
Fore
SplineSet
440 -20 m 1,0,1
 178 126 178 126 114 403 c 0,2,3
 100 466 100 466 100 565.5 c 128,-1,4
 100 665 100 665 141.5 765 c 128,-1,5
 183 865 183 865 254 935 c 0,6,7
 401 1080 401 1080 621 1080 c 0,8,9
 855 1080 855 1080 1001 912 c 0,10,11
 1137 756 1137 756 1137 540 c 0,12,13
 1137 320 1137 320 965 126 c 0,14,15
 889 42 889 42 794 -20 c 1,16,-1
 725 99 l 1,17,18
 835 170 835 170 912 278 c 0,19,20
 999 400 999 400 999 540 c 0,21,22
 1000 700 1000 700 900 816 c 0,23,24
 792 941 792 941 621 942 c 0,25,26
 460 942 460 942 352 834 c 0,27,28
 238 720 238 720 238 540 c 0,29,30
 238 354 238 354 368 208 c 0,31,32
 425 146 425 146 499 105 c 1,33,-1
 440 -20 l 1,0,1
EndSplineSet
EndChar

StartChar: l3
Encoding: 302 3378 143
Width: 1758
GlyphClass: 2
Flags: W
AnchorPoint: "dotreph" 890 1300 basechar 0
LayerCount: 2
Fore
SplineSet
278 389 m 1,0,-1
 278 138 l 1,1,-1
 1480 138 l 1,2,-1
 1480 1062 l 1,3,-1
 1618 1062 l 1,4,-1
 1618 0 l 1,5,-1
 140 0 l 1,6,-1
 140 555 l 2,7,8
 140 711 140 711 248 873 c 0,9,10
 330 998 330 998 469 1052 c 0,11,12
 542 1080 542 1080 664 1080 c 128,-1,13
 786 1080 786 1080 884.5 1032 c 0,14,15
 984 984 984 984 1042 894 c 0,16,17
 1148 731 1148 731 1148 389 c 1,18,-1
 278 389 l 1,0,-1
278 527 m 1,19,-1
 1009 527 l 1,20,21
 998 736 998 736 918 833 c 0,22,23
 829 942 829 942 636 942 c 0,24,25
 406 942 406 942 310 704 c 0,26,27
 278 624 278 624 278 555 c 2,28,-1
 278 527 l 1,19,-1
EndSplineSet
EndChar

StartChar: lh
Encoding: 303 3379 144
Width: 1325
GlyphClass: 2
Flags: W
AnchorPoint: "dotreph" 660 1300 basechar 0
LayerCount: 2
Fore
SplineSet
1165 806 m 0,0,1
 1165 683 1165 683 1033 585 c 1,2,3
 1170 514 1170 514 1212 401 c 0,4,5
 1226 365 1226 365 1225.5 313.5 c 128,-1,6
 1225 262 1225 262 1197 202.5 c 128,-1,7
 1169 143 1169 143 1122 98 c 0,8,9
 1020 0 1020 0 887 0 c 2,10,-1
 307 0 l 2,11,12
 281 0 281 0 259.5 -24.5 c 128,-1,13
 238 -49 238 -49 238 -88.5 c 128,-1,14
 238 -128 238 -128 253 -151 c 128,-1,15
 268 -174 268 -174 291 -174 c 2,16,-1
 1215 -174 l 1,17,-1
 1215 -312 l 1,18,-1
 291 -312 l 2,19,20
 208 -312 208 -312 154 -251 c 0,21,22
 100 -189 100 -189 100 -111.5 c 128,-1,23
 100 -34 100 -34 118.5 9 c 128,-1,24
 137 52 137 52 166 80 c 0,25,26
 225 138 225 138 307 138 c 2,27,-1
 887 138 l 2,28,29
 966 138 966 138 1026 194 c 0,30,31
 1088 251 1088 251 1087 328 c 0,32,33
 1088 392 1088 392 1008 444 c 0,34,35
 926 498 926 498 806 502 c 1,36,-1
 794 502 l 1,37,-1
 794 640 l 1,38,39
 878 640 878 640 952 692 c 0,40,41
 1026 744 1026 744 1027 806 c 0,42,43
 1028 854 1028 854 940 894 c 0,44,45
 837 941 837 941 661 942 c 0,46,47
 477 942 477 942 357 826 c 1,48,49
 382 832 382 832 431 832 c 128,-1,50
 480 832 480 832 530 808.5 c 128,-1,51
 580 785 580 785 612 746 c 0,52,53
 675 669 675 669 675 555 c 0,54,55
 675 422 675 422 608 324 c 0,56,57
 534 216 534 216 410 216 c 0,58,59
 210 216 210 216 150 436 c 0,60,61
 128 518 128 518 127.5 619.5 c 128,-1,62
 127 721 127 721 170.5 804.5 c 128,-1,63
 214 888 214 888 288 950 c 0,64,65
 444 1080 444 1080 661 1080 c 0,66,67
 902 1080 902 1080 1044 986 c 0,68,69
 1106 946 1106 946 1135.5 897.5 c 128,-1,70
 1165 849 1165 849 1165 806 c 0,0,1
266 570 m 1,71,72
 285 355 285 355 410 355 c 0,73,74
 469 354 469 354 505 418 c 0,75,76
 537 475 537 475 537 528.5 c 128,-1,77
 537 582 537 582 529.5 607 c 128,-1,78
 522 632 522 632 506 652 c 0,79,80
 472 694 472 694 410 694 c 0,81,82
 320 694 320 694 266 570 c 1,71,72
EndSplineSet
EndChar

StartChar: zh
Encoding: 304 3380 145
Width: 1226
GlyphClass: 2
Flags: W
AnchorPoint: "dotreph" 600 1300 basechar 0
LayerCount: 2
Fore
SplineSet
608 230 m 0,0,1
 608 240 608 240 602 276 c 1,2,-1
 600 276 l 2,3,4
 398 276 398 276 251 398 c 0,5,6
 100 524 100 524 100 708 c 0,7,8
 100 870 100 870 176 991 c 0,9,10
 209 1045 209 1045 253 1080 c 1,11,-1
 341 971 l 1,12,13
 284 926 284 926 254 830 c 0,14,15
 238 780 238 780 238 714.5 c 128,-1,16
 238 649 238 649 263.5 598.5 c 128,-1,17
 289 548 289 548 332 510 c 0,18,19
 424 429 424 429 555 417 c 1,20,21
 551 424 551 424 544.5 445 c 128,-1,22
 538 466 538 466 524.5 500.5 c 0,23,24
 512 535 512 535 500 571 c 0,25,26
 472 657 472 657 472 722 c 128,-1,27
 472 787 472 787 489 850 c 128,-1,28
 506 913 506 913 542 964 c 0,29,30
 624 1080 624 1080 767 1080 c 0,31,32
 907 1080 907 1080 1011 982 c 0,33,34
 1126 874 1126 874 1126 708 c 0,35,36
 1126 583 1126 583 1018 462 c 0,37,38
 906 337 906 337 740 294 c 1,39,40
 746 246 746 246 746 230 c 0,41,42
 746 91 746 91 650 28 c 0,43,44
 581 -17 581 -17 468 -17 c 0,45,46
 350 -17 350 -17 250 67 c 0,47,48
 205 104 205 104 171 151 c 1,49,-1
 287 227 l 1,50,51
 361 121 361 121 468 121 c 0,52,53
 608 121 608 121 608 230 c 0,0,1
690 457 m 0,54,55
 696 442 696 442 702 426 c 1,56,57
 824 454 824 454 908 540 c 0,58,59
 988 621 988 621 988 708 c 0,60,61
 988 813 988 813 918 880 c 0,62,63
 853 942 853 942 767 942 c 0,64,65
 691 942 691 942 647 871 c 0,66,67
 610 811 610 811 610 723 c 128,-1,68
 610 635 610 635 690 457 c 0,54,55
EndSplineSet
EndChar

StartChar: v1
Encoding: 305 3381 146
Width: 1805
GlyphClass: 2
Flags: W
AnchorPoint: "dotreph" 1000 1300 basechar 0
LayerCount: 2
Fore
SplineSet
806 121 m 1,0,1
 1015 342 1015 342 1015 500 c 0,2,3
 1015 684 1015 684 904 810 c 0,4,5
 789 942 789 942 613 942 c 0,6,7
 454 942 454 942 350 828 c 0,8,9
 238 707 238 707 238 500 c 0,10,11
 238 307 238 307 362 188 c 0,12,13
 417 137 417 137 486 112 c 1,14,-1
 435 -17 l 1,15,16
 296 36 296 36 205 156 c 0,17,18
 100 294 100 294 100 500 c 0,19,20
 100 770 100 770 253 930 c 0,21,22
 395 1080 395 1080 613 1080 c 0,23,24
 852 1080 852 1080 1004 908 c 0,25,26
 1152 741 1152 741 1153 500 c 0,27,28
 1153 393 1153 393 1075 258 c 0,29,30
 1041 196 1041 196 997 138 c 1,31,-1
 1527 138 l 1,32,-1
 1527 1062 l 1,33,-1
 1665 1062 l 1,34,-1
 1665 0 l 1,35,-1
 807 0 l 1,36,37
 806 12 806 12 806 30 c 2,38,-1
 806 121 l 1,0,1
EndSplineSet
EndChar

StartChar: z1
Encoding: 306 3382 147
Width: 1893
GlyphClass: 2
Flags: W
AnchorPoint: "dotreph" 890 1300 basechar 0
LayerCount: 2
Fore
SplineSet
1375 905 m 1,0,1
 1284 942 1284 942 1203.5 942 c 128,-1,2
 1123 942 1123 942 1074 914.5 c 0,3,4
 1026 887 1026 887 990 844 c 0,5,6
 916 755 916 755 916 650 c 2,7,-1
 916 410 l 2,8,9
 916 279 916 279 836 151 c 0,10,11
 731 -17 731 -17 524 -17 c 0,12,13
 326 -16 326 -16 208 152 c 0,14,15
 100 306 100 306 100 529 c 0,16,17
 100 750 100 750 262 939 c 0,18,19
 333 1021 333 1021 425 1081 c 1,20,-1
 498 963 l 1,21,22
 296 830 296 830 249 628 c 0,23,24
 238 581 238 581 238 516 c 128,-1,25
 238 451 238 451 256 377.5 c 128,-1,26
 274 304 274 304 310 247 c 0,27,28
 390 121 390 121 524 121 c 0,29,30
 692 121 692 121 756 298 c 0,31,32
 778 358 778 358 778 410 c 2,33,-1
 778 650 l 2,34,35
 778 812 778 812 886 939 c 0,36,37
 1005 1080 1005 1080 1183 1080 c 0,38,39
 1379 1080 1379 1080 1528 980 c 0,40,41
 1656 894 1656 894 1728 748 c 0,42,43
 1792 616 1792 616 1792.5 499.5 c 128,-1,44
 1793 383 1793 383 1767 293 c 128,-1,45
 1741 203 1741 203 1694 134 c 0,46,47
 1591 -17 1591 -17 1436 -17 c 0,48,49
 1286 -18 1286 -18 1192 114 c 0,50,51
 1110 228 1110 228 1110 345.5 c 128,-1,52
 1110 463 1110 463 1136.5 548 c 0,53,54
 1162 633 1162 633 1202 701 c 0,55,56
 1268 814 1268 814 1375 905 c 1,0,1
1655 467 m 0,57,58
 1655 524 1655 524 1645.5 570 c 128,-1,59
 1636 616 1636 616 1616 661 c 0,60,61
 1574 759 1574 759 1499 828 c 1,62,63
 1342 713 1342 713 1276 532 c 0,64,65
 1248 455 1248 455 1248 390 c 128,-1,66
 1248 325 1248 325 1260 283 c 128,-1,67
 1272 241 1272 241 1296 205 c 0,68,69
 1351 121 1351 121 1436 121 c 0,70,71
 1530 122 1530 122 1594 230 c 0,72,73
 1655 334 1655 334 1655 467 c 0,57,58
EndSplineSet
EndChar

StartChar: sh
Encoding: 307 3383 148
Width: 2290
GlyphClass: 2
Flags: W
AnchorPoint: "dotreph" 1200 1300 basechar 0
LayerCount: 2
Fore
SplineSet
341 91 m 1,0,-1
 255 -17 l 1,1,2
 100 107 100 107 100 294 c 0,3,4
 100 461 100 461 219 580 c 128,-1,5
 338 699 338 699 505 699 c 256,6,7
 674 699 674 699 792 580 c 0,8,9
 910 460 910 460 910 294 c 256,10,11
 910 210 910 210 878 135 c 1,12,-1
 1332 135 l 1,13,-1
 1332 391 l 1,14,15
 1126 398 1126 398 1008 526 c 0,16,17
 908 636 908 636 908 784 c 0,18,19
 908 916 908 916 1008 1004 c 0,20,21
 1095 1080 1095 1080 1197 1080 c 0,22,23
 1312 1080 1312 1080 1388 1009 c 0,24,25
 1470 932 1470 932 1470 801 c 2,26,-1
 1470 551 l 1,27,28
 1732 645 1732 645 2057 1061 c 1,29,-1
 2150 1061 l 1,30,-1
 2150 0 l 1,31,-1
 678 0 l 1,32,-1
 678 98 l 1,33,34
 772 221 772 221 772 285 c 128,-1,35
 772 349 772 349 751 397.5 c 128,-1,36
 730 446 730 446 694 482 c 0,37,38
 617 561 617 561 505 561 c 256,39,40
 395 561 395 561 316.5 482.5 c 128,-1,41
 238 404 238 404 238 287 c 128,-1,42
 238 170 238 170 341 91 c 1,0,-1
2012 764 m 1,43,44
 1739 461 1739 461 1470 404 c 1,45,-1
 1470 135 l 1,46,-1
 2012 135 l 1,47,-1
 2012 764 l 1,43,44
1061 851.5 m 128,-1,49
 1046 822 1046 822 1046 782 c 128,-1,50
 1046 742 1046 742 1062.5 698 c 0,51,52
 1080 654 1080 654 1114 617 c 0,53,54
 1191 535 1191 535 1332 529 c 1,55,-1
 1332 801 l 2,56,57
 1332 902 1332 902 1248 933 c 0,58,59
 1224 942 1224 942 1199 942 c 128,-1,60
 1174 942 1174 942 1147.5 931.5 c 128,-1,61
 1121 921 1121 921 1098.5 901 c 128,-1,48
 1076 881 1076 881 1061 851.5 c 128,-1,49
EndSplineSet
EndChar

StartChar: s1
Encoding: 308 3384 149
Width: 2397
GlyphClass: 2
Flags: W
AnchorPoint: "dotreph" 890 1300 basechar 0
LayerCount: 2
Fore
SplineSet
872 915 m 1,0,1
 978 1080 978 1080 1173 1080 c 0,2,3
 1328 1080 1328 1080 1438 1004 c 0,4,5
 1528 942 1528 942 1576 834 c 0,6,7
 1616 745 1616 745 1617 655 c 2,8,-1
 1617 366 l 2,9,10
 1617 284 1617 284 1669 208 c 0,11,12
 1730 120 1730 120 1819 120.5 c 128,-1,13
 1908 121 1908 121 1970 153 c 128,-1,14
 2032 185 2032 185 2074 239 c 0,15,16
 2159 348 2159 348 2159 512 c 0,17,18
 2159 720 2159 720 2017 857 c 0,19,20
 1955 918 1955 918 1876 953 c 1,21,-1
 1934 1080 l 1,22,23
 2035 1031 2035 1031 2092 975 c 128,-1,24
 2149 919 2149 919 2182 875.5 c 0,25,26
 2214 832 2214 832 2240 778 c 0,27,28
 2296 657 2296 657 2296.5 532 c 128,-1,29
 2297 407 2297 407 2266.5 311.5 c 128,-1,30
 2236 216 2236 216 2176 143 c 0,31,32
 2046 -17 2046 -17 1828 -17 c 0,33,34
 1666 -17 1666 -17 1564 119 c 0,35,36
 1478 233 1478 233 1479 366 c 2,37,-1
 1479 655 l 2,38,39
 1479 756 1479 756 1413 838 c 0,40,41
 1328 942 1328 942 1173 942 c 0,42,43
 1030 942 1030 942 964 797 c 0,44,45
 943 752 943 752 938 715 c 1,46,-1
 938 0 l 1,47,-1
 800 0 l 1,48,-1
 800 724 l 2,49,50
 800 798 800 798 739 865 c 0,51,52
 669 942 669 942 565 942 c 0,53,54
 434 942 434 942 341 833 c 0,55,56
 238 712 238 712 238 512 c 0,57,58
 238 324 238 324 367 195 c 0,59,60
 423 140 423 140 496 107 c 1,61,-1
 436 -17 l 1,62,63
 178 106 178 106 114 376 c 0,64,65
 100 438 100 438 100 545.5 c 128,-1,66
 100 653 100 653 140.5 759.5 c 0,67,68
 180 866 180 866 246 938 c 0,69,70
 377 1080 377 1080 565 1080 c 0,71,72
 760 1080 760 1080 872 915 c 1,0,1
EndSplineSet
EndChar

StartChar: h1
Encoding: 309 3385 150
Width: 2366
GlyphClass: 2
Flags: W
AnchorPoint: "dotreph" 1000 1300 basechar 0
LayerCount: 2
Fore
SplineSet
255 -17 m 1,0,1
 100 107 100 107 100 294 c 0,2,3
 100 461 100 461 219 580 c 128,-1,4
 338 699 338 699 505 699 c 256,5,6
 674 699 674 699 792 580 c 0,7,8
 910 460 910 460 910 294 c 256,9,10
 910 210 910 210 878 135 c 1,11,-1
 1351 135 l 1,12,13
 1230 288 1230 288 1230 505 c 0,14,15
 1230 770 1230 770 1385 930 c 0,16,17
 1530 1080 1530 1080 1749 1080 c 0,18,19
 1904 1080 1904 1080 2030 994 c 0,20,21
 2141 918 2141 918 2205 792 c 0,22,23
 2266 674 2266 674 2266 557 c 0,24,25
 2266 337 2266 337 2098 136 c 0,26,27
 2024 49 2024 49 1931 -17 c 1,28,-1
 1860 101 l 1,29,30
 2066 246 2066 246 2116 456 c 0,31,32
 2128 504 2128 504 2128 551 c 128,-1,33
 2128 598 2128 598 2116.5 642.5 c 128,-1,34
 2105 687 2105 687 2083 729.5 c 128,-1,35
 2061 772 2061 772 2028.5 811 c 128,-1,36
 1996 850 1996 850 1954 879 c 0,37,38
 1863 942 1863 942 1767.5 942 c 128,-1,39
 1672 942 1672 942 1603 912.5 c 128,-1,40
 1534 883 1534 883 1482 827 c 0,41,42
 1368 704 1368 704 1368 505 c 0,43,44
 1368 320 1368 320 1482 190 c 0,45,46
 1532 135 1532 135 1596 101 c 1,47,-1
 1575 0 l 1,48,-1
 678 0 l 1,49,-1
 678 98 l 1,50,51
 772 221 772 221 772 285 c 128,-1,52
 772 349 772 349 751 397.5 c 128,-1,53
 730 446 730 446 694 482 c 0,54,55
 617 561 617 561 505 561 c 256,56,57
 395 561 395 561 316.5 482.5 c 128,-1,58
 238 404 238 404 238 287 c 128,-1,59
 238 170 238 170 341 91 c 1,60,-1
 255 -17 l 1,0,1
EndSplineSet
EndChar

StartChar: avagraha
Encoding: 310 3389 151
Width: 770
GlyphClass: 2
Flags: W
LayerCount: 2
Fore
SplineSet
213 486 m 2,0,1
 213 505 213 505 232 510 c 2,2,-1
 728 636 l 2,3,4
 740 639 740 639 749.5 631.5 c 128,-1,5
 759 624 759 624 759 612 c 2,6,-1
 759 500 l 2,7,8
 759 481 759 481 740 476 c 2,9,-1
 244 348 l 2,10,11
 232 345 232 345 222.5 352.5 c 128,-1,12
 213 360 213 360 213 372 c 2,13,-1
 213 486 l 2,0,1
200 -113 m 0,14,15
 259 -113 259 -113 275 -165 c 1,16,-1
 278 -154 l 1,17,18
 305 -72 305 -72 317 -3.5 c 128,-1,19
 329 65 329 65 337 128 c 1,20,-1
 455 842 l 1,21,22
 496 1102 496 1102 583 1206 c 0,23,24
 626 1257 626 1257 679 1257 c 128,-1,25
 732 1257 732 1257 768 1223.5 c 128,-1,26
 804 1190 804 1190 803 1130 c 0,27,28
 803 1025 803 1025 724 1027 c 0,29,30
 673 1028 673 1028 659 1073 c 1,31,32
 616 917 616 917 609 791 c 1,33,-1
 539 326 l 2,34,35
 500 72 500 72 456 -73 c 0,36,37
 371 -349 371 -349 234 -349 c 0,38,39
 185 -349 185 -349 154 -320 c 128,-1,40
 123 -291 123 -291 123 -239 c 0,41,42
 123 -175 123 -175 145 -144 c 128,-1,43
 167 -113 167 -113 200 -113 c 0,14,15
EndSplineSet
EndChar

StartChar: a2
Encoding: 311 3390 152
Width: 779
GlyphClass: 2
Flags: W
LayerCount: 2
Fore
SplineSet
27 970 m 1,0,1
 144 1080 144 1080 243.5 1080 c 128,-1,2
 343 1080 343 1080 410 1054 c 128,-1,3
 477 1028 477 1028 526 985 c 128,-1,4
 575 942 575 942 608.5 886 c 128,-1,5
 642 830 642 830 662 770 c 0,6,7
 699 659 699 659 699 553.5 c 128,-1,8
 699 448 699 448 678.5 370.5 c 128,-1,9
 658 293 658 293 623 231 c 128,-1,10
 588 169 588 169 542.5 123 c 0,11,12
 497 76 497 76 448 46 c 0,13,14
 349 -16 349 -16 274 -15 c 0,15,16
 111 -15 111 -15 25 92 c 1,17,-1
 131 180 l 1,18,19
 168 123 168 123 256 123 c 0,20,21
 362 123 362 123 453 226 c 0,22,23
 561 348 561 348 561 542 c 0,24,25
 561 686 561 686 499 798 c 0,26,27
 419 942 419 942 255 942 c 0,28,29
 201 942 201 942 128 876 c 1,30,-1
 27 970 l 1,0,1
EndSplineSet
EndChar

StartChar: i1
Encoding: 312 3391 153
Width: 438
GlyphClass: 2
Flags: W
LayerCount: 2
Fore
SplineSet
-466 1190 m 1,0,1
 -466 1355 -466 1355 -354 1473 c 0,2,3
 -242 1591 -242 1591 -84 1591 c 256,4,5
 74 1591 74 1591 186 1473 c 0,6,7
 298 1355 298 1355 298 1190 c 2,8,-1
 298 0 l 1,9,-1
 160 0 l 1,10,-1
 160 1190 l 2,11,12
 160 1300 160 1300 89 1376 c 0,13,14
 17 1454 17 1454 -84 1453 c 256,15,16
 -185 1454 -185 1454 -257 1376 c 0,17,18
 -328 1300 -328 1300 -328 1190 c 1,19,-1
 -466 1190 l 1,0,1
-466 1190 m 1,20,21
 -466 1355 -466 1355 -354 1473 c 0,22,23
 -242 1591 -242 1591 -84 1591 c 256,24,25
 74 1591 74 1591 186 1473 c 0,26,27
 298 1355 298 1355 298 1190 c 2,28,-1
 298 0 l 1,29,-1
 160 0 l 1,30,-1
 160 1190 l 2,31,32
 160 1300 160 1300 89 1376 c 0,33,34
 17 1454 17 1454 -84 1453 c 256,35,36
 -185 1454 -185 1454 -257 1376 c 0,37,38
 -328 1300 -328 1300 -328 1190 c 1,39,-1
 -466 1190 l 1,20,21
EndSplineSet
EndChar

StartChar: i2
Encoding: 313 3392 154
Width: 438
GlyphClass: 2
Flags: W
LayerCount: 2
Fore
SplineSet
38 1418 m 1,0,1
 52 1378 52 1378 52 1340 c 128,-1,2
 52 1302 52 1302 35 1259.5 c 0,3,4
 18 1218 18 1218 -14 1182 c 0,5,6
 -86 1100 -86 1100 -188 1100 c 0,7,8
 -292 1100 -292 1100 -360 1164 c 128,-1,9
 -428 1228 -428 1228 -429 1329 c 0,10,11
 -429 1438 -429 1438 -326 1516 c 0,12,13
 -226 1592 -226 1592 -86 1592 c 0,14,15
 70 1592 70 1592 184 1474 c 128,-1,16
 298 1356 298 1356 298 1192 c 2,17,-1
 298 0 l 1,18,-1
 160 0 l 1,19,-1
 160 1192 l 2,20,21
 160 1264 160 1264 126 1323.5 c 128,-1,22
 92 1383 92 1383 38 1418 c 1,0,1
-93 1306 m 128,-1,24
 -86 1324 -86 1324 -86 1343.5 c 128,-1,25
 -86 1363 -86 1363 -91.5 1380 c 0,26,27
 -97 1396 -97 1396 -106 1410 c 0,28,29
 -122 1434 -122 1434 -146 1449 c 1,30,31
 -245 1430 -245 1430 -280 1370 c 0,32,33
 -291 1351 -291 1351 -291 1319.5 c 128,-1,34
 -291 1288 -291 1288 -262 1263 c 128,-1,35
 -233 1238 -233 1238 -199 1238 c 128,-1,36
 -165 1238 -165 1238 -146 1248 c 128,-1,37
 -127 1258 -127 1258 -113.5 1273 c 128,-1,23
 -100 1288 -100 1288 -93 1306 c 128,-1,24
EndSplineSet
EndChar

StartChar: u1
Encoding: 314 3393 155
Width: 674
GlyphClass: 2
Flags: W
LayerCount: 2
Fore
SplineSet
447 890.5 m 128,-1,1
 534 754 534 754 534 524.5 c 128,-1,2
 534 295 534 295 399 -5 c 1,3,4
 494 -36 494 -36 553 -114 c 0,5,6
 614 -195 614 -195 614 -277.5 c 128,-1,7
 614 -360 614 -360 590 -416 c 128,-1,8
 566 -472 566 -472 524 -514 c 0,9,10
 434 -604 434 -604 307 -604 c 256,11,12
 180 -604 180 -604 90 -514 c 128,-1,13
 0 -424 0 -424 0 -297 c 0,14,15
 0 -185 0 -185 72 -100 c 0,16,17
 144 -15 144 -15 251 3 c 1,18,19
 334 154 334 154 378 360 c 0,20,21
 396 446 396 446 396 532 c 0,22,23
 396 701 396 701 333.5 804 c 128,-1,24
 271 907 271 907 133 946 c 1,25,-1
 170 1080 l 1,26,0
 360 1027 360 1027 447 890.5 c 128,-1,1
138 -297 m 256,27,28
 138 -366 138 -366 188 -416 c 128,-1,29
 238 -466 238 -466 307 -466 c 256,30,31
 376 -466 376 -466 426 -416 c 128,-1,32
 476 -366 476 -366 476 -297 c 256,33,34
 476 -228 476 -228 426 -178 c 128,-1,35
 376 -128 376 -128 307 -128 c 256,36,37
 238 -128 238 -128 188 -178 c 128,-1,38
 138 -228 138 -228 138 -297 c 256,27,28
EndSplineSet
EndChar

StartChar: u2
Encoding: 315 3394 156
Width: 753
GlyphClass: 2
Flags: W
LayerCount: 2
Fore
SplineSet
631 -388 m 1,0,1
 598 -453 598 -453 534 -487.5 c 128,-1,2
 470 -522 470 -522 411 -522 c 128,-1,3
 352 -522 352 -522 315.5 -511.5 c 128,-1,4
 279 -501 279 -501 248 -487 c 0,5,6
 188 -460 188 -460 150 -386 c 1,7,8
 156 -480 156 -480 226 -546 c 0,9,10
 296 -612 296 -612 391 -611 c 256,11,12
 486 -611 486 -611 556 -546 c 0,13,14
 626 -482 626 -482 631 -388 c 1,0,1
269 -211 m 128,-1,16
 259 -235 259 -235 259 -262.5 c 128,-1,17
 259 -290 259 -290 269 -314 c 128,-1,18
 279 -338 279 -338 297 -350 c 0,19,20
 345 -384 345 -384 391 -384 c 256,21,22
 437 -384 437 -384 470 -361 c 0,23,24
 523 -324 523 -324 523 -262 c 0,25,26
 523 -201 523 -201 485 -174 c 0,27,28
 438 -140 438 -140 391 -140 c 256,29,30
 344 -140 344 -140 311.5 -163.5 c 128,-1,15
 279 -187 279 -187 269 -211 c 128,-1,16
12 -374 m 0,31,32
 12 -300 12 -300 37 -236 c 128,-1,33
 62 -172 62 -172 106 -122 c 0,34,35
 200 -15 200 -15 337 3 c 1,36,37
 480 301 480 301 480 532 c 0,38,39
 480 701 480 701 417.5 804 c 128,-1,40
 355 907 355 907 217 946 c 1,41,-1
 254 1080 l 1,42,43
 444 1027 444 1027 531 890.5 c 128,-1,44
 618 754 618 754 618 532 c 0,45,46
 618 277 618 277 485 -3 c 1,47,48
 609 -36 609 -36 689 -138 c 0,49,50
 770 -241 770 -241 770 -371 c 0,51,52
 770 -528 770 -528 658 -638 c 0,53,54
 546 -749 546 -749 391 -749 c 256,55,56
 236 -749 236 -749 124 -638 c 0,57,58
 12 -527 12 -527 12 -374 c 0,31,32
EndSplineSet
EndChar

StartChar: r1
Encoding: 316 3395 157
Width: 674
GlyphClass: 2
Flags: W
LayerCount: 2
Fore
SplineSet
533 -427 m 1,0,1
 641 -357 641 -357 641 -223 c 0,2,3
 641 -151 641 -151 612 -97 c 0,4,5
 575 -29 575 -29 525.5 36.5 c 128,-1,6
 476 102 476 102 443 148.5 c 128,-1,7
 410 195 410 195 379 249.5 c 128,-1,8
 348 304 348 304 320 368.5 c 128,-1,9
 292 433 292 433 271 511 c 0,10,11
 226 678 226 678 226 891 c 0,12,13
 226 967 226 967 249 1069 c 1,14,-1
 385 1039 l 1,15,16
 364 952 364 952 364 845 c 128,-1,17
 364 738 364 738 387.5 623.5 c 128,-1,18
 411 509 411 509 448 421 c 0,19,20
 498 302 498 302 618 143 c 0,21,22
 703 29 703 29 729 -21 c 0,23,24
 779 -121 779 -121 779 -216 c 128,-1,25
 779 -311 779 -311 747.5 -383 c 128,-1,26
 716 -455 716 -455 660 -506 c 0,27,28
 541 -613 541 -613 359 -613 c 0,29,30
 175 -613 175 -613 81 -526 c 0,31,32
 0 -451 0 -451 0 -321 c 0,33,34
 0 -178 0 -178 87 -96 c 0,35,36
 163 -24 163 -24 278 -25 c 0,37,38
 472 -25 472 -25 530 -195 c 0,39,40
 548 -250 548 -250 548 -300 c 0,41,42
 548 -378 548 -378 533 -427 c 1,0,1
324 -474 m 1,43,44
 410 -437 410 -437 410 -321 c 0,45,46
 410 -245 410 -245 374.5 -204 c 128,-1,47
 339 -163 339 -163 278 -163 c 0,48,49
 222 -163 222 -163 193 -192 c 0,50,51
 138 -245 138 -245 138 -321 c 0,52,53
 138 -418 138 -418 239 -456 c 0,54,55
 274 -470 274 -470 324 -474 c 1,43,44
EndSplineSet
EndChar

StartChar: e1
Encoding: 317 3398 158
Width: 1266
GlyphClass: 2
Flags: W
LayerCount: 2
Fore
SplineSet
231 572 m 1,0,1
 313 642 313 642 410 642 c 0,2,3
 612 642 612 642 694 438 c 0,4,5
 722 369 722 369 721.5 309.5 c 128,-1,6
 721 250 721 250 705.5 202 c 128,-1,7
 690 154 690 154 664.5 117.5 c 128,-1,8
 639 81 639 81 606 55.5 c 0,9,10
 572 30 572 30 538 14 c 0,11,12
 471 -17 471 -17 396.5 -17 c 128,-1,13
 322 -17 322 -17 259.5 20 c 128,-1,14
 197 57 197 57 157 119 c 0,15,16
 80 238 80 238 80 432 c 0,17,18
 80 744 80 744 258 921 c 0,19,20
 419 1080 419 1080 644 1080 c 0,21,22
 839 1080 839 1080 974 962 c 0,23,24
 1080 870 1080 870 1140 720 c 0,25,26
 1186 607 1186 607 1186 534 c 128,-1,27
 1186 461 1186 461 1174.5 401.5 c 128,-1,28
 1163 342 1163 342 1144 291 c 0,29,30
 1074 104 1074 104 918 -17 c 1,31,-1
 833 92 l 1,32,33
 996 214 996 214 1038 426 c 0,34,35
 1048 474 1048 474 1048 511.5 c 128,-1,36
 1048 549 1048 549 1040 587.5 c 128,-1,37
 1032 626 1032 626 1014 672 c 128,-1,38
 996 718 996 718 965.5 766 c 128,-1,39
 935 814 935 814 890 853 c 0,40,41
 787 942 787 942 644 942 c 0,42,43
 500 942 500 942 389 851 c 0,44,45
 267 751 267 751 231 572 c 1,0,1
493.5 481.5 m 128,-1,47
 460 504 460 504 413 504 c 128,-1,48
 366 504 366 504 332.5 482.5 c 0,49,50
 298 460 298 460 276 430 c 0,51,52
 233 372 233 372 228 313 c 1,53,54
 254 175 254 175 342 135 c 0,55,56
 372 121 372 121 402 121 c 128,-1,57
 432 121 432 121 462 130.5 c 128,-1,58
 492 140 492 140 519 162 c 0,59,60
 583 215 583 215 583 311 c 0,61,62
 583 371 583 371 555 415 c 128,-1,46
 527 459 527 459 493.5 481.5 c 128,-1,47
EndSplineSet
EndChar

StartChar: e2
Encoding: 318 3399 159
Width: 1110
GlyphClass: 2
Flags: W
LayerCount: 2
Fore
SplineSet
565 809 m 0,0,1
 565 874 565 874 605 942 c 1,2,3
 458 938 458 938 344 829 c 0,4,5
 218 709 218 709 218 531 c 256,6,7
 218 350 218 350 344 232 c 0,8,9
 460 123 460 123 605 121 c 1,10,11
 565 189 565 189 565 254 c 128,-1,12
 565 319 565 319 586 359.5 c 0,13,14
 606 400 606 400 640 430 c 0,15,16
 711 494 711 494 803 494 c 0,17,18
 900 494 900 494 962 440 c 0,19,20
 1030 381 1030 381 1030 272 c 0,21,22
 1030 158 1030 158 934 78 c 0,23,24
 820 -17 820 -17 615 -17 c 0,25,26
 416 -18 416 -18 254 126 c 0,27,28
 146 222 146 222 102 370 c 0,29,30
 80 444 80 444 80 531 c 256,31,32
 80 696 80 696 164 828 c 0,33,34
 238 946 238 946 366 1015 c 0,35,36
 487 1080 487 1080 606.5 1080 c 128,-1,37
 726 1080 726 1080 805 1053.5 c 0,38,39
 884 1028 884 1028 934 986 c 0,40,41
 1030 906 1030 906 1030 791 c 0,42,43
 1030 682 1030 682 962 623 c 0,44,45
 899 569 899 569 803 569 c 0,46,47
 712 569 712 569 640 633 c 0,48,49
 564 701 564 701 565 809 c 0,0,1
711.5 305 m 128,-1,51
 703 290 703 290 703 263.5 c 128,-1,52
 703 237 703 237 713 213 c 0,53,54
 724 189 724 189 736 174 c 0,55,56
 756 150 756 150 774 144 c 1,57,58
 836 167 836 167 864 202 c 128,-1,59
 892 237 892 237 892 276 c 128,-1,60
 892 315 892 315 865 335.5 c 128,-1,61
 838 356 838 356 811.5 356 c 128,-1,62
 785 356 785 356 767 349.5 c 128,-1,63
 749 343 749 343 734.5 331.5 c 128,-1,50
 720 320 720 320 711.5 305 c 128,-1,51
884.5 753.5 m 128,-1,65
 892 769 892 769 892 797.5 c 128,-1,66
 892 826 892 826 864 861 c 128,-1,67
 836 896 836 896 774 917 c 1,68,69
 736 904 736 904 713 850 c 0,70,71
 703 826 703 826 703 799.5 c 128,-1,72
 703 773 703 773 711.5 758 c 0,73,74
 720 744 720 744 734 732 c 0,75,76
 765 708 765 708 792.5 707.5 c 128,-1,77
 820 707 820 707 836 712 c 128,-1,78
 852 717 852 717 864.5 727.5 c 128,-1,64
 877 738 877 738 884.5 753.5 c 128,-1,65
EndSplineSet
EndChar

StartChar: ai1
Encoding: 319 3400 160
Width: 2544
GlyphClass: 2
Flags: W
LayerCount: 2
Fore
SplineSet
231 572 m 1,0,1
 313 642 313 642 410 642 c 0,2,3
 612 642 612 642 694 438 c 0,4,5
 722 369 722 369 721.5 309.5 c 128,-1,6
 721 250 721 250 705.5 202 c 128,-1,7
 690 154 690 154 664.5 117.5 c 128,-1,8
 639 81 639 81 606 55.5 c 0,9,10
 572 30 572 30 538 14 c 0,11,12
 471 -17 471 -17 396.5 -17 c 128,-1,13
 322 -17 322 -17 259.5 20 c 128,-1,14
 197 57 197 57 157 119 c 0,15,16
 80 238 80 238 80 432 c 0,17,18
 80 744 80 744 258 921 c 0,19,20
 419 1080 419 1080 644 1080 c 0,21,22
 839 1080 839 1080 974 962 c 0,23,24
 1080 870 1080 870 1140 720 c 0,25,26
 1186 607 1186 607 1186 534 c 128,-1,27
 1186 461 1186 461 1174.5 401.5 c 128,-1,28
 1163 342 1163 342 1144 290 c 0,29,30
 1074 100 1074 100 918 -20 c 1,31,-1
 833 89 l 1,32,33
 998 218 998 218 1038 426 c 0,34,35
 1048 474 1048 474 1048 511.5 c 128,-1,36
 1048 549 1048 549 1040 587.5 c 128,-1,37
 1032 626 1032 626 1014 672 c 128,-1,38
 996 718 996 718 965.5 766 c 128,-1,39
 935 814 935 814 890 853 c 0,40,41
 787 942 787 942 644 942 c 0,42,43
 500 942 500 942 389 851 c 0,44,45
 267 751 267 751 231 572 c 1,0,1
493.5 481.5 m 128,-1,47
 460 504 460 504 413 504 c 128,-1,48
 366 504 366 504 332.5 482.5 c 0,49,50
 298 460 298 460 276 430 c 0,51,52
 233 372 233 372 228 313 c 1,53,54
 254 175 254 175 342 135 c 0,55,56
 372 121 372 121 402 121 c 128,-1,57
 432 121 432 121 462 130.5 c 128,-1,58
 492 140 492 140 519 162 c 0,59,60
 583 215 583 215 583 311 c 0,61,62
 583 371 583 371 555 415 c 128,-1,46
 527 459 527 459 493.5 481.5 c 128,-1,47
1508 572 m 1,63,64
 1590 642 1590 642 1688 642 c 0,65,66
 1890 642 1890 642 1972 438 c 0,67,68
 2000 369 2000 369 1999.5 309.5 c 128,-1,69
 1999 250 1999 250 1983.5 202 c 128,-1,70
 1968 154 1968 154 1942.5 117.5 c 128,-1,71
 1917 81 1917 81 1884 55.5 c 0,72,73
 1850 30 1850 30 1816 14 c 0,74,75
 1749 -17 1749 -17 1674.5 -17 c 128,-1,76
 1600 -17 1600 -17 1537 20 c 128,-1,77
 1474 57 1474 57 1434 119 c 0,78,79
 1357 238 1357 238 1357 432 c 0,80,81
 1358 744 1358 744 1536 921 c 0,82,83
 1696 1080 1696 1080 1921 1080 c 0,84,85
 2116 1080 2116 1080 2251 962 c 0,86,87
 2358 868 2358 868 2418 720 c 0,88,89
 2464 607 2464 607 2464 534 c 128,-1,90
 2464 461 2464 461 2452.5 401.5 c 128,-1,91
 2441 342 2441 342 2422 290 c 0,92,93
 2352 101 2352 101 2195 -20 c 1,94,-1
 2110 89 l 1,95,96
 2276 218 2276 218 2316 426 c 0,97,98
 2326 474 2326 474 2325.5 511.5 c 128,-1,99
 2325 549 2325 549 2317 587.5 c 128,-1,100
 2309 626 2309 626 2291 672 c 128,-1,101
 2273 718 2273 718 2242.5 766 c 128,-1,102
 2212 814 2212 814 2167 853 c 0,103,104
 2064 942 2064 942 1921 942 c 0,105,106
 1776 942 1776 942 1666 851 c 0,107,108
 1544 749 1544 749 1508 572 c 1,63,64
1506 313 m 1,109,110
 1543 121 1543 121 1688 121 c 0,111,112
 1748 121 1748 121 1785 153 c 0,113,114
 1860 216 1860 216 1860 311 c 0,115,116
 1860 371 1860 371 1832 415 c 0,117,118
 1775 504 1775 504 1688 504 c 0,119,120
 1608 504 1608 504 1554 430 c 0,121,122
 1510 372 1510 372 1506 313 c 1,109,110
EndSplineSet
EndChar

StartChar: o1
Encoding: 320 3402 161
Width: 2310
GlyphClass: 2
Flags: W
LayerCount: 2
Fore
SplineSet
2285 190 m 2,0,1
 2285 876 l 2,2,3
 2285 991 2285 991 2204 1071 c 128,-1,4
 2123 1151 2123 1151 2008 1151 c 2,5,-1
 464 1151 l 2,6,7
 350 1151 350 1151 269.5 1070.5 c 128,-1,8
 189 990 189 990 189 876 c 2,9,-1
 189 190 l 2,10,11
 189 77 189 77 269 -4 c 128,-1,12
 349 -85 349 -85 464 -85 c 2,13,-1
 2008 -85 l 2,14,15
 2124 -85 2124 -85 2204.5 -4.5 c 128,-1,16
 2285 76 2285 76 2285 190 c 2,0,1
2151.5 54.5 m 128,-1,18
 2056 -41 2056 -41 1922 -41 c 2,19,-1
 550 -41 l 2,20,21
 415 -41 415 -41 320 54 c 1,22,23
 227 149 227 149 227 282 c 2,24,-1
 227 788 l 2,25,26
 227 925 227 925 320 1020 c 1,27,28
 415 1115 415 1115 550 1115 c 2,29,-1
 1922 1115 l 2,30,31
 2056 1115 2056 1115 2151.5 1019.5 c 128,-1,32
 2247 924 2247 924 2247 788 c 2,33,-1
 2247 282 l 2,34,17
 2247 150 2247 150 2151.5 54.5 c 128,-1,18
1818 161 m 0,35,36
 2067 161 2067 161 2067 524 c 0,37,38
 2067 706 2067 706 1998.5 785.5 c 128,-1,39
 1930 865 1930 865 1806.5 865 c 128,-1,40
 1683 865 1683 865 1639 808 c 128,-1,41
 1595 751 1595 751 1593 635 c 1,42,-1
 1608 635 l 1,43,44
 1625 785 1625 785 1706 821 c 0,45,46
 1742 837 1742 837 1796 837 c 0,47,48
 1971 837 1971 837 1971 526 c 0,49,50
 1971 301 1971 301 1882 243 c 256,51,52
 1836 213 1836 213 1774 213 c 256,53,54
 1657 213 1657 213 1627 297 c 1,55,56
 1617 321 1617 321 1609 365 c 1,57,-1
 1593 365 l 1,58,59
 1596 263 1596 263 1647.5 212 c 128,-1,60
 1699 161 1699 161 1818 161 c 0,35,36
1467 471 m 1,61,-1
 1467 505 l 1,62,-1
 1341 505 l 1,63,-1
 1341 471 l 1,64,-1
 1467 471 l 1,61,-1
1221 510 m 0,65,66
 1221 665 1221 665 1091.5 765 c 128,-1,67
 962 865 962 865 795 865 c 128,-1,68
 628 865 628 865 509.5 740 c 128,-1,69
 391 615 391 615 391 442 c 0,70,71
 391 319 391 319 455.5 240 c 128,-1,72
 520 161 520 161 624 161 c 128,-1,73
 728 161 728 161 781 210 c 0,74,75
 833 259 833 259 833 343.5 c 128,-1,76
 833 428 833 428 772 492.5 c 128,-1,77
 711 557 711 557 632 557 c 0,78,79
 529 557 529 557 452 450 c 0,80,81
 444 439 444 439 432 439 c 0,82,83
 419 439 419 439 409.5 452 c 128,-1,84
 400 465 400 465 401 475 c 0,85,86
 420 622 420 622 520 724 c 1,87,88
 621 825 621 825 767.5 825 c 128,-1,89
 914 825 914 825 1014.5 724.5 c 128,-1,90
 1115 624 1115 624 1115 484 c 0,91,92
 1115 295 1115 295 964 169 c 1,93,-1
 1004 152 l 1,94,95
 1221 319 1221 319 1221 510 c 0,65,66
714 479.5 m 128,-1,97
 759 430 759 430 759 363.5 c 128,-1,98
 759 297 759 297 710.5 251 c 128,-1,99
 662 205 662 205 596 205 c 128,-1,100
 530 205 530 205 481.5 255 c 128,-1,101
 433 305 433 305 433 372 c 128,-1,102
 433 439 433 439 483 484 c 128,-1,103
 533 529 533 529 601 529 c 128,-1,96
 669 529 669 529 714 479.5 c 128,-1,97
EndSplineSet
EndChar

StartChar: o2
Encoding: 321 3403 162
Width: 2126
GlyphClass: 2
Flags: W
LayerCount: 2
Fore
SplineSet
2103 190 m 2,0,1
 2103 876 l 2,2,3
 2103 990 2103 990 2022.5 1070.5 c 128,-1,4
 1942 1151 1942 1151 1828 1151 c 2,5,-1
 464 1151 l 2,6,7
 350 1151 350 1151 269.5 1070.5 c 128,-1,8
 189 990 189 990 189 876 c 2,9,-1
 189 190 l 2,10,11
 189 77 189 77 269 -4 c 128,-1,12
 349 -85 349 -85 464 -85 c 2,13,-1
 1828 -85 l 2,14,15
 1943 -85 1943 -85 2023 -4 c 128,-1,16
 2103 77 2103 77 2103 190 c 2,0,1
2081 258 m 2,17,18
 2081 125 2081 125 1985 30 c 128,-1,19
 1889 -65 1889 -65 1754 -65 c 2,20,-1
 558 -65 l 2,21,22
 424 -65 424 -65 328.5 30.5 c 128,-1,23
 233 126 233 126 233 258 c 2,24,-1
 233 788 l 2,25,26
 233 924 233 924 328.5 1019.5 c 128,-1,27
 424 1115 424 1115 558 1115 c 2,28,-1
 1754 1115 l 2,29,30
 1889 1115 1889 1115 1985 1020 c 128,-1,31
 2081 925 2081 925 2081 788 c 2,32,-1
 2081 258 l 2,17,18
1616 157 m 0,33,34
 1863 157 1863 157 1863 522 c 0,35,36
 1863 705 1863 705 1795 785 c 128,-1,37
 1727 865 1727 865 1602.5 865 c 128,-1,38
 1478 865 1478 865 1436 807.5 c 128,-1,39
 1394 750 1394 750 1391 633 c 1,40,-1
 1404 633 l 1,41,42
 1416 708 1416 708 1438 755 c 128,-1,43
 1460 802 1460 802 1497 817.5 c 128,-1,44
 1534 833 1534 833 1590 833 c 0,45,46
 1767 833 1767 833 1767 524 c 0,47,48
 1768 366 1768 366 1724 291 c 0,49,50
 1706 259 1706 259 1664 236 c 256,51,52
 1623 213 1623 213 1573.5 213 c 0,53,54
 1524 214 1524 214 1494 224 c 0,55,56
 1447 241 1447 241 1418 315 c 1,57,58
 1412 334 1412 334 1405 365 c 1,59,-1
 1391 365 l 1,60,61
 1396 259 1396 259 1445.5 208 c 128,-1,62
 1495 157 1495 157 1616 157 c 0,33,34
1265 471 m 1,63,-1
 1265 503 l 1,64,-1
 1137 503 l 1,65,-1
 1137 471 l 1,66,-1
 1265 471 l 1,63,-1
548 779 m 128,-1,68
 611 861 611 861 711 861 c 128,-1,69
 811 861 811 861 811 825 c 0,70,71
 811 812 811 812 801 804 c 0,72,73
 755 770 755 770 755 702 c 0,74,75
 755 575 755 575 898 575 c 0,76,77
 952 575 952 575 982.5 602 c 128,-1,78
 1013 629 1013 629 1013 693 c 0,79,80
 1013 756 1013 756 968 796 c 0,81,82
 888 866 888 866 732 866.5 c 128,-1,83
 576 867 576 867 486.5 775 c 128,-1,84
 397 683 397 683 397 519 c 128,-1,85
 397 355 397 355 483.5 260 c 128,-1,86
 570 165 570 165 734 165 c 0,87,88
 840 165 840 165 926.5 208 c 128,-1,89
 1013 251 1013 251 1013 336 c 0,90,91
 1013 386 1013 386 980 416.5 c 128,-1,92
 947 447 947 447 892.5 447 c 128,-1,93
 838 447 838 447 796.5 417 c 128,-1,94
 755 387 755 387 755 321.5 c 128,-1,95
 755 256 755 256 800 227 c 0,96,97
 812 219 812 219 811 204 c 128,-1,98
 810 189 810 189 786.5 179 c 128,-1,99
 763 169 763 169 724 169 c 0,100,101
 485 169 485 169 485 522 c 0,102,67
 485 697 485 697 548 779 c 128,-1,68
975 609.5 m 0,103,104
 948 581 948 581 904 581 c 0,105,106
 804 581 804 581 803 702 c 0,107,108
 803 738 803 738 822 778 c 128,-1,109
 841 818 841 818 873 834 c 0,110,111
 880 838 880 838 888 837 c 0,112,113
 1003 816 1003 816 1003 694 c 0,114,115
 1003 638 1003 638 975 609.5 c 0,103,104
1003 340 m 0,116,117
 1003 221 1003 221 890 194 c 0,118,119
 880 191 880 191 872 196 c 0,120,121
 803 235 803 235 803 330 c 0,122,123
 803 385 803 385 828 414 c 128,-1,124
 853 443 853 443 897 443 c 128,-1,125
 941 443 941 443 972 413 c 128,-1,126
 1003 383 1003 383 1003 340 c 0,116,117
EndSplineSet
EndChar

StartChar: au1
Encoding: 322 3404 163
Width: 1546
GlyphClass: 2
Flags: W
LayerCount: 2
Fore
SplineSet
480 166 m 1,0,1
 591 245 591 245 591 251 c 1,2,3
 661 181 661 181 786 141 c 0,4,5
 849 121 849 121 933 121 c 128,-1,6
 1017 121 1017 121 1085.5 145.5 c 128,-1,7
 1154 170 1154 170 1204 221 c 0,8,9
 1308 329 1308 329 1308 533 c 0,10,11
 1308 712 1308 712 1232 828 c 0,12,13
 1156 942 1156 942 1030 942 c 0,14,15
 892 942 892 942 844 826 c 0,16,17
 829 790 829 790 820 748 c 1,18,-1
 820 478 l 1,19,-1
 676 478 l 1,20,-1
 676 742 l 2,21,22
 676 792 676 792 642 842 c 0,23,24
 573 941 573 941 485 942 c 0,25,26
 358 942 358 942 302 856 c 0,27,28
 238 757 238 757 238 512 c 1,29,-1
 100 512 l 1,30,31
 100 834 100 834 200 964 c 0,32,33
 289 1080 289 1080 485 1080 c 0,34,35
 644 1080 644 1080 749 917 c 1,36,37
 814 1002 814 1002 854 1030 c 0,38,39
 929 1080 929 1080 1025 1080 c 128,-1,40
 1121 1080 1121 1080 1197 1039.5 c 0,41,42
 1272 998 1272 998 1328 926 c 0,43,44
 1446 773 1446 773 1446 533 c 0,45,46
 1446 266 1446 266 1300 120 c 0,47,48
 1162 -18 1162 -18 934 -17 c 0,49,50
 752 -17 752 -17 597 74 c 0,51,52
 529 114 529 114 480 166 c 1,0,1
EndSplineSet
EndChar

StartChar: xx
Encoding: 323 3405 164
Width: 2
GlyphClass: 4
Flags: W
LayerCount: 2
Fore
SplineSet
-138 1493 m 1,0,1
 -162 1452 -162 1452 -162 1411.5 c 128,-1,2
 -162 1371 -162 1371 -149 1341 c 128,-1,3
 -136 1311 -136 1311 -114 1289 c 0,4,5
 -66 1241 -66 1241 2 1241 c 256,6,7
 68 1241 68 1241 118 1289 c 0,8,9
 166 1336 166 1336 166.5 1394 c 128,-1,10
 167 1452 167 1452 145 1488 c 1,11,-1
 262 1560 l 1,12,13
 305 1489 305 1489 305 1415.5 c 128,-1,14
 305 1342 305 1342 281 1287 c 128,-1,15
 257 1232 257 1232 216 1191 c 0,16,17
 128 1103 128 1103 2 1103 c 256,18,19
 -124 1103 -124 1103 -212 1191 c 128,-1,20
 -300 1279 -300 1279 -300 1405 c 0,21,22
 -300 1491 -300 1491 -256 1564 c 1,23,-1
 -138 1493 l 1,0,1
EndSplineSet
EndChar

StartChar: au2
Encoding: 324 3415 165
Width: 1546
GlyphClass: 2
Flags: W
LayerCount: 2
Fore
SplineSet
480 166 m 1,0,1
 591 245 591 245 591 251 c 1,2,3
 661 181 661 181 786 141 c 0,4,5
 849 121 849 121 933 121 c 128,-1,6
 1017 121 1017 121 1085.5 145.5 c 128,-1,7
 1154 170 1154 170 1204 221 c 0,8,9
 1308 329 1308 329 1308 533 c 0,10,11
 1308 712 1308 712 1232 828 c 0,12,13
 1156 942 1156 942 1030 942 c 0,14,15
 892 942 892 942 844 826 c 0,16,17
 829 790 829 790 820 748 c 1,18,-1
 820 478 l 1,19,-1
 676 478 l 1,20,-1
 676 742 l 2,21,22
 676 792 676 792 642 842 c 0,23,24
 573 941 573 941 485 942 c 0,25,26
 358 942 358 942 302 856 c 0,27,28
 238 757 238 757 238 512 c 1,29,-1
 100 512 l 1,30,31
 100 834 100 834 200 964 c 0,32,33
 289 1080 289 1080 485 1080 c 0,34,35
 644 1080 644 1080 749 917 c 1,36,37
 814 1002 814 1002 854 1030 c 0,38,39
 929 1080 929 1080 1025 1080 c 128,-1,40
 1121 1080 1121 1080 1197 1039.5 c 0,41,42
 1272 998 1272 998 1328 926 c 0,43,44
 1446 773 1446 773 1446 533 c 0,45,46
 1446 266 1446 266 1300 120 c 0,47,48
 1162 -18 1162 -18 934 -17 c 0,49,50
 752 -17 752 -17 597 74 c 0,51,52
 529 114 529 114 480 166 c 1,0,1
EndSplineSet
EndChar

StartChar: ml_rr
Encoding: 325 3424 166
Width: 1875
GlyphClass: 2
Flags: W
LayerCount: 2
Fore
SplineSet
1502 899.5 m 128,-1,1
 1439 942 1439 942 1375 942 c 128,-1,2
 1311 942 1311 942 1278 920 c 128,-1,3
 1245 898 1245 898 1226 866 c 0,4,5
 1192 808 1192 808 1192 743 c 128,-1,6
 1192 678 1192 678 1206.5 635.5 c 128,-1,7
 1221 593 1221 593 1246 563 c 0,8,9
 1298 501 1298 501 1361.5 501 c 128,-1,10
 1425 501 1425 501 1467 528.5 c 128,-1,11
 1509 556 1509 556 1538 597 c 0,12,13
 1595 678 1595 678 1600 775 c 1,14,0
 1565 857 1565 857 1502 899.5 c 128,-1,1
492 497 m 0,15,16
 544 497 544 497 579 521 c 0,17,18
 614 546 614 546 636 580 c 0,19,20
 680 647 680 647 680 712 c 128,-1,21
 680 777 680 777 667.5 817.5 c 128,-1,22
 655 858 655 858 632 886 c 0,23,24
 586 942 586 942 508 942 c 128,-1,25
 430 942 430 942 372 897.5 c 128,-1,26
 314 853 314 853 280 779 c 1,27,28
 282 682 282 682 334 597 c 0,29,30
 396 497 396 497 492 497 c 0,15,16
849 -16 m 1,31,32
 362 -30 362 -30 264 -168 c 0,33,34
 238 -204 238 -204 238 -259.5 c 128,-1,35
 238 -315 238 -315 273 -362.5 c 128,-1,36
 308 -410 308 -410 365.5 -443.5 c 128,-1,37
 423 -477 423 -477 497.5 -498 c 0,38,39
 572 -518 572 -518 652 -530 c 0,40,41
 794 -550 794 -550 906.5 -550.5 c 128,-1,42
 1019 -551 1019 -551 1095 -545 c 128,-1,43
 1171 -539 1171 -539 1246.5 -525 c 128,-1,44
 1322 -511 1322 -511 1392 -488 c 128,-1,45
 1462 -465 1462 -465 1516 -431 c 0,46,47
 1634 -357 1634 -357 1634 -242 c 0,48,49
 1634 -53 1634 -53 1160 -21 c 0,50,51
 1086 -16 1086 -16 1016 -16 c 2,52,-1
 849 -16 l 1,31,32
1632 496 m 1,53,54
 1524 363 1524 363 1370 363 c 0,55,56
 1242 363 1242 363 1150 463 c 0,57,58
 1054 568 1054 568 1054 731 c 0,59,60
 1054 856 1054 856 1115 952 c 0,61,62
 1195 1080 1195 1080 1362 1080 c 0,63,64
 1542 1080 1542 1080 1655 950 c 0,65,66
 1775 812 1775 812 1775 575 c 0,67,68
 1776 292 1776 292 1612 151 c 0,69,70
 1550 98 1550 98 1457 61 c 1,71,72
 1773 -32 1773 -32 1773 -242 c 0,73,74
 1773 -406 1773 -406 1631 -514 c 0,75,76
 1402 -688 1402 -688 953 -689 c 0,77,78
 636 -688 636 -688 408 -610 c 0,79,80
 220 -545 220 -545 141 -413 c 0,81,82
 100 -344 100 -344 100 -265 c 128,-1,83
 100 -186 100 -186 123 -136 c 128,-1,84
 146 -86 146 -86 187 -48 c 0,85,86
 261 22 261 22 406 66 c 1,87,88
 101 197 101 197 101 582 c 0,89,90
 100 794 100 794 212 934 c 0,91,92
 327 1080 327 1080 506 1080 c 0,93,94
 649 1080 649 1080 732 987 c 0,95,96
 818 891 818 891 818 723 c 0,97,98
 818 602 818 602 743 492 c 0,99,100
 652 359 652 359 492 359 c 0,101,102
 345 359 345 359 246 485 c 1,103,104
 277 303 277 303 449 209 c 0,105,106
 609 122 609 122 854 122 c 2,107,-1
 1016 122 l 2,108,109
 1322 122 1322 122 1478 232 c 0,110,111
 1610 324 1610 324 1632 496 c 1,53,54
1228 -64 m 0,112,113
 1184 -64 1184 -64 1145 -81 c 128,-1,114
 1106 -98 1106 -98 1077 -128 c 0,115,116
 1014 -192 1014 -192 1014 -279 c 256,117,118
 1014 -368 1014 -368 1077 -431 c 128,-1,119
 1140 -494 1140 -494 1228 -494 c 0,120,121
 1317 -494 1317 -494 1380 -431 c 128,-1,122
 1443 -368 1443 -368 1443 -279 c 256,123,124
 1443 -192 1443 -192 1380 -128 c 128,-1,125
 1317 -64 1317 -64 1228 -64 c 0,112,113
1174.5 -225 m 128,-1,127
 1197 -203 1197 -203 1228.5 -203 c 128,-1,128
 1260 -203 1260 -203 1282.5 -225 c 128,-1,129
 1305 -247 1305 -247 1305 -279 c 256,130,131
 1305 -311 1305 -311 1282.5 -333.5 c 128,-1,132
 1260 -356 1260 -356 1228.5 -356 c 128,-1,133
 1197 -356 1197 -356 1174.5 -333.5 c 128,-1,134
 1152 -311 1152 -311 1152 -279 c 256,135,126
 1152 -247 1152 -247 1174.5 -225 c 128,-1,127
647 -64 m 256,136,137
 558 -64 558 -64 496 -128 c 0,138,139
 433 -192 433 -192 433 -279 c 256,140,141
 433 -368 433 -368 496 -431 c 128,-1,142
 559 -494 559 -494 647 -494 c 256,143,144
 734 -494 734 -494 798 -431 c 0,145,146
 862 -369 862 -369 862 -279 c 256,147,148
 862 -191 862 -191 798.5 -127.5 c 128,-1,149
 735 -64 735 -64 647 -64 c 256,136,137
647 -203 m 256,150,151
 679 -203 679 -203 701.5 -225 c 128,-1,152
 724 -247 724 -247 724 -279 c 256,153,154
 724 -311 724 -311 701.5 -333.5 c 128,-1,155
 679 -356 679 -356 647 -356 c 256,156,157
 615 -356 615 -356 593 -333.5 c 128,-1,158
 571 -311 571 -311 571 -279 c 256,159,160
 571 -247 571 -247 593 -225 c 128,-1,161
 615 -203 615 -203 647 -203 c 256,150,151
EndSplineSet
EndChar

StartChar: ml_ll
Encoding: 326 3425 167
Width: 2437
GlyphClass: 2
Flags: W
LayerCount: 2
Fore
SplineSet
1058 906 m 1,0,1
 1174 1026 1174 1026 1338 1064 c 0,2,3
 1395 1078 1395 1078 1471 1078 c 128,-1,4
 1547 1078 1547 1078 1626.5 1058.5 c 0,5,6
 1706 1038 1706 1038 1770 996 c 0,7,8
 1907 906 1907 906 1955 721 c 1,9,10
 2156 704 2156 704 2254 562 c 0,11,12
 2336 441 2336 441 2337 246 c 0,13,14
 2337 -92 2337 -92 2086 -247 c 0,15,16
 1976 -316 1976 -316 1836 -334 c 1,17,-1
 1825 -196 l 1,18,19
 1978 -174 1978 -174 2080 -74 c 0,20,21
 2198 41 2198 41 2199 246 c 0,22,23
 2199 444 2199 444 2082 532 c 0,24,25
 2040 564 2040 564 1978 577 c 1,26,27
 1981 536 1981 536 1981 459.5 c 128,-1,28
 1981 383 1981 383 1964 301.5 c 128,-1,29
 1947 220 1947 220 1919 163.5 c 128,-1,30
 1891 107 1891 107 1856 71.5 c 0,31,32
 1822 36 1822 36 1786 16 c 0,33,34
 1686 -39 1686 -39 1578 -1 c 0,35,36
 1474 34 1474 34 1421 156 c 0,37,38
 1393 220 1393 220 1393 299.5 c 128,-1,39
 1393 379 1393 379 1409.5 445.5 c 128,-1,40
 1426 512 1426 512 1472 569 c 0,41,42
 1574 697 1574 697 1807 719 c 1,43,44
 1721 943 1721 943 1453 943 c 256,45,46
 1340 943 1340 943 1241 887 c 0,47,48
 1156 839 1156 839 1115 770 c 1,49,50
 1120 742 1120 742 1120 719 c 2,51,-1
 1120 0 l 1,52,-1
 982 0 l 1,53,-1
 982 719 l 2,54,55
 982 801 982 801 912 866 c 0,56,57
 829 943 829 943 692 943 c 0,58,59
 639 943 639 943 585 927 c 1,60,61
 829 707 829 707 829 417 c 0,62,63
 830 210 830 210 712 89 c 0,64,65
 609 -17 609 -17 465 -17 c 0,66,67
 298 -17 298 -17 193 136 c 0,68,69
 100 271 100 271 100 432 c 0,70,71
 100 712 100 712 284 900 c 0,72,73
 461 1082 461 1082 698.5 1081.5 c 128,-1,74
 936 1081 936 1081 1058 906 c 1,0,1
691 422 m 0,75,76
 691 504 691 504 665 576 c 0,77,78
 640 648 640 648 602 704 c 0,79,80
 539 797 539 797 449 861 c 1,81,82
 300 754 300 754 254 566 c 0,83,84
 238 502 238 502 238 442 c 128,-1,85
 238 382 238 382 252 327 c 128,-1,86
 266 272 266 272 294 226 c 0,87,88
 359 121 359 121 465 121 c 0,89,90
 555 120 555 120 618 192 c 0,91,92
 691 276 691 276 691 422 c 0,75,76
1843 472 m 128,-1,94
 1843 532 1843 532 1838 582 c 1,95,96
 1665 569 1665 569 1589 484 c 0,97,98
 1531 419 1531 419 1531 317 c 0,99,100
 1531 214 1531 214 1578 162 c 0,101,102
 1614 122 1614 122 1661 121 c 0,103,104
 1721 122 1721 122 1772 186 c 0,105,106
 1814 239 1814 239 1828.5 325.5 c 128,-1,93
 1843 412 1843 412 1843 472 c 128,-1,94
EndSplineSet
EndChar

StartChar: ml_0
Encoding: 327 3430 168
Width: 1139
GlyphClass: 2
Flags: W
LayerCount: 2
Fore
SplineSet
702 920 m 4,0,1
 645 942 645 942 553 942 c 132,-1,2
 461 942 461 942 391.5 902 c 132,-1,3
 322 862 322 862 282 800 c 4,4,5
 208 688 208 688 208 529 c 4,6,7
 208 374 208 374 283 257 c 4,8,9
 376 113 376 113 567 113 c 4,10,11
 754 112 754 112 848 270 c 4,12,13
 920 390 920 390 919 529 c 4,14,15
 919 836 919 836 702 920 c 4,0,1
394.5 1055 m 132,-1,17
 469 1080 469 1080 572.5 1080 c 132,-1,18
 676 1080 676 1080 755 1051 c 132,-1,19
 834 1022 834 1022 888.5 974.5 c 132,-1,20
 943 927 943 927 976 867 c 132,-1,21
 1009 807 1009 807 1027 746 c 4,22,23
 1057 644 1057 644 1057 564 c 132,-1,24
 1057 484 1057 484 1047.5 425.5 c 132,-1,25
 1038 367 1038 367 1015.5 305.5 c 132,-1,26
 993 244 993 244 956.5 184.5 c 4,27,28
 920 124 920 124 866 78 c 4,29,30
 745 -26 745 -26 567 -25 c 4,31,32
 388 -26 388 -26 266 68 c 4,33,34
 115 183 115 183 80 409 c 4,35,36
 70 472 70 472 70 529.5 c 132,-1,37
 70 587 70 587 79.5 650 c 132,-1,38
 89 713 89 713 112 774.5 c 132,-1,39
 135 836 135 836 172 891.5 c 132,-1,40
 209 947 209 947 264.5 988.5 c 132,-1,16
 320 1030 320 1030 394.5 1055 c 132,-1,17
EndSplineSet
EndChar

StartChar: ml_1
Encoding: 328 3431 169
Width: 1616
GlyphClass: 2
Flags: W
LayerCount: 2
Fore
SplineSet
100 -100 m 256,0,1
 100 -12 100 -12 150 56 c 0,2,3
 210 138 210 138 316 138 c 2,4,-1
 576 138 l 1,5,-1
 576 680 l 2,6,7
 576 828 576 828 695 944 c 0,8,9
 833 1078 833 1078 1058 1078 c 0,10,11
 1285 1078 1285 1078 1410 924 c 0,12,13
 1516 794 1516 794 1516 615 c 2,14,-1
 1516 0 l 1,15,-1
 316 0 l 2,16,17
 260 0 260 0 242 -68 c 0,18,19
 238 -86 238 -86 238 -101 c 128,-1,20
 238 -116 238 -116 244 -135.5 c 0,21,22
 250 -154 250 -154 261 -172 c 0,23,24
 286 -212 286 -212 320 -213 c 2,25,-1
 774 -213 l 1,26,-1
 774 -351 l 1,27,-1
 320 -351 l 2,28,29
 229 -352 229 -352 162 -262 c 0,30,31
 100 -180 100 -180 100 -100 c 256,0,1
715 138 m 1,32,-1
 1377 138 l 1,33,-1
 1377 615 l 2,34,35
 1378 742 1378 742 1304 832 c 0,36,37
 1216 940 1216 940 1058 940 c 0,38,39
 896 940 896 940 800 852 c 0,40,41
 716 775 716 775 715 680 c 2,42,-1
 715 138 l 1,32,-1
EndSplineSet
EndChar

StartChar: ml_2
Encoding: 329 3432 170
Width: 1638
GlyphClass: 2
Flags: W
LayerCount: 2
Fore
SplineSet
420 -13 m 1,0,1
 330 31 330 31 280 82.5 c 128,-1,2
 230 134 230 134 201 174 c 128,-1,3
 172 214 172 214 150 264 c 0,4,5
 100 374 100 374 100 503.5 c 128,-1,6
 100 633 100 633 138 738.5 c 128,-1,7
 176 844 176 844 245 920 c 0,8,9
 391 1081 391 1081 629 1081 c 0,10,11
 848 1080 848 1080 995 928 c 0,12,13
 1135 783 1135 783 1135 580 c 0,14,15
 1135 310 1135 310 999 138 c 1,16,-1
 1538 138 l 1,17,-1
 1538 0 l 1,18,-1
 813 0 l 1,19,-1
 813 136 l 1,20,21
 905 224 905 224 938 296 c 0,22,23
 997 425 997 425 997 580 c 0,24,25
 996 726 996 726 894 832 c 0,26,27
 786 943 786 943 629 943 c 0,28,29
 453 943 453 943 345 820 c 0,30,31
 238 698 238 698 238 506 c 0,32,33
 238 319 238 319 359 198 c 0,34,35
 412 143 412 143 480 111 c 1,36,-1
 420 -13 l 1,0,1
EndSplineSet
EndChar

StartChar: ml_3
Encoding: 330 3433 171
Width: 1675
GlyphClass: 2
Flags: W
LayerCount: 2
Fore
SplineSet
1040 29 m 1,0,-1
 1041 116 l 1,1,2
 1156 252 1156 252 1196 437 c 0,3,4
 1210 503 1210 503 1210 571 c 128,-1,5
 1210 639 1210 639 1195.5 705.5 c 0,6,7
 1180 772 1180 772 1152 824 c 0,8,9
 1088 941 1088 941 987 942 c 0,10,11
 914 942 914 942 850 888 c 0,12,13
 780 828 780 828 779 738 c 2,14,-1
 778 0 l 1,15,-1
 641 0 l 1,16,-1
 641 749 l 2,17,18
 642 826 642 826 610 867 c 0,19,20
 551 942 551 942 467 942 c 128,-1,21
 383 942 383 942 315 840 c 0,22,23
 238 726 238 726 238 538 c 0,24,25
 238 347 238 347 346 201 c 0,26,27
 394 139 394 139 454 97 c 1,28,-1
 376 -15 l 1,29,30
 164 133 164 133 112 404 c 0,31,32
 100 466 100 466 100 570 c 128,-1,33
 100 674 100 674 135 775.5 c 128,-1,34
 170 877 170 877 223.5 944.5 c 128,-1,35
 277 1012 277 1012 342 1046 c 128,-1,36
 407 1080 407 1080 467 1080 c 0,37,38
 633 1080 633 1080 719 955 c 1,39,40
 794 1045 794 1045 916 1072 c 0,41,42
 952 1080 952 1080 998.5 1080 c 128,-1,43
 1045 1080 1045 1080 1094.5 1059.5 c 128,-1,44
 1144 1039 1144 1039 1184 1003 c 128,-1,45
 1224 967 1224 967 1254.5 918 c 128,-1,46
 1285 869 1285 869 1306 813 c 0,47,48
 1348 701 1348 701 1348 572 c 0,49,50
 1348 382 1348 382 1251 138 c 1,51,-1
 1575 138 l 1,52,-1
 1575 0 l 1,53,-1
 1040 0 l 1,54,-1
 1040 29 l 1,0,-1
EndSplineSet
EndChar

StartChar: ml_4
Encoding: 331 3434 172
Width: 1593
GlyphClass: 2
Flags: W
LayerCount: 2
Fore
SplineSet
463 -18 m 1,0,1
 304 73 304 73 218 174 c 0,2,3
 100 314 100 314 100 494 c 0,4,5
 100 706 100 706 244 870 c 0,6,7
 407 1056 407 1056 687 1077 c 1,8,-1
 687 1538 l 1,9,-1
 825 1538 l 1,10,-1
 825 1077 l 1,11,12
 1142 1060 1142 1060 1326 893 c 0,13,14
 1494 741 1494 741 1493 524 c 0,15,16
 1493 312 1493 312 1355 150 c 0,17,18
 1214 -17 1214 -17 1021 -17 c 0,19,20
 856 -17 856 -17 766 80 c 0,21,22
 686 166 686 166 687 295 c 2,23,-1
 687 938 l 1,24,25
 472 917 472 917 348 776 c 0,26,27
 238 652 238 652 238 494 c 0,28,29
 238 300 238 300 428 168 c 0,30,31
 480 132 480 132 532 101 c 1,32,-1
 463 -18 l 1,0,1
1329 374 m 128,-1,34
 1355 447 1355 447 1355 523 c 128,-1,35
 1355 599 1355 599 1322 669.5 c 0,36,37
 1288 740 1288 740 1222 797 c 0,38,39
 1078 921 1078 921 825 938 c 1,40,-1
 825 295 l 2,41,42
 825 180 825 180 933 136 c 0,43,44
 970 121 970 121 1030.5 121 c 128,-1,45
 1091 121 1091 121 1152 155 c 128,-1,46
 1213 189 1213 189 1258 245 c 128,-1,33
 1303 301 1303 301 1329 374 c 128,-1,34
EndSplineSet
EndChar

StartChar: ml_5
Encoding: 332 3435 173
Width: 1714
GlyphClass: 2
Flags: W
LayerCount: 2
Fore
SplineSet
460 389 m 0,0,1
 460 173 460 173 546 90 c 1,2,-1
 459 -18 l 1,3,4
 384 56 384 56 343 206 c 0,5,6
 322 282 322 282 322 389 c 256,7,8
 322 614 322 614 465 776 c 0,9,10
 620 953 620 953 867 953 c 0,11,12
 1168 952 1168 952 1243 774 c 0,13,14
 1265 721 1265 721 1265 649 c 128,-1,15
 1265 577 1265 577 1226 508 c 128,-1,16
 1187 439 1187 439 1107 388 c 1,17,18
 1338 296 1338 296 1338 13 c 0,19,20
 1338 -147 1338 -147 1242 -256 c 0,21,22
 1125 -388 1125 -388 904 -417 c 0,23,24
 844 -425 844 -425 794 -425 c 0,25,26
 570 -425 570 -425 400 -277 c 0,27,28
 255 -150 255 -150 173 62 c 0,29,30
 100 250 100 250 100 406.5 c 128,-1,31
 100 563 100 563 124 684.5 c 128,-1,32
 148 806 148 806 194 912.5 c 128,-1,33
 240 1019 240 1019 306 1107.5 c 128,-1,34
 372 1196 372 1196 456 1259 c 0,35,36
 632 1392 632 1392 854 1392 c 0,37,38
 1304 1392 1304 1392 1496 1009 c 0,39,40
 1614 774 1614 774 1614 451 c 0,41,42
 1614 240 1614 240 1557 -13 c 1,43,-1
 1423 20 l 1,44,45
 1476 250 1476 250 1476 451 c 0,46,47
 1476 826 1476 826 1302 1052 c 0,48,49
 1207 1176 1207 1176 1045 1226 c 0,50,51
 961 1252 961 1252 861 1252.5 c 128,-1,52
 761 1253 761 1253 679 1223 c 128,-1,53
 597 1193 597 1193 528.5 1139 c 128,-1,54
 460 1085 460 1085 406 1009.5 c 128,-1,55
 352 934 352 934 314 843 c 0,56,57
 238 657 238 657 238 433 c 0,58,59
 238 184 238 184 372 -32 c 0,60,61
 468 -186 468 -186 620 -252 c 0,62,63
 698 -286 698 -286 765 -286 c 128,-1,64
 832 -286 832 -286 876.5 -281 c 128,-1,65
 921 -276 921 -276 966 -263 c 128,-1,66
 1011 -250 1011 -250 1053.5 -228 c 128,-1,67
 1096 -206 1096 -206 1128 -173 c 0,68,69
 1200 -100 1200 -100 1200 2 c 128,-1,70
 1200 104 1200 104 1163 160.5 c 0,71,72
 1126 216 1126 216 1066 248 c 0,73,74
 963 302 963 302 763 302 c 1,75,-1
 763 440 l 1,76,77
 935 440 935 440 1036 506 c 0,78,79
 1126 565 1126 565 1126 649 c 0,80,81
 1126 714 1126 714 1093 747 c 0,82,83
 1023 815 1023 815 867 815 c 0,84,85
 682 815 682 815 567 682 c 0,86,87
 460 559 460 559 460 389 c 0,0,1
EndSplineSet
EndChar

StartChar: ml_6
Encoding: 333 3436 174
Width: 1690
GlyphClass: 2
Flags: W
LayerCount: 2
Fore
SplineSet
1030 962 m 1,0,1
 1114 1080 1114 1080 1253 1080 c 0,2,3
 1417 1080 1417 1080 1505 898 c 0,4,5
 1590 722 1590 722 1590 416 c 0,6,7
 1590 141 1590 141 1482 -91 c 0,8,9
 1373 -326 1373 -326 1167 -398 c 0,10,11
 1090 -424 1090 -424 1012 -425 c 0,12,13
 834 -425 834 -425 679 -358 c 1,14,-1
 735 -232 l 1,15,16
 866 -287 866 -287 980 -287 c 128,-1,17
 1094 -287 1094 -287 1165 -248.5 c 128,-1,18
 1236 -210 1236 -210 1287 -148 c 128,-1,19
 1338 -86 1338 -86 1370 -8.5 c 0,20,21
 1402 70 1402 70 1420 148 c 0,22,23
 1452 288 1452 288 1452 411 c 128,-1,24
 1452 534 1452 534 1439.5 631 c 128,-1,25
 1427 728 1427 728 1402 797 c 0,26,27
 1349 942 1349 942 1253 942 c 0,28,29
 1176 942 1176 942 1130 861 c 0,30,31
 1101 810 1101 810 1091 741 c 1,32,-1
 1091 0 l 1,33,-1
 953 0 l 1,34,-1
 953 745 l 2,35,36
 953 858 953 858 892 919 c 0,37,38
 869 942 869 942 829.5 942 c 128,-1,39
 790 942 790 942 762 918 c 128,-1,40
 734 894 734 894 718 862 c 0,41,42
 692 808 692 808 689 744 c 1,43,-1
 689 0 l 1,44,-1
 550 0 l 1,45,-1
 550 745 l 2,46,47
 550 815 550 815 524 859 c 0,48,49
 475 942 475 942 408 942 c 0,50,51
 336 942 336 942 290 836 c 0,52,53
 238 718 238 718 239 498 c 0,54,55
 239 304 239 304 314 180 c 0,56,57
 347 124 347 124 390 91 c 1,58,-1
 305 -17 l 1,59,60
 149 107 149 107 109 369 c 0,61,62
 100 428 100 428 100 539 c 128,-1,63
 100 650 100 650 126 760 c 128,-1,64
 152 870 152 870 195 941 c 0,65,66
 279 1080 279 1080 407 1080 c 128,-1,67
 535 1080 535 1080 617 967 c 1,68,69
 696 1080 696 1080 827.5 1080 c 128,-1,70
 959 1080 959 1080 1030 962 c 1,0,1
EndSplineSet
EndChar

